<?xml version="1.0" encoding="UTF-8"?>
<svg id="_レイヤー_1" data-name="レイヤー 1" xmlns="http://www.w3.org/2000/svg" viewBox="0 0 199.8 199.8">
  <defs>
    <style>
      .cls-1 {
        fill: #fff;
      }

      .cls-2 {
        fill: #685155;
      }
    </style>
  </defs>
  <circle class="cls-2" cx="99.9" cy="99.9" r="99.9"/>
  <g>
    <g>
      <polygon class="cls-1" points="135.35 99.9 122.25 99.9 82.29 53.62 95.39 53.62 135.35 99.9"/>
      <path class="cls-1" d="M135.35,103.6h-13.1c-1.08,0-2.1-.47-2.8-1.28l-39.96-46.27c-.95-1.1-1.17-2.64-.56-3.96.6-1.32,1.92-2.16,3.37-2.16h13.1c1.08,0,2.1.47,2.8,1.28l39.96,46.27c.95,1.1,1.17,2.64.56,3.96-.6,1.32-1.92,2.16-3.37,2.16ZM123.94,96.2h3.32l-33.56-38.87h-3.32l33.56,38.87Z"/>
    </g>
    <g>
      <polygon class="cls-1" points="135.35 99.9 122.25 99.9 82.29 146.17 95.39 146.17 135.35 99.9"/>
      <path class="cls-1" d="M95.39,149.87h-13.1c-1.45,0-2.76-.84-3.37-2.16-.6-1.32-.38-2.86.56-3.96l39.96-46.27c.7-.81,1.73-1.28,2.8-1.28h13.1c1.45,0,2.76.84,3.37,2.16.6,1.32.38,2.86-.56,3.96l-39.96,46.27c-.7.81-1.73,1.28-2.8,1.28ZM90.38,142.47h3.32l33.56-38.87h-3.32l-33.56,38.87Z"/>
    </g>
  </g>
</svg>