<?xml version="1.0" encoding="UTF-8"?>
<svg id="_レイヤー_1" data-name="レイヤー 1" xmlns="http://www.w3.org/2000/svg" viewBox="0 0 199.8 199.8">
  <defs>
    <style>
      .cls-1 {
        fill: #fff;
      }

      .cls-2 {
        fill: #685155;
      }
    </style>
  </defs>
  <circle class="cls-2" cx="99.9" cy="99.9" r="99.9"/>
  <g>
    <g>
      <polygon class="cls-1" points="64.44 99.9 77.55 99.9 117.5 53.62 104.4 53.62 64.44 99.9"/>
      <path class="cls-1" d="M61.08,101.44c-.6-1.32-.38-2.86.56-3.96l39.96-46.27c.7-.81,1.73-1.28,2.8-1.28h13.1c1.45,0,2.76.84,3.37,2.16.6,1.32.38,2.86-.56,3.96l-39.96,46.27c-.7.81-1.73,1.28-2.8,1.28h-13.1c-1.45,0-2.76-.84-3.37-2.16ZM109.42,57.33h-3.32s-33.56,38.87-33.56,38.87h3.32s33.56-38.87,33.56-38.87Z"/>
    </g>
    <g>
      <polygon class="cls-1" points="64.44 99.9 77.55 99.9 117.5 146.17 104.4 146.17 64.44 99.9"/>
      <path class="cls-1" d="M101.6,148.59l-39.96-46.27c-.95-1.1-1.17-2.64-.56-3.96.6-1.32,1.92-2.16,3.37-2.16h13.1c1.08,0,2.1.47,2.8,1.28l39.96,46.27c.95,1.1,1.17,2.64.56,3.96-.6,1.32-1.92,2.16-3.37,2.16h-13.1c-1.08,0-2.1-.47-2.8-1.28ZM75.85,103.6h-3.32s33.56,38.87,33.56,38.87h3.32s-33.56-38.87-33.56-38.87Z"/>
    </g>
  </g>
</svg>