<!--?xml version="1.0" encoding="utf-8"?-->
<!-- Generator: Adobe Illustrator 22.1.0, SVG Export Plug-In . SVG Version: 6.00 Build 0)  -->
<svg version="1.1" id="_x35_" xmlns="http://www.w3.org/2000/svg" xmlns:xlink="http://www.w3.org/1999/xlink" x="0px" y="0px" viewBox="0 0 800 229.4" style="enable-background:new 0 0 800 229.4;" xml:space="preserve">
<style type="text/css">
	.st0{fill:#75665F;}
</style>
<g>
	<path class="st0" d="M54.2,113.8L54.2,113.8L54.2,113.8C54.2,113.8,54.2,113.7,54.2,113.8z"></path>
	<path class="st0" d="M54.2,113.8L54.2,113.8C54.2,113.8,54.2,113.8,54.2,113.8z"></path>
	<path class="st0" d="M795.5,100.8c-0.3-1.4-0.9-2.8-1.6-4c0.3-0.5,0.5-1.1,0.4-1.3c0,0-0.7-1.5-1.6-4.4c-0.9-2.9-2-7.1-3.1-12.2
		c-2.2-10.3-4.8-19.2-6.1-33.5c-0.3-3.6,0-12.3-0.3-15.8c-0.1-1.8-0.2-3.5-0.3-5.2c0-0.9,0-1.7,0-2.5c0-0.9,0-1.9-0.1-2.9
		c-0.2-1.9-0.7-3.9-1.4-5.7c-0.8-1.8-1.8-3.5-3.1-4.9c-2.6-2.8-5.8-4.5-8.8-5.5c-3-1-5.8-1.4-8.3-1.6c-2.5-0.2-4.7-0.1-6.6,0
		c-3.8,0.2-6.2,0.8-6.8,0.9c-0.2,0.1-0.5,0.1-0.7,0.2c-0.2,0-0.5,0.1-0.7,0.1c-0.6,0.2-3.5,0.8-7.5,3c-2,1.1-4.2,2.6-6.4,4.6
		c-1.1,1-2.2,2.2-3.2,3.5c-0.5,0.7-1,1.4-1.5,2.1c-0.2,0.4-0.5,0.8-0.7,1.2c-0.4,0.7-0.7,1.4-1,2.1l0.3,1.6l0.1,0.8
		c0.1,0.5,0.1,1,0.2,1.5c0.1,1.1,0.2,2.2,0.3,3.3c0.1,2.3,0.2,4.6,0.3,7.1c0.1,4.9,1.8,13.1,1.8,18.3c-0.2,10.4-2.2,18.1-1.9,27.8
		c0.2,9.7,1,18.4,2.4,24.6c0.7,3.1,1.5,5.6,2.3,7.4c0.8,1.7,1.4,2.6,1.4,2.6c0.2,0.2,0.6,0.5,1.2,0.6c0.4,0,0.8,0,1.1-0.2
		c0.6,1,1.3,1.9,2.1,2.6c1.9,1.9,4.1,3.1,6.3,4c2.2,0.9,4.4,1.4,6.6,1.7c4.3,0.6,8.4,0.3,12-0.6c1.8-0.4,3.6-1,5.2-1.8
		c0.8-0.4,1.6-0.8,2.3-1.3c0.4-0.3,0.7-0.5,1.1-0.8c0.3-0.3,0.6-0.5,0.9-0.8c1.2-1.1,2.2-2.3,3-3.7c0.8-1.4,1.3-3,1.3-4.6
		c0-1.6-0.7-3.3-1.6-4.3c-0.9-1.1-2-1.7-2.9-2.1c-1.9-0.8-3.3-0.8-4.3-0.9c-0.9,0-1.4,0-1.4,0c-1.1,0-2.7,0.6-3.9,1.3
		c-1.2,0.8-2,1.7-1.8,2.3c0.2,0.6,1.2,0.8,2.4,0.9c1.2,0.1,2.5,0.1,3.6,0.1c0,0,0.3,0,1,0c0.6,0,1.6,0.1,2.6,0.5
		c0.5,0.2,0.9,0.5,1.2,0.9c0.3,0.4,0.5,0.8,0.5,1.4c0,0.6-0.2,1.4-0.7,2.2c-0.5,0.8-1.2,1.7-2.1,2.6c-0.2,0.2-0.5,0.4-0.7,0.6
		c-0.2,0.2-0.5,0.4-0.7,0.6c-0.5,0.4-1.1,0.7-1.7,1c-1.2,0.6-2.7,1.1-4.2,1.5c-3.1,0.7-6.6,1-10.3,0.5c-1.8-0.2-3.7-0.7-5.4-1.4
		c-1.8-0.7-3.4-1.7-4.7-2.9c-1.3-1.3-2.3-2.9-2.6-4.7c-0.4-2-0.4-4,0.2-5.9c0.6-1.9,1.8-3.7,3.4-5.3c1.6-1.6,3.6-2.9,5.8-4
		c4.4-2.2,9.6-3.5,15-3.9c5.4-0.4,11,0,16.3,1.7c2.6,0.9,5.1,2.2,7,3.9c2,1.7,3.4,3.9,4.1,6.4c0.7,2.5,0.5,5.3-0.1,8.1
		c-0.7,2.7-1.9,5.4-3.5,7.9c-3.2,5.1-7.7,9.6-12.6,13.6c-4.9,4-10.3,7.6-16,10.8c-5.7,3.2-11.6,6.1-17.7,8.7
		c-12.1,5.2-24.8,9.3-37.5,12.5c-12.7,3.3-25.5,5.7-38,7.5c-6.2,0.9-12.4,1.7-18.5,2.3c-3,0.3-6.1,0.6-9,0.8l-1.5,0.1
		c0,0,0,0-0.1-0.1l-0.8-0.9c-0.5-0.6-1-1.1-1.6-1.4c-0.6-0.4-1.3-0.6-2-0.6c-0.1,0-0.2,0-0.3,0l-0.1,0l-0.2,0l-0.5-0.1
		c-0.7-0.1-1.4-0.3-2.1-0.4l-1.3-0.3c-0.7-0.1-1.4-0.2-2.1-0.2c-1.3,0-2.5,0.7-3.1,1.9c-0.4,0.6-0.6,1.2-0.9,1.9l-0.2,0.6l-0.1,0.1
		c0,0-0.4,0.1-0.6,0.3c-0.3,0.1-0.8,0.5-0.7,0.4l0,0l-0.1,0l-3.9,0.2c-5.6,0.2-10.9,0.3-16.1,0.4c-20.8,0.2-38.6-0.8-51.7-1.7
		c-13.1-1-21.6-1.9-23.8-2.2c-0.8-0.1-1.6-0.2-2.4-0.2c-0.7-0.1-1.5-0.2-2.3-0.3c-4.5-0.5-33.9-3.6-74.8-11.9
		c-20.6-3.9-44.4-7.8-69.7-10.8c-12.7-1.5-25.7-2.7-39-3.7c-6.6-0.5-13.3-0.9-20-1.2c-3.3-0.2-6.7-0.3-10.1-0.4l-2.5-0.1
		c-0.4,0-0.9,0-1,0c-0.2,0-0.6-0.1-0.9-0.2c-1.5-0.3-3.1-0.8-4.7-1.3c-0.8-0.2-1.6-0.5-2.5-0.7c-0.9-0.2-1.7-0.5-2.8-0.6l-0.5-0.1
		c-0.2,0-0.4,0-0.5,0l-0.7,0c-0.5,0-1,0-1.4,0.1c-1,0.1-1.9,0.2-2.9,0.5c-1.9,0.5-3.5,1.2-4.8,1.5c-0.7,0.2-1.3,0.3-2,0.4
		c-0.3,0-0.7,0.1-1.1,0.1c-0.3,0-0.7,0-1.1,0c-6.7,0-13.3,0.1-19.9,0.3c-13.1,0.4-26,1.1-38.5,2.1c-24.9,2.1-47.9,5.5-67.3,9.6
		c-19.5,4-35.4,8.7-46.3,12.7c-10.9,3.9-16.8,7.2-16.8,7.2c-1.1,0.6-2.4,1.6-3.2,2.6c-0.1,0.1-0.1,0.2-0.2,0.3
		c-0.4-12.2-0.3-24.1-0.2-33.2c0.2-10.3,0.6-17.1,0.6-17.1c0-0.5-1-1.6-2.2-1.7c-1.3-0.1-2.4,0.8-2.4,1.4c0,0-1.8,27.3-1,55.4
		c0.2,7,0.7,14.1,1.4,20.8c0.2,1.7,0.4,3.3,0.6,5l0.4,2.4l0.2,1.1l0,0.1l0,0.1l-0.2,0.3c-0.1,0.1-0.2,0.2-0.3,0.3
		c-0.4,0.4-0.8,0.8-1.3,1.2c-0.9,0.8-2,1.5-3.1,2.2c-4.3,2.6-8.6,4-11.7,4.8c-3.1,0.8-5.2,1.1-5.8,1.2c-0.2,0-0.4,0.1-0.6,0.1
		c-0.2,0-0.4,0-0.6,0c-0.5,0-2.6,0.4-5.7,0.2c-1.5-0.1-3.3-0.3-5.1-1c-1.8-0.6-3.4-1.6-4.5-3.3c-0.5-0.8-1-1.8-1.2-2.9
		c-0.1-0.6-0.2-1.1-0.3-1.8c0-0.3,0-0.6,0-0.9l0-1.2c0-0.6-0.1-1.1-0.1-1.7c0.5,0.2,1.3,0.5,2.3,0.9c1.7,0.5,4,1,6.4,1.2
		c4.7,0.4,9.5-0.5,9.9-0.5l0.1,0l0.1,0c0.2,0,1.5-0.3,3.2-0.9c1.8-0.6,4-1.4,6.1-2.5c2.1-1.1,4-2.4,5.4-3.7c1.3-1.2,2.1-2.3,2.1-2.3
		c0.1-0.1-0.3-0.6-1-1c-0.6-0.4-1.2-0.7-1.3-0.6c0,0-0.6,0.8-1.8,1.7c-1.2,1-3,2.1-4.9,3c-1.9,0.9-4,1.6-5.6,2
		c-1.6,0.4-2.8,0.6-3,0.7l-0.1,0l-0.1,0c-0.3,0.1-4.6,1.1-8.9,0.9c-2.1-0.1-4.2-0.4-5.8-0.8c-1.5-0.4-2.5-0.8-2.5-0.8
		c-0.1,0-0.5,0.5-0.8,1.2c0,0,0,0,0,0c-0.2-2.2-0.6-4.5-1-6.8c-1.3-6.7-3.3-13.6-5.6-20.2c-0.1-0.3-0.2-0.6-0.3-0.9
		c0.3,0.1,1.4,0.4,2.9,0.7c1.8,0.4,4.3,0.7,6.8,0.8c5,0.3,10-0.4,10.4-0.5l0.1,0l0.1,0c0.4-0.1,5.4-0.9,10.1-2.7
		c2.3-0.9,4.6-1.9,6.2-2.9c1.6-1,2.6-2,2.6-2c0.1-0.1-0.2-0.7-0.7-1.2c-0.5-0.5-1.1-0.9-1.1-0.8c0,0-0.7,0.7-2.2,1.5
		c-1.5,0.8-3.6,1.7-5.8,2.4c-4.5,1.4-9.2,2.1-9.6,2.1l-0.1,0l-0.1,0c-0.4,0.1-5.1,0.9-9.8,0.9c-2.3,0-4.6-0.2-6.3-0.4
		c-1.7-0.2-2.8-0.5-2.8-0.5c-0.1,0-0.4,0.5-0.6,1.3c-0.1,0.4-0.2,0.8-0.2,1c-1.1-3.3-2.4-6.5-3.6-9.7c0.3,0.1,0.6,0.3,0.9,0.4
		c2.1,0.8,4.9,1.4,7.8,1.5c5.7,0.3,11.4-0.7,11.8-0.7l0.1,0H51c0.5-0.1,6.1-1.2,11.3-3.2c2.6-1,5.2-2.2,7-3.2c1.8-1.1,3-2,3-2
		c0.1-0.1-0.1-0.7-0.6-1.3c-0.5-0.6-1-1-1.1-0.9c0,0-1,0.8-2.7,1.6c-1.7,0.9-4.1,1.9-6.7,2.8c-5.1,1.7-10.5,2.6-10.9,2.6l-0.1,0
		l-0.1,0c-0.4,0.1-5.8,1.2-11.1,1.1c-2.6,0-5.2-0.4-6.9-1c-1.7-0.6-2.5-1.3-2.5-1.3c0,0-0.3,0.1-0.7,0.5c-3.2-8-6.6-15.3-9.5-21.2
		c-0.7-1.5-1.4-2.9-2.1-4.2c3.2,1.8,6.6,2.9,10.1,3.4c3.8,0.6,7.7,0.6,11.4,0.2c1.9-0.2,3.7-0.5,5.5-0.9c1.8-0.4,3.5-0.8,5.3-1.2
		c3.5-0.9,6.9-2.1,10.2-3.6c3.3-1.5,6.4-3.2,9.3-5.3c2.9-2.1,5.5-4.6,7.7-7.5c2.1-2.9,3.8-6.2,4.6-9.7c0.9-3.5,1-7.2,0.1-10.7
		c-0.4-1.8-1-3.4-2-5.1c-1.1-1.8-2.6-3.1-4.2-4c-3.2-1.8-6.5-2.3-9.7-2.6c-3.2-0.2-6.2,0-9.2,0.4c-3,0.4-5.8,1.1-8.6,1.9
		c-5.5,1.7-10.5,4.1-14.8,7.5c-2.1,1.7-4,3.6-5.5,5.8c-0.7,1.1-1.4,2.2-1.9,3.5c-0.5,1.3-0.8,2.7-0.8,4.3c0.1,1.5,0.6,3.1,1.5,4.3
		c0.9,1.2,1.9,2.1,3,2.8c2.2,1.3,4.4,1.9,6.5,2.3c4.2,0.7,8,0.4,11.5-0.5c0.9-0.2,1.7-0.5,2.5-0.9c0.8-0.3,1.5-0.7,2.2-1.1
		c1.2-0.7,2.3-1.5,3.2-2.3l1.7,12.5c-2.7,1.2-5.5,2.1-8.5,2.9c-3.3,0.9-6.6,1.6-10,2c-3.3,0.4-6.7,0.4-10-0.1
		c-3.3-0.5-6.4-1.5-9.2-3.2c-2.8-1.7-5.1-3.9-6.8-6.7c-1.7-2.7-2.8-5.9-3.1-9.2c-0.8-6.6,1.1-13.6,4.4-19.7c1.7-3.1,3.7-5.9,6-8.6
		c2.3-2.6,4.9-4.9,7.8-7c5.7-4.3,12.1-7.8,18.5-11C59.2,67.9,72.7,63,86.1,59c13.4-4,26.6-7,39.3-9.4c3.2-0.6,6.3-1.1,9.5-1.7
		l2.3-0.4l0.3,0l0,0l0.1,0l0.4,0.4l0.5,0.4c0.3,0.2,0.6,0.5,0.9,0.7c0.6,0.4,1.3,0.7,2.1,0.7c0.7,0.1,1.5-0.1,2.2-0.3l0.5-0.1
		l0.3-0.1l0.6-0.2l1.1-0.5c0.7-0.3,1.3-0.5,1.7-0.6c0.1,0,0.2,0,0.3-0.1c0.1,0,0,0,0.1,0c0.1,0,0.3,0,0.6,0.1c0.5,0.1,1.2,0.3,2,0.5
		c0.8,0.2,1.6,0.4,2.6,0.6c0.3,0,0.6,0,0.9,0c0.2,0,0.3,0,0.5,0c0.1,0,0.1,0,0.4,0l0.1,0c0,0,0.2,0,0.3-0.1c0.1,0,0.3-0.1,0.4-0.1
		c0.2-0.1,0.4-0.1,0.6-0.2c0.4-0.2,0.6-0.4,0.9-0.5c1-0.8,1.6-1.5,2.1-2.1c0.5-0.6,0.9-1.1,1.2-1.4c0.1-0.1,0.2-0.2,0.3-0.2l2-0.2
		l4.2-0.4c2.8-0.3,5.5-0.5,8.1-0.7c5.3-0.4,10.3-0.8,15.1-1c9.6-0.5,18.1-0.8,25.4-0.8c14.5-0.2,23.9,0.2,26.5,0.2
		c0.9,0,0.8-2.5,1.6-2.5c0.8,0,2.7,2.7,3.6,2.7c5.2,0.3,40.4,1,88.9,8.6l18.9,3c6.5,1,13.2,2,20,3c13.7,1.9,28,3.8,42.8,5.5
		c14.8,1.7,29.9,3.2,45.2,4.4c7.7,0.6,15.3,1.2,23,1.7l11.5,0.7l11.4,0.6l0.1,0l0.1,0l0.2,0.1c0.3,0.1,0.6,0.3,0.9,0.5
		c0.7,0.4,1.4,0.9,2.1,1.4l1.5,1c0.7,0.5,1.4,0.9,2.1,1.3c1.4,0.7,2.6,1,3.7,0.6c0.3-0.1,0.6-0.2,0.8-0.4c0.2-0.2,0.4-0.4,0.6-0.6
		c0.3-0.4,0.5-0.9,0.7-1.5c0.1-0.5,0.2-1.2,0.2-1.9l0.3,0l2.6,0.1c7,0.2,14,0.4,20.9,0.5c13.8,0.2,27.3,0.1,40.3-0.2
		c26-0.7,50-2.5,70.3-5.3c20.3-2.7,37-6.5,48.4-10.2c11.4-3.7,17.4-7.4,17.4-7.4c1.2-0.7,6.1-2.8,7-3.9c0.9-1.1,0-2.6-0.4-3.1
		c-0.4-0.5-1.1-5.3-1.7-4c-1.5,3.6-6.3,6.5-7.2,7c0,0-5.5,3.4-16.5,6.9c-11,3.6-27.4,7.2-47.6,9.8c-20.1,2.7-44,4.4-69.8,5
		C573.4,65,560,65,546.3,64.8c-6.9-0.1-13.8-0.3-20.8-0.6l-2.6-0.1l-1.3-0.1l-0.7,0l-0.3,0c-0.1,0,0,0-0.4,0c-0.1,0-0.3,0-0.4,0
		c-0.2,0-0.3,0.1-0.5,0.1c-0.3,0.1-0.7,0.3-0.9,0.5c-0.3,0.2-0.5,0.5-0.6,0.7c-0.3,0.5-0.4,0.8-0.5,1.1c0,0.1,0,0.1,0,0.2l0,0l0,0
		l0,0.2l0,0.2l-0.1,0.1c-0.1,0-0.2-0.1-0.3-0.2l-0.9-0.6c-0.7-0.5-1.5-1-2.3-1.5c-0.4-0.3-0.9-0.5-1.4-0.8l-0.4-0.2
		c-0.1-0.1-0.4-0.2-0.6-0.2c-0.4-0.1-0.8-0.2-1.2-0.2L498.4,63l-11.5-0.7c-7.7-0.5-15.4-1.1-23-1.8c-15.3-1.3-30.9-1.1-45.6-2.8
		c-14.7-1.7-28.6-5.4-42.2-7.4c-6.8-1-13.5-2-20-3L334.3,45c-48.9-7.8-81.4-9.3-86.3-9.6c-0.9,0-1.8,0-2.6,0
		c-0.8-0.1-1.7-0.1-2.6-0.1c-2.4,0-11.7-0.4-26.3-0.2c-7.3,0.1-15.9,0.4-25.5,0.9c-4.8,0.3-9.9,0.6-15.3,1.1
		c-2.7,0.2-5.4,0.5-8.2,0.7l-4.2,0.4l-2.1,0.2l-0.5,0.1c0,0-0.3,0-0.5,0.1c-0.2,0-0.4,0.1-0.6,0.2c-0.8,0.3-1.4,0.6-1.8,1
		c-0.9,0.7-1.5,1.4-2,2c-0.5,0.6-0.9,1.1-1.2,1.3c-0.1,0.1-0.1,0.1-0.1,0.1c-0.2,0-0.8-0.1-1.3-0.2c-0.7-0.2-1.4-0.4-2.2-0.6
		c-0.4-0.1-0.9-0.2-1.4-0.3c-0.5-0.1-1.2-0.1-1.9,0c-1.2,0.2-2.1,0.5-2.9,0.9c-0.8,0.3-1.5,0.6-2,0.8l-0.3,0.1l-0.1,0l-0.1,0
		l-0.8-0.7c-1.1-0.9-2.6-1.7-4.1-1.4l-0.6,0.1l-0.3,0.1l-0.6,0.1l-1.2,0.2c-3.2,0.5-6.3,1.1-9.6,1.7c-12,2.3-24.4,5.1-37,8.8
		c-1,0.3-1.8,3.2-2.8,3.5c-1.2,0.4-3.1-0.4-4.2,0c-0.9,0.3-1.2-1-2.2-0.7c-11.5,3.7-23.1,8.1-34.4,13.7c-6.7,3.3-13.2,7-19.4,11.5
		c-3.1,2.3-6.1,4.8-8.7,7.7c-2.6,2.9-4.9,6.1-6.8,9.5c-1.9,3.4-3.4,7.1-4.4,10.9c-0.9,3.8-1.3,7.9-0.9,11.9
		c0.4,3.7,1.4,7.3,3.2,10.5c-0.3,0.6-0.4,1.3-0.2,1.5c0,0,0.9,1.4,2.3,3.9c1.4,2.6,3.4,6.3,5.6,11c4.4,9.2,9.9,21.9,14.2,35
		c2.1,6.6,4,13.2,5.1,19.6c0.6,3.2,0.9,6.2,1,9.1l0,1.1c0,0.4,0,0.9,0.1,1.3c0.1,0.9,0.2,1.8,0.4,2.6c0.4,1.7,1.1,3.4,2.1,4.9
		c1,1.5,2.2,2.6,3.5,3.5c1.3,0.9,2.6,1.5,3.9,2c2.5,0.9,4.8,1.2,6.7,1.3c3.8,0.2,6.1-0.1,6.7-0.2c0.2,0,0.4-0.1,0.7-0.1
		c0.2,0,0.4,0,0.7,0c0.6-0.1,2.9-0.4,6.4-1.4c3.5-1,8.1-2.5,13.2-5.6c1.3-0.8,2.5-1.7,3.8-2.7c0.6-0.5,1.3-1.1,1.9-1.8
		c0.3-0.3,0.6-0.7,0.9-1.1c0.4-0.6,0.8-1.2,1.1-1.9l0.2-0.5c0-0.2,0-0.4,0-0.5c-0.1-0.4-0.1-0.7-0.2-1.1l-0.3-1.4l-0.4-2.3
		c-0.3-1.5-0.5-3.1-0.7-4.8c-0.8-6.5-1.3-13.4-1.7-20.4c0-0.7-0.1-1.4-0.1-2.1c0.5,0.1-0.2,4.4,0.3,3.8c1.9-3.1,4.4-4.8,5.2-5.2
		c0,0,5.6-3.1,16.3-6.9c10.7-3.9,26.5-8.5,45.8-12.4c19.3-4,42.2-7.3,66.9-9.2c12.4-1,25.2-1.6,38.3-2c6.5-0.2,13.1-0.2,19.8-0.2
		c1.8,0,3.9-0.2,5.7-0.8c1.8-0.6,3.2-1.2,4.6-1.4c0.7-0.1,1.4-0.2,2.1-0.3c0.4,0,0.7,0,1.1,0c0.1,0,0.2,0,0.2,0l0.1,0
		c0.1,0,0.3,0,0.4,0.1c1.3,0.3,3,0.8,4.6,1.3c1.6,0.5,3.2,1,5.1,1.4c0.5,0.1,1,0.2,1.7,0.2l1.3,0l2.5,0.1c3.3,0.1,6.7,0.3,10,0.5
		c6.7,0.3,13.3,0.8,19.9,1.3c13.2,1,26.2,2.3,38.8,3.8c25.2,3,48.8,7,69.2,11l15.7,1.3c4.7,0.9,8.3,3.3,12.6,4.1
		c8.6,1.5,16.3,2.7,22.8,3.7c13,1.9,21.4,2.8,23.6,3.1c0.8,0.1,1.6,0.2,2.4,0.2c0.8,0.1,1.5,0.2,2.4,0.3c2.1,0.2,10.5,1.1,23.7,2.1
		c13.1,0.9,31,1.9,52,1.6c5.2-0.1,10.7-0.2,16.3-0.4l4.5-0.2l0.6,0c0.3,0,0.7-0.1,1-0.2c0.5-0.1,1-0.3,1.4-0.6
		c0.1,0.2,0.1,0.2,0.1,0c0.1,0,0.1-0.1,0.2-0.2c0.3,0,0.6-0.1,0.8-0.2c0.6-0.2,1.1-0.7,1.5-1.2c0.4-0.5,0.7-1.2,1-1.8l0.2-0.5
		l0.1-0.1l0.1,0l0.3,0.1l2.2,0.4c0.4,0.1,0.8,0.1,1.2,0.2l0.3,0l0.2,0l0,0h0l0.1,0l0,0l0.3,0.4c0.2,0.3,0.5,0.6,0.8,1
		c0.2,0.2,0.4,0.4,0.6,0.6c0.3,0.2,0.6,0.5,1.3,0.8c0.2,0.1,0.4,0.1,0.8,0.2c0.5,0.1,0.4,0,0.5,0c0.6,0,0.2,0,0.4,0l0.1,0l0.6,0
		l1.1-0.1c3-0.3,6.1-0.5,9.2-0.9c6.2-0.6,12.4-1.4,18.8-2.4c12.7-1.9,25.8-5.5,38.7-8.8c12.9-3.4,25.7-6.4,38.2-11.8
		c6.2-2.7,12.3-5.7,18.2-9c5.9-3.4,11.5-7.1,16.8-11.4c5.2-4.3,10-9.1,13.7-14.9c1.8-2.9,3.3-6,4.2-9.4
		C796.1,108,796.3,104.4,795.5,100.8z M52.7,118.6c-0.8,0.7-1.8,1.4-2.9,2.1c-0.5,0.3-1.1,0.6-1.7,0.9c-0.6,0.2-1.2,0.5-1.9,0.6
		c-2.7,0.7-6,1-9.4,0.4c-1.7-0.3-3.4-0.8-4.8-1.6c-0.7-0.4-1.3-0.9-1.7-1.5c-0.4-0.5-0.6-1.1-0.6-1.8c-0.1-1.4,0.6-3.2,1.8-4.9
		c1.2-1.7,2.7-3.3,4.5-4.7c3.6-2.9,8.1-5.1,13.1-6.6c5-1.5,10.5-2.4,16-2.1c2.7,0.2,5.5,0.7,7.6,1.9c1.1,0.6,2,1.3,2.5,2.2
		c0.1,0.2,0.3,0.5,0.4,0.8c0.1,0.3,0.3,0.6,0.4,0.9c0.2,0.6,0.4,1.2,0.6,1.9c0.7,2.6,0.6,5.5,0,8.3c-0.7,2.8-1.9,5.5-3.7,7.9
		c-2.8,3.9-6.8,7.1-11.3,9.5l-1.2-16.8c0,0,0-0.1,0.1-0.1c0.1-0.3,0.2-0.6,0.3-0.9c0.2-0.6,0.3-1.2,0.3-1.8c0-1.1-0.3-2-0.7-2.6
		c-0.4-0.6-0.8-1-1.1-1.2c-0.3-0.2-0.5-0.3-0.5-0.3c-0.2-0.1-0.4-0.2-0.7-0.3c-0.3-0.3-0.6-0.6-0.9-0.9c-0.6-0.5-1.5-1-2.4-1.3
		c-0.9-0.3-1.9-0.4-2.8-0.4c-1.8,0.1-3.4,0.6-4.8,1.3c-2.8,1.3-5,3.1-6.6,4.5c-1.6,1.4-2.5,2.4-2.5,2.4c-0.1,0.1,0.5,1,1.4,1.9
		c0.9,0.9,1.7,1.5,1.8,1.5c0,0,0.9-0.8,2.4-1.9c1.5-1.1,3.6-2.5,5.7-3.3c0.6-0.2,1.2-0.4,1.8-0.5c0.3,0.5,1.4,0.7,2.5,0.8
		c0,0,0,0,0,0c0.2,0.3,0.3,0.5,0.4,0.8l0.1,0.3c0,0,0,0.1,0,0.1l0,0l0,0l0.4,2.8C54,117.3,53.4,117.9,52.7,118.6z M154.5,43.7
		c0,0.1,0.1,0.1,0.2,0.2l-0.1,0.1C154.5,44.5,154.5,44.1,154.5,43.7C154.5,43.7,154.5,43.7,154.5,43.7z M635.2,176.6
		C635.2,176.5,635.2,176.5,635.2,176.6c0,0,0.1,0.1,0.1,0.2C635.2,176.7,635.1,176.6,635.2,176.6z M781.2,86.9
		c-6.1-2.1-12.4-2.5-18.3-2.1c-5.9,0.5-11.7,1.9-16.8,4.4c-2.6,1.3-5,2.8-7.1,4.8c-2.1,2-3.8,4.5-4.7,7.3c-0.1,0.2-0.1,0.4-0.2,0.6
		c-1.1-5.7-1.6-13.7-1.7-22.7c-0.1-9.5,0.2-20.2,0.5-30.7c0.1-5.2,0.3-10.4,0.3-15.4c0-2.5-0.1-4.9-0.2-7.3
		c-0.1-1.2-0.1-2.4-0.3-3.6c-0.1-0.6-0.1-1.2-0.2-1.8l-0.1-0.8l0,0l0,0c0.2-0.3,0.3-0.6,0.5-0.9c0.4-0.6,0.7-1.1,1.2-1.6
		c0.8-1,1.7-1.9,2.6-2.8c1.8-1.6,3.6-2.8,5.2-3.7c3.2-1.7,5.6-2.2,6.2-2.4c0.2-0.1,0.4-0.1,0.6-0.2c0.2,0,0.4,0,0.6-0.1
		c0.6-0.1,2.6-0.6,5.9-0.8c1.7-0.1,3.7-0.2,5.8,0c2.2,0.1,4.5,0.5,6.9,1.2c2.3,0.8,4.6,2,6.3,3.9c1.7,1.9,2.8,4.4,3.1,7.4
		c0,0.4,0.1,0.7,0.1,1.1c0,0.4,0,0.7,0,1.2c0,0.9,0,1.8,0.1,2.7c0.1,1.8,0.2,3.6,0.3,5.4c0,0.2,0,0.4,0,0.6
		c-0.2-0.1-0.3-0.3-0.5-0.4c-1.5-1.2-3.8-2.5-6.3-3.4c-2.5-0.9-5.1-1.3-7.1-1.4c-2-0.1-3.5,0-3.7,0l-0.1,0l-0.1,0
		c-0.2,0-1.6,0.1-3.6,0.5c-2,0.4-4.5,1-6.9,1.9c-4.8,1.8-9,4.5-9,4.5c-0.1,0,0,0.6,0.4,1.2c0.3,0.6,0.8,0.9,0.9,0.9
		c0,0,4.1-2.4,8.7-3.9c2.3-0.8,4.6-1.3,6.5-1.6c1.8-0.3,3.1-0.3,3.3-0.3l0.1,0l0.1,0c0.2,0,1.5-0.1,3.3-0.1c1.8,0,4.2,0.3,6.4,1
		c2.2,0.7,4.3,1.7,5.6,2.7c1.4,1,2.1,1.9,2.1,1.9c0,0,0.1,0,0.2,0c0.2,2.3,0.4,4.6,0.7,6.8c0.1,1.3,0.3,2.6,0.4,3.9
		c-0.4-0.4-1.2-1-2.2-1.6c-1.6-1-4-2.1-6.4-2.7c-2.5-0.7-5-1-7-1.1c-2-0.1-3.3,0-3.5,0l-0.1,0l-0.1,0c-0.2,0-1.6,0.1-3.5,0.4
		c-1.9,0.3-4.4,0.8-6.8,1.6c-4.8,1.4-9.1,3.7-9.1,3.7c-0.1,0,0,0.6,0.3,1.2c0.3,0.6,0.7,1,0.8,1c0,0,4.2-2,8.8-3.2
		c2.3-0.6,4.6-1,6.4-1.2c1.8-0.2,3.1-0.3,3.3-0.3l0.1,0l0.1,0c0.2,0,1.5-0.1,3.3-0.1c1.8,0,4.1,0.2,6.4,0.7c2.2,0.5,4.4,1.3,5.8,2.2
		c1.4,0.8,2.2,1.6,2.2,1.6c0.1,0.1,0.6-0.2,1-0.7c0.1-0.1,0.3-0.3,0.4-0.4c1.5,12.7,3.5,24.9,5.6,34.2c0.9,3.9,1.8,7.2,2.6,9.9
		C785.4,88.6,783.3,87.6,781.2,86.9z"></path>
	<path class="st0" d="M69.6,145c0,0-0.8,1-2.3,2.3c-1.6,1.3-3.9,2.8-6.5,4c-2.5,1.2-5.3,2.2-7.4,2.9c-2.1,0.6-3.7,1-3.9,1l-0.1,0.1
		l-0.1,0c-0.2,0-1.7,0.5-3.9,0.8c-2.2,0.4-5,0.7-7.8,0.7c-2.8,0-5.6-0.4-7.6-0.9c-2-0.5-3.3-1-3.3-1c-0.1,0-0.5,0.5-0.8,1.2
		c-0.3,0.7-0.4,1.4-0.2,1.4c0,0,1.4,0.6,3.6,1.3c2.2,0.6,5.2,1.2,8.2,1.3c3,0.2,6.1-0.1,8.5-0.4c2.4-0.3,4-0.7,4.2-0.8l0.1-0.1
		l0.1,0c0.3-0.1,1.9-0.5,4.1-1.2c2.2-0.8,5.1-1.9,7.8-3.4c2.7-1.4,5.2-3.1,6.9-4.7c1.7-1.5,2.7-2.9,2.7-2.9c0.1-0.1-0.3-0.7-0.9-1.1
		C70.3,145.1,69.7,144.9,69.6,145z"></path>
	<path class="st0" d="M71.6,193.7c-1.2,0.7-3,1.5-4.8,2c-3.8,1.2-7.8,1.6-8.1,1.6l-0.1,0l-0.1,0c-0.3,0-4.3,0.6-8.2,0.4
		c-2-0.1-3.9-0.4-5.3-0.8c-1.4-0.3-2.3-0.7-2.3-0.7c-0.1,0-0.4,0.5-0.7,1.2c-0.3,0.7-0.4,1.3-0.3,1.4c0,0,1,0.4,2.5,0.9
		c1.5,0.5,3.6,0.9,5.7,1.2c4.3,0.5,8.6,0.1,9,0.1l0.1,0l0.1,0c0.4,0,4.7-0.7,8.7-2.2c2-0.7,3.9-1.7,5.3-2.6c1.4-0.9,2.2-1.8,2.2-1.8
		c0.1-0.1-0.3-0.6-0.8-1.2c-0.6-0.5-1.1-0.9-1.1-0.8C73.4,192.4,72.8,193,71.6,193.7z"></path>
	<path class="st0" d="M76.4,182.2c-0.5-0.5-1.1-0.9-1.1-0.8c0,0-0.7,0.7-2.2,1.5c-1.5,0.8-3.6,1.7-5.8,2.4c-4.5,1.4-9.2,2.1-9.6,2.1
		l-0.1,0l-0.1,0c-0.4,0.1-5.1,0.9-9.8,0.9c-2.3,0-4.6-0.2-6.3-0.4c-1.7-0.2-2.8-0.5-2.8-0.5c-0.1,0-0.4,0.5-0.6,1.3
		c-0.2,0.7-0.2,1.4-0.1,1.4c0,0,1.2,0.4,3,0.7c1.8,0.4,4.3,0.7,6.8,0.8c5,0.3,10-0.4,10.4-0.5l0.1,0l0.1,0c0.4-0.1,5.4-0.9,10.1-2.7
		c2.3-0.9,4.6-1.9,6.2-2.9c1.6-1,2.6-2,2.6-2C77.2,183.3,76.9,182.7,76.4,182.2z"></path>
	<path class="st0" d="M746,22.5c0,0,3.4-1.2,6.9-1.9c3.6-0.7,7.2-0.8,7.5-0.8l0.1,0l0.1,0c0.3,0,4-0.3,7.5,0.3
		c1.8,0.3,3.4,0.8,4.6,1.3c1.2,0.5,1.8,1,1.8,1c0.1,0,0.5-0.3,0.9-0.9c0.4-0.5,0.6-1.1,0.5-1.1c0,0-0.8-0.7-2.2-1.3
		c-1.3-0.7-3.2-1.3-5.1-1.7c-3.8-0.8-7.8-0.7-8.1-0.7l-0.1,0l-0.1,0c-0.3,0-4.3,0.3-8,1.3c-3.7,0.9-7.2,2.4-7.2,2.4
		c-0.1,0,0,0.6,0.2,1.2C745.6,22.1,745.9,22.5,746,22.5z"></path>
	<path class="st0" d="M750.3,60c2.3-0.7,4.6-1.2,6.4-1.4c1.8-0.2,3.1-0.3,3.3-0.3l0.1,0l0.1,0c0.2,0,1.5-0.1,3.3-0.1
		c1.8,0,4.2,0.3,6.4,0.9c2.2,0.6,4.3,1.5,5.7,2.5c1.4,0.9,2.1,1.7,2.1,1.7c0.1,0.1,0.6-0.2,1.1-0.6c0.5-0.4,0.7-1,0.7-1
		c0,0-0.9-1-2.5-2.2c-1.6-1.1-3.9-2.3-6.4-3.1c-2.5-0.8-5.1-1.1-7-1.2c-2-0.1-3.4,0-3.6,0l-0.1,0l-0.1,0c-0.2,0-1.6,0.1-3.6,0.5
		c-2,0.3-4.4,0.9-6.8,1.8c-4.8,1.6-9,4.1-9,4.1c-0.1,0,0,0.6,0.3,1.2c0.3,0.6,0.7,1,0.8,0.9C741.5,63.6,745.7,61.4,750.3,60z"></path>
	<path class="st0" d="M778.3,73.4c-1.6-1.1-3.9-2.3-6.4-3.1c-2.5-0.8-5.1-1.1-7-1.2c-2-0.1-3.4,0-3.6,0l-0.1,0l-0.1,0
		c-0.2,0-1.6,0.1-3.6,0.4c-2,0.3-4.4,0.9-6.8,1.8c-4.8,1.6-9,4.1-9,4.1c-0.1,0,0,0.6,0.3,1.2c0.3,0.6,0.7,1,0.8,0.9
		c0,0,4.2-2.2,8.7-3.6c2.3-0.7,4.6-1.2,6.4-1.4c1.8-0.2,3.1-0.3,3.3-0.3l0.1,0l0.1,0c0.2,0,1.5-0.1,3.3-0.1c1.8,0,4.2,0.3,6.4,0.9
		c2.2,0.6,4.3,1.5,5.7,2.5c1.4,0.9,2.1,1.7,2.1,1.7c0.1,0.1,0.6-0.2,1.1-0.6c0.5-0.4,0.7-1,0.7-1C780.7,75.5,779.8,74.5,778.3,73.4z
		"></path>
</g>
</svg>
