<?xml version="1.0" encoding="UTF-8"?>
<svg id="_レイヤー_1" data-name="レイヤー 1" xmlns="http://www.w3.org/2000/svg" viewBox="0 0 362.61 680.14">
  <defs>
    <style>
      .cls-1 {
        fill: #a18582;
      }
    </style>
  </defs>
  <g>
    <path class="cls-1" d="M362.19,245.6c-1.14-.65-2.6-.62-3.87-.47-1.83.23-3.62.78-5.33,1.45-3.5,1.36-7.13,3.24-9.84,6.02-.05-.16.02-.36-.16-.44-1.16-.54-2.52-.07-3.62.42-1.8.81-3.45,1.95-5.02,3.13-2.42,1.81-4.75,3.87-6.85,6.09-2.84-1.74-6.75.17-9.29,1.6-3.98,2.24-7.66,5.25-10.79,8.58-.47.49-.92,1.04-1.36,1.58-.2-.02-.4.03-.58.21-2.75,3.21-7.63,3.77-11.49,4.79-3.48.91-6.94,2.3-8.91,5.38-.2-1.47-1.68-1.88-3.09-1.56-5.49,1.23-10.42,5.67-13.99,9.75-2.73,3.11-4.73,6.7-6.9,10.2-1.18,1.9-2.44,3.65-3.96,5.29-1.01,1.09-1.98,2.22-2.83,3.43-5.45.77-11.26,4.57-16.28,6.34-7.3,2.58-14.55,5.2-21.69,8.21-.34.14-.67.29-1,.44.71-1.12,1.36-2.27,2.14-3.36,1.43-2,2.9-3.96,4.17-6.06,2.08-3.42,3.65-7.1,5.29-10.75.07-.11.14-.2.15-.33.17-.39.35-.78.53-1.17,2.98-1.48,6.21-2.32,9.28-3.58,2.77-1.14,5.18-2.71,7.3-4.82,3.65-3.63,7.89-9.06,7.57-14.52-.02-.34-.33-.67-.66-.71-.81-.09-1.62-.06-2.43-.05,3.37-1.56,5.74-5.36,7.53-8.4,2.16-3.65,4.05-7.58,5.34-11.62.17-.53-.12-.94-.62-1.06.65-.91,1.21-1.88,1.69-2.89.87-1.83,1.77-4.11,1.48-6.18-.05-.32-.17-.62-.3-.91.7-1.01,1.28-2.14,1.79-3.22.76-1.63,1.51-3.36,1.8-5.14.19-1.11.04-2.3-.89-2.87.66-1.23,1.26-2.5,1.66-3.83.46-1.5.96-3.53.07-4.97-.94-1.52-3-1.26-4.33-.46-1.83,1.12-3.13,3.13-4.15,4.96-.73,1.31-1.31,2.79-1.7,4.3-.93-.43-2.09-.21-3.08.39-1.94,1.18-3.37,3.27-4.41,5.25-.64,1.23-1.25,2.7-1.51,4.18-.9-.16-1.75.41-2.39.97-1.87,1.64-3.23,3.92-4.49,6.04-1.42,2.38-3.04,4.95-3.62,7.7-.44-.88-.91-1.73-1.47-2.5-.34-.47-.94-.43-1.32-.05-1.3,1.27-1.94,3.15-2.49,4.83-.66,2.04-1.16,4.13-1.76,6.2-.92,3.18-3.05,6.71-3.1,10.17-.1-.1-.14-.25-.25-.35-.96-.78-2.33-1.26-3.47-.58-1.07.64-1.54,1.93-1.86,3.08-.98,3.64-.71,7.74-.33,11.44.23,2.23.59,4.46,1.14,6.64.3,1.2.72,2.52,1.4,3.6-1.62,3.62-3.19,7.26-5.25,10.65-2.25,3.7-5.38,7.14-7.13,11.16-7.92,3.41-15.77,7.07-23.37,11.19,4.11-4.3,7.57-9.15,9.38-14.94,2.33-7.48,1.13-15.3,1.38-23,.52.08,1.16-.24,1.04-.86-.58-3.03.97-6.3,1.91-9.11.57-1.71.99-3.45,1.47-5.19,1.15-4.2,2.47-8.63,2.4-13.03-.03-1.43-.25-3.21-1.5-4.12-1.24-.9-2.97-.76-4.19.07-3.13,2.13-4.17,7.14-4.76,10.61-.37,2.21-.36,4.18.18,6.38.83,3.42,2.45,6.78,2.75,10.31-1.46,8.28.03,16.8-1.82,25.02-1.98,8.8-8,15.65-14.71,21.34-.11.09-.11.22-.17.33-1.29.76-2.61,1.48-3.88,2.28-11.44,7.17-20.89,15.97-29.01,26.75-3.9,5.18-7.66,10.72-10.51,16.56-3.12,6.39-4.31,13.17-8.55,19.08-3.67,5.12-10.21,9.3-11.3,15.92-.11.7.31,1.13.82,1.34-1.63,3.65-3.04,7.42-4.12,11.35-2.61,9.51-2.78,18.9-2.77,28.68.01,8.9-.37,17.79-.96,26.66-.05-.3-.15-.58-.2-.87-.05,1.66-.07,3.32-.14,4.99-.02.49-.2.91-.43,1.29.08.38.16.76.24,1.13-.23,2.64-.34,5.3-.64,7.94-1.46,12.66-3.78,25.22-7.15,37.5-3.44,12.54-9.02,24.65-11.01,37.55-.07.46.08.8.31,1.06-11.64,31.07-12.83,64.78-9.71,97.66.16,1.63,2.64,1.38,2.53-.26-2.5-35.98-1.92-71.91,13.08-105.43,4.34-9.7,9.93-18.77,16.07-27.45,1.53-1.07,3.09-2.09,4.54-3.03,5.46-3.57,10.91-7.09,16.95-9.64,5-2.11,10.24-3.46,15.5-4.72,0,.27.15.51.5.38,2.46-.93,5.13-.27,7.54.5,2.53.82,5.14,1.87,7.41,3.28,4.94,3.06,8.18,7.97,12.26,11.97,3.22,3.15,7.98,6.12,12.54,3.74,3.09-1.62,1.29-4.8-.67-6.52-4.87-4.26-12.23-4.31-18.03-6.56-.21-.08-.39-.03-.56.02-1.96-1.92-4.05-3.67-6.59-4.88-2.64-1.27-6.31-2.84-9.72-3.08,5.66-1.33,11.3-2.69,16.7-4.86.19.19.44.31.78.2,4.41-1.43,9.03-1.55,13.57-2.35,4.22-.74,8.62-2.19,11.16-5.88,1.37-2,3.6-6.77-.26-7.52-3.08-.59-6.81,1.22-9.45,2.59-2.48,1.29-4.72,3.02-7.01,4.61-2.92,2.02-5.94,4.05-8.74,6.28-.22-.09-.47-.14-.76-.03-13.01,4.88-27.26,6.16-39.81,12.28-5.27,2.58-10.14,5.8-14.97,9.1,2.45-3.31,4.97-6.55,7.55-9.74,5.1-6.32,10.9-12,16.42-17.95,5.45-5.88,10.49-12.1,16.48-17.45.11.01.21.09.31-.01,5.53-5.79,13.78-6.24,20.69-9.49,7.61-3.56,13.53-9.95,18.19-16.8.27-.4.17-1.14-.43-1.18-1.11-.07-2.2.1-3.3.15.6-.79,1.05-1.73,1.42-2.61.57-1.35,1.07-2.73,1.6-4.1.09-.22.01-.4-.06-.57,3.9-3.38,8.31-6.7,10.37-11.58,5.85-1.68,9.93-7.35,12.52-12.54.18-.36.02-.94-.39-1.08-.09-.03-.19-.01-.27-.04.46-.97.89-1.96,1.32-2.94,4.18-5.93,7.25-12.58,9.43-19.49.08-.25.07-.51-.03-.73,3.28-2.44,6.31-5.27,8.92-8.41,2.63-3.17,5.22-6.98,5.66-11.19.04-.39-.19-.83-.62-.88-1.97-.22-4,.34-5.85,1-2.39.85-4.68,2.02-6.84,3.34-2.12,1.31-4.14,2.82-5.85,4.64-.08.09-.14.2-.23.29.02-.2.07-.39.08-.6.02-.6-.76-.81-1.19-.54-3.28,2.08-6.79,3.79-9.9,6.14-1.53,1.16-2.98,2.48-4.11,4.05-.53.74-1,1.53-1.34,2.38-.03.09-.06.19-.1.28-.2-.12-.44-.18-.66-.08-4.02,2.02-7.59,5-10.63,8.3-2.56,2.79-4.93,6.15-5.95,9.87-.08-.17-.1-.36-.19-.52-.16-.32-.56-.63-.95-.43-7.66,4-13.17,11.53-14.68,19.97-.26-.69-.48-1.39-.81-2.06-.27-.54-.92-.69-1.35-.23-3.84,4.07-5.31,10.34-6.91,15.54-2.07,6.77-4.2,13.29-2.78,20.46.05.25.19.42.36.53-1.94,3.29-3.63,6.71-6.32,9.5-.2.2-.23.42-.17.62-3.77,3.21-7.26,6.71-10.63,10.33,0-.27-.19-.53-.48-.33-5.81,3.98-10.6,9.27-15.38,14.38-.22.24.16.55.39.32,4.6-4.57,9.18-9.16,14.31-13.13-.89.95-1.79,1.89-2.67,2.84-6.07,6.52-12.57,12.67-18.31,19.49-4.52,5.37-8.8,11.04-12.85,16.86-2.2,1.88-4.12,4.02-5.05,6.72-.09.26.07.43.23.57-3.01,4.79-5.77,9.72-8.24,14.77,5.2-18.46,11.43-36.4,14.12-55.68,1.59-11.39,2.43-22.88,2.77-34.38.33-11.4-.7-22.97.97-34.28,2.17-14.72,8.19-27.2,16.72-37.67.28-.04.56-.14.79-.43.41-.53.73-1.13,1.08-1.7.63-.73,1.26-1.46,1.91-2.17-2.37,7.56-8.22,13.43-12.39,20.11-4.8,7.69-6.73,16.83-8.13,25.68-.12.76,1.04.96,1.18.2,1.78-9.6,3.7-19.14,9.32-27.34,4.25-6.21,9.74-12.31,11.16-19.88,13.55-14.05,31.82-23.99,50.84-30.35,1.16,2.15,3.95,2.66,6.16,2.91,2.7.3,5.44.06,8.12.42,8.3,1.1,16.55,2.78,24.75.1.37-.12.59-.6.44-.96-.59-1.43-1.54-2.67-2.66-3.76.59.06,1.18.16,1.76.21,2.76.2,5.6.36,8.36.15,6.29-.47,12.22-2.86,18.46-3.61.65-.08.82-.84.39-1.26-.4-.4-.87-.73-1.31-1.09,1.24.05,2.48.18,3.73.23,1.55.07,3.05-.19,4.55-.55,2.69-.65,5.74-1.65,7.61-3.87,1.14-.23,2.3-.32,3.46-.45,1.44-.15,2.81-.48,4.15-1.03,2.59-1.07,4.99-2.48,7.64-3.44,1.43-.52,3.77-1.22,4.01-3.01.12-.9-.43-1.7-1.01-2.35,1-.38,1.97-.83,2.91-1.34,1.83-1,3.97-2.26,5.05-4.12.33-.57.43-1.18.37-1.75.15.38.53.68.99.47,2.51-1.14,5-2.29,7.19-4,2.01-1.57,4.01-3.74,3.9-6.46-.02-.35-.38-.63-.72-.59-2.91.37-5.72,1.35-8.45,2.38-1.69.64-3.36,1.34-5.03,2.02.46-.47.94-.92,1.39-1.4.46-.49-.14-1.21-.72-1.01-4.6,1.58-9.55,1.63-14.09,3.41-3.96,1.55-7.71,3.58-11.22,5.97.13-.22.32-.41.45-.64.58-1.03,1.2-2.18,1.27-3.39.09-1.77-1.35-2.53-2.94-2.49-1.97.06-3.95.96-5.64,1.9-.78.43-1.6.98-2.35,1.59-.06-.52-.25-1-.73-1.38-1.72-1.38-4.92-.33-6.77.16-2.88.77-5.35,2.31-7.52,4.24.34-.57.59-1.18.66-1.84.04-.4-.18-.68-.56-.79-2.31-.66-4.79.13-6.92,1.04-2.62,1.12-5.06,2.63-7.48,4.13-4.73,2.94-9.55,5.48-13.66,9.2.93-1.61,1.86-3.22,2.85-4.77.31-.48.05-1.17-.59-1.11-6.58.62-12.72,4.18-17.75,8.28-3.99,3.25-8.97,6.87-11.03,11.81-19.49,5.1-38.42,15.31-52.71,29.76.58-1.66,1.13-3.33,1.73-4.95,2.31-6.29,5.89-12.07,9.73-17.53,4.34-6.18,9.17-11.77,14.49-16.85-3.45,5.3-6.93,10.58-10.68,15.68-4.06,5.52-9.14,10.96-11.43,17.53-.24.69.75,1.18,1.04.49,2.87-6.9,7.79-12.55,12.1-18.58,3.91-5.47,7.59-11.1,10.97-16.91,3.93-3.56,8.05-6.92,12.6-9.91,10.57-6.95,22.01-12.57,33.57-17.72.31.17.78.13,1-.22.06-.11.14-.21.2-.32.6-.27,1.19-.55,1.79-.81,6.79-2.97,13.68-5.66,20.66-8.18,3.22-1.16,6.45-2.32,9.59-3.7,2.27-1,4.63-2.49,7.05-3.47.07.29.23.54.6.58,12.39,1.27,25.53-.15,37.21-4.6,2.19-.83,4.4-1.62,6.51-2.63,1.51-.72,3.4-1.55,4.19-3.12.2-.4.25-.75.26-1.08,2.18-1.27,4.54-2.18,6.88-3.11,2.3-.92,4.51-2.02,6.8-2.98,4.28-1.8,8.93-3.39,12.47-6.5.28-.25.28-.64.08-.94,2.69-1.13,5.4-2.21,7.98-3.59,2.57-1.38,6.26-3.44,6.64-6.69.05-.42-.2-.72-.59-.84-.36-.11-.73-.16-1.1-.26,5.27-3.29,10.01-7.49,14.09-12.15.33-.38.13-.86-.24-1.1-.67-.43-1.4-.7-2.16-.88,5.35-4.15,6.47-11.18,10.39-16.4.3-.4.17-.89-.25-1.13ZM250.14,282.28c-.08,2.28-1.11,4.49-2.26,6.4-1.41,2.35-3.18,4.52-5.15,6.43-3.97,3.84-9.21,4.84-14.11,6.87.08-.42-.09-.77-.42-.95.52-2.55,1.12-5.08,1.58-7.65,3.28-7.29,12.62-11.69,20.36-11.1ZM255.15,270.83c-1.08,1.89-2.27,3.73-3.68,5.4-1.08,1.28-2.33,2.57-3.93,3.17-.62.23-.61.86-.3,1.27-1.9.16-3.77.61-5.59,1.22.36-.87.51-1.87.57-2.72.16-2.26-.19-4.56-.64-6.77-.07-.33-.16-.68-.23-1.01.75-1.2,1.54-2.37,2.57-3.4,1.49-1.5,3.25-2.76,5.1-3.79,2.77-1.53,5.85-2.56,9-2.93.2.31.61.51,1.04.26.14-.08.21-.24.34-.34.07,0,.15,0,.22-.01-1.2,3.33-2.7,6.58-4.46,9.65ZM261.52,255.42c-.63,1.46-1.56,3.05-2.71,4.2-3.6.3-7.13,1.43-10.29,3.16.53-1.45.95-2.95,1.29-4.44,1.25-1.37,2.47-2.76,3.79-4.06,1.26-1.25,2.67-2.45,4.2-3.41.37.14.85.03.96-.47.01-.05.01-.11.02-.16.08-.04.15-.11.24-.15.75-.34,1.59-.62,2.42-.51.7.09.94.29,1.1.86.42,1.5-.4,3.56-1.02,4.99ZM266.1,241.22c-.31,1.56-.97,3.06-1.65,4.49-.45.94-1,1.87-1.57,2.75-.02-.01-.02-.03-.04-.04-.85-.48-1.94-.47-2.87-.26-.33.08-.6.32-.92.44.23-1.22.48-2.44.6-3.68.05-.49.05-1.05.08-1.58.09-.12.13-.27.22-.39.49-.6,1.04-1.16,1.62-1.66.85-.74,2.08-1.7,3.31-1.91.27.25.69.31,1.03.06.02.01.04,0,.06.02.14.09.16.14.21.31.1.37.03.99-.07,1.47ZM260.32,235.74c.91-1.73,1.95-3.5,3.43-4.82.76-.68,2.42-1.71,3.25-.75.79.91.16,2.88-.16,3.89-.44,1.39-1.09,2.75-1.83,4.02-1.32.14-2.63,1.02-3.58,1.82-.64.53-1.2,1.16-1.72,1.81-.06-.8-.16-1.59-.51-2.28-.08-.16-.21-.22-.3-.35.38-1.16.88-2.3,1.43-3.34ZM251.19,245.47c.93-1.87,2.17-3.8,3.82-5.11.77-.62,2.03-1.31,2.74-.57-.02.18-.11.36-.12.55-.02.34.25.44.5.38.37,1.26.29,2.76.17,3.97-.16,1.56-.47,3.1-.78,4.64-1.35.8-2.61,1.77-3.7,2.82-1.32,1.27-2.43,2.75-3.57,4.19.46-2.07.91-4.32.45-6.32-.11-.49-.38-.93-.74-1.29.26-1.15.76-2.29,1.24-3.26ZM243.02,256.72c1.11-1.83,2.25-3.69,3.65-5.33.49-.58,1.15-1.42,1.93-1.64.17-.05.29.02.38.14.02.37.02.74.12,1.09.01.04.07.02.09.05.21,1.98-.3,4.19-.71,6.06-.49,2.22-1.01,4.59-2.01,6.65-.06.12-.01.22-.01.33-2.11,1.42-4.16,3.21-5.55,5.36-.36-1.42-.82-2.83-1.34-4.21.21-3.11,1.87-5.87,3.47-8.5ZM233.2,271.65c.55-1.92,1-3.86,1.61-5.77.37-1.17.87-2.38,1.56-3.44,1.69,2.8,2.69,6.2,3.42,9.34-.1.29-.29.55-.37.84-.12.45.3.55.65.43.67,3.04,1.29,6.72-.24,9.49-.96.4-1.91.83-2.81,1.34-2.66,1.48-5.05,3.57-6.73,6.11.16-1.62.16-3.36-.17-5,.36-.17.62-.54.47-1.04-1.33-4.29,1.46-8.29,2.61-12.3ZM224.61,296.9c-.52-3.51-.81-7.16-.42-10.7.13-1.19.29-2.6.96-3.63.43-.66.87-.7,1.59-.28,2.76,1.61,2.07,6.61,1.77,9.18-.39,3.27-1.22,6.53-1.52,9.82-.04.05-.09.05-.12.1-.3.6-.55,1.23-.84,1.84-.84-1.97-1.13-4.38-1.42-6.33ZM200.31,293.12c-.81-4.03-2.99-7.85-2.63-12.01.29-3.38,1.21-7.34,3.17-10.15.71-1.02,2.19-2.49,3.53-1.49,1.1.82.85,3.11.76,4.28-.3,3.97-1.42,7.87-2.48,11.7-.59,2.14-1.2,4.24-1.91,6.35-.15.43-.29.88-.44,1.33ZM183.84,539.91c2.74.78,5.55,1.71,7.58,3.81.5.52,1.44,1.56,1.2,2.39-.39,1.31-2.94,1.49-4.02,1.48-3.28-.03-6.05-2.57-8.21-4.77-1.63-1.66-3.18-3.42-4.76-5.14,2.72.8,5.48,1.45,8.22,2.23ZM181.12,516.72c2.5-1.71,4.98-3.48,7.55-5.08,2.46-1.53,5.46-2.85,8.35-3.22.77-.1,2.21-.29,2.57.63.54,1.36-.99,3.65-1.72,4.65-2.46,3.36-6.64,4.5-10.56,5.11-3.91.61-8.22.65-12.03,1.93,1.97-1.31,3.91-2.69,5.85-4.01ZM192.49,468.94c-.13.15-.14.3-.15.45-5.88.59-11.54,2.68-16.78,5.47.35-1.64.67-3.32.94-5.02,2.94-2.09,5.92-3.86,9.35-5.03,3.02-1.04,6.22-1.59,9.43-1.67-.74,2.02-1.45,4.18-2.79,5.81ZM195.64,461.06c-.17.15-.23.34-.26.53-3.46.08-6.91.75-10.16,1.92-3.01,1.09-6.24,2.66-8.52,5.02.16-1.13.29-2.26.39-3.4,2.3-5,7.6-8.29,12.44-10.38,4.99-2.14,10.41-3.59,15.85-4-2.21,4.22-6.23,7.22-9.74,10.3ZM206.16,449.03c-5.68.29-11.46,1.77-16.69,4.04,1.03-2.28,1.67-4.75,2.14-7.26,1.77-.83,3.23-2.23,4.93-3.21,2.35-1.35,5.05-1.85,7.67-2.39,4.3-.88,9.27-3.04,13.74-2.06-2.63,4.92-6.28,9.3-11.78,10.87ZM224.93,404.5c.49-.64,1.03-1.24,1.58-1.77,1.66-1.59,3.6-2.94,5.57-4.12,2.01-1.2,4.13-2.23,6.34-3.01,1.39-.49,2.94-.89,4.45-.91-.72,3.66-3.01,6.95-5.37,9.73-2.64,3.1-5.67,5.89-8.98,8.25-.17.12-.22.28-.27.44-2.01-.09-4.02.38-5.91,1.16.6-3.33,1.96-6.47,2.59-9.78ZM228.12,414.78c-2.41,7.3-5.71,14.35-10.49,20.4-.67.85.61,1.92,1.28,1.07.49-.62.9-1.3,1.36-1.94-.36.82-.71,1.64-1.1,2.45-4.88-1.41-9.96.75-14.7,1.8-1.79.39-3.59.83-5.34,1.4,1.2-5.66,4.61-10.28,8.8-14.14.25-.02.42-.18.5-.44,1.24-1.11,2.52-2.18,3.84-3.17,2.55-1.93,5.23-3.75,8.08-5.21,2.34-1.19,5.07-2.33,7.77-2.22ZM209.99,414.06c.4-.78.88-1.51,1.44-2.19,1.18-1.44,2.64-2.64,4.16-3.71,2.55-1.81,5.32-3.26,8.01-4.85-.15,1.11-.37,2.21-.68,3.29-.04.18-.16.32-.18.51,0,.02.02.01.02.03-.76,2.45-1.7,4.87-2.09,7.39-.03.19.04.33.12.47-.2.09-.41.18-.6.28-3.18,1.59-6.15,3.59-8.96,5.76-.81.62-1.64,1.29-2.45,1.98.36-2.38.9-4.77.51-7.12.24-.6.42-1.24.72-1.82ZM192.56,434.35c.56-4.21,3.26-7.91,6.06-10.96,2.6-2.85,5.7-5.37,9.07-7.28.52,2.71-.55,5.44-.37,8.17-4.76,4.29-9.01,9.72-9.4,16.11-.29.12-.6.18-.89.31-1.89.89-3.44,2.26-5.13,3.44.07-.47.2-.95.26-1.41.33-2.47.52-5.24.07-7.82.17-.1.3-.29.33-.55ZM190.15,433.09c1.16,3.02.9,6.61.44,9.71-.52,3.58-1.52,7.03-2.87,10.38-.1.24-.08.46,0,.64-3.93,1.88-8.05,4.5-10.47,8.2.05-2.79-.19-5.55-.85-8.2,1.24-8.56,6.12-16.49,13.74-20.73ZM165.46,473.74c.59-2.9,1.64-5.71,2.5-8.54,1.41-4.63,2.8-10.17,5.87-14.12,3.27,8.01.96,16.28.19,24.59-.53.3-1.1.55-1.62.87-3.05,1.81-5.26,4.36-7.17,7.26-.35-3.39-.47-6.68.23-10.07ZM172.33,478.38c.5-.33,1.08-.6,1.6-.92.07.6.9.79,1.05.11.06-.26.12-.54.18-.82,6.25-3.61,13.48-6.17,20.65-6.1-4.74,6.71-10.7,12.86-18.42,15.98-5.97,2.41-12.35,3.62-17.18,7.92,4.27-5.28,6.21-12.28,12.12-16.16ZM226.89,372.73c-7.39,2.03-15,.86-22.45-.33-2.29-.37-4.6-.26-6.91-.39-1.45-.08-3.4-.2-4.95-.85,6.01-1.69,12.25-2.29,17.14-6.53-.35.24-.32.82.19.77,3.08-.3,6.85.19,10.15,1.54-.1.32-.04.69.35.89.93.46,1.93.72,2.95.95,1.5,1.06,2.72,2.37,3.54,3.96ZM286.22,352.47c-.85.41-1.75.7-2.63,1.02-2.38.85-4.53,2.17-6.86,3.13-1.41.58-2.82.86-4.33,1-1.16.1-2.3.24-3.43.49-2.56-2.2-5.56-3.27-8.74-3.91.86-1.17,1.76-2.3,2.73-3.38,3.05-1.2,6.14-2.24,9.3-3.13,1.05-.3,2.12-.57,3.18-.86-.03.13-.17.25-.06.33.8.61,2.1.51,3.06.49,1.18-.01,2.36-.1,3.54,0,1.04.09,1.99.42,2.89.91-.68.19-.54,1.33.29,1.31.43,0,.83-.19,1.25-.3.58.49,1.16,1.12,1.11,1.72-.05.57-.84.94-1.29,1.16ZM294.73,342.9c-.32.66-.93,1.18-1.48,1.64-.82.68-1.71,1.26-2.63,1.79-1.03.6-2.11,1.12-3.21,1.55-.24.09-.51.11-.76.2-.72-.55-1.5-1.03-2.38-1.3-1.43-.45-2.93-.45-4.42-.38-.72.03-1.45.07-2.17.09-.28,0-.58-.02-.87-.03,1.68-.47,3.33-.99,4.93-1.69,1.58-.69,3.05-1.54,4.48-2.46.73-.2,1.44-.47,2.17-.62,1.64-.36,3.43-.7,5.11-.49.27.03.61.1.81.17.24.09.44.22.51.3.14.17.16.22.15.45,0,.13-.12.55-.23.78ZM306.83,332.86c-.35,2.03-2.17,3.69-3.75,4.82-1.92,1.38-4.15,2.64-6.44,3.27-.36.1-.46.39-.45.69-.16-.63-.6-1.17-1.36-1.44-1.68-.61-3.71-.26-5.42.07-.12.02-.25.06-.37.09,1.13-.88,2.22-1.82,3.27-2.8,4.83-1.56,9.48-3.89,14.52-4.69ZM281.54,337.67c3.65-1.32,7.55-1.6,11.31-2.48-.65.64-1.3,1.28-1.98,1.88-.07.03-.15.06-.22.09-.07.03-.03.11-.07.15-1.82,1.61-3.75,3.09-5.83,4.34-.36.15-.73.25-1.08.42-.09.04-.04.14-.08.21-1.03.56-2.07,1.11-3.17,1.54-2.88,1.14-5.95,1.77-8.92,2.61-2.25.63-4.43,1.45-6.63,2.24.61-.67,1.23-1.33,1.82-2.03.64-.75,1.14-1.61,1.71-2.41.04-.01.06.04.1.02,4.04-2.7,8.48-4.93,13.04-6.59ZM259.97,341.42c.74-.69,1.58-1.29,2.4-1.79,1.57-.95,3.37-1.77,5.21-2.02.99-.14,2.3-.19,2.27.99-.03,1.07-.73,2.16-1.24,3.05-.85,1.47-1.89,2.82-2.99,4.11-1.13,1.32-2.33,2.58-3.5,3.85-.1.04-.2.06-.3.1-.33.14-.41.43-.39.71-1,1.11-1.97,2.25-2.84,3.47-1.83-.3-3.67-.54-5.5-.81-.65-.09-.82.88-.17,1.01,1.85.35,3.73.65,5.58,1,.2.22.48.28.74.16,3.09.63,6.03,1.65,8.52,3.73.01.08,0,.14.04.22-1.8,1.55-4.34,2.34-6.57,2.82-1.47.32-2.92.48-4.43.35-1.69-.15-3.36-.41-5.06-.19-1.81-1.14-3.78-2.03-5.8-2.69,5.54-3.56,8.84-9.16,12.22-14.76.47-.79,1.35-2.05,1.81-3.31ZM251.45,340.15c1.29-.43,2.63-.76,3.97-.97.88-.14,1.95-.32,2.82-.03.95.32.75,1.33.25,2.41-.25.37-.5.75-.66,1.17,0,.01.01.01,0,.02-.5.8-1,1.53-1.2,1.85-1.59,2.62-3.12,5.28-4.97,7.73-2.04,2.7-4.51,5.01-7.49,6.63-.13-.03-.26-.09-.39-.12-3.61-.89-8.73-1.65-12.11.38-.3.18-.1.71.24.65,3.98-.73,7.57-.81,11.53.26.1.39.43.69.89.45.07-.03.12-.09.18-.13,3.03.93,5.98,2.32,8.41,4.36-5.31.83-10.43,2.61-15.79,3.19-2.76.3-5.56.17-8.32,0-1.75-.1-3.55-.35-5.28-.78-.75-.47-1.55-.88-2.37-1.24,6.04-1.89,10.65-6.56,14.44-11.45,2.01-2.6,3.62-5.58,5.97-7.88.42-.41.89-.84,1.37-1.29.15.15.37.21.55,0,2.13-2.41,4.89-4.19,7.93-5.21ZM231.09,346.72c2.26-1.39,4.51-2.8,6.92-3.92,1.91-.88,4.12-1.72,6.26-1.43-.67,1.95-2.94,3.55-4.27,4.9-2.12,2.15-3.62,4.95-5.49,7.33-3.98,5.09-8.48,9.47-14.82,11.34-.22.07-.34.2-.41.34-3.13-1.01-6.48-1.33-9.35-.8.07-.06.14-.09.21-.15,2.39-2.21,4.17-4.88,5.82-7.64.04-.02.07.03.1,0,4.44-4.24,9.85-6.78,15.01-9.97ZM191.05,370.02c.07-.17.21-.31.29-.48.07-.07.12-.13.13-.22,1.13-2.34,2.9-4.32,4.78-6.08,2.04-1.92,4.25-3.68,6.43-5.43,4.47-3.57,9.8-6.65,15.53-7.58-2.66,4.36-4.97,9.05-8.66,12.63-4.85,4.7-11.41,5.12-17.58,6.85-.43.12-.52.47-.45.8-.18-.14-.34-.32-.49-.5,0,0,0,0,.01,0ZM327.95,263c.07-.09.07-.21.1-.32,1.98-1.96,4.16-3.76,6.36-5.43,1.47-1.11,3-2.2,4.64-3.05.69-.36,1.76-.93,2.68-.93-1.8,4.59-4.29,8.86-6.81,13.08-1.68,2.8-3.37,7.26-6.81,8.22-.43.12-.5.52-.37.86-3.07.22-6.1.77-9.18.97.41-.49.9-.9,1.28-1.41,2.83-3.92,5.06-8.23,8.11-12ZM304.7,276.94c.13-.02.28.03.36-.12.89-1.72,2.4-3.13,3.75-4.48,1.92-1.9,4.02-3.63,6.21-5.21,2.09-1.5,4.32-2.91,6.73-3.84,1.3-.5,3.06-1.01,4.46-.48-2.75,3.57-4.92,7.53-7.56,11.18-2.58,3.57-6.04,6.29-9.08,9.43-4.08-.18-8.1.6-11.8,3.06.02-.03.04-.06.06-.09,2.12-3.28,4.34-6.48,6.86-9.45ZM284.78,285.82c.35.2.83.18,1.02-.3,1.62-3.99,6.37-5.04,10.12-5.98,2.09-.52,4.33-1.06,6.37-1.93-1.87,2.41-3.63,4.91-5.26,7.49-2.66,4.19-5.42,8.18-8.63,11.96-.03.03.02.06,0,.1-4.49-.71-9.14-.55-13.02,1.94.6-.89,1.22-1.76,1.77-2.71,1.45-2.51,2.91-4.65,4.77-6.85.86-1.02,2.19-2.33,2.85-3.72ZM256.64,311.18c-.09-.24-.28-.45-.61-.45-.07,0-.15.04-.22.04,1.56-1.8,3.45-3.34,4.85-5.27,2.02-2.77,3.62-5.82,5.53-8.66,3.3-4.89,7.73-9.18,13.03-11.81.79-.39,4.92-2.46,4.39-.37-.2.8-.96,1.6-1.46,2.24-.73.93-1.5,1.82-2.27,2.72-3.44,4.02-5.16,9.2-9.14,12.79-2.07,1.87-4.35,3.53-6.68,5.05-2.23,1.45-4.63,2.94-7.24,3.58-.1.03-.12.1-.19.15ZM298.59,303.72c-1.89,1.43-4.47,2.23-6.66,3.05-5.65,2.13-11.16,3.8-17.17,4.62-5.6.77-11.52,1.48-17.24.98,2.37-.62,4.58-1.92,6.63-3.2,2.52-1.57,4.95-3.33,7.18-5.29,1.51-1.33,2.73-2.86,3.85-4.46-.12.35.1.8.5.6,6.49-3.24,12.99-1.81,19.61.19.94.28,1.91.48,2.85.77.25.08,1.15.34,1.41.62-.04.22.05.43.21.61-.03.66-.76,1.2-1.18,1.52ZM313.55,295.03c-2.24.95-4.42,2.01-6.69,2.89-2.14.84-4.26,1.71-6.27,2.83-1.49-1.51-5.29-1.99-6.76-2.42-1.37-.39-2.8-.74-4.26-1.02,3.1-3,5.51-6.69,7.84-10.3.03.3.25.56.59.35,3.56-2.2,7.32-2.9,11.13-2.75.25.4.82.63,1.25.18.02-.02.04-.04.06-.06,4.85.44,9.72,2.15,14.26,4.07.05.28.21.49.47.57-3.49,2.52-7.69,3.98-11.61,5.64ZM340.35,278.74c-.84,2.6-4.33,4.35-6.5,5.43-2.66,1.33-5.45,2.36-8.18,3.54-4.43-1.84-9.24-3.56-14.03-4.14,2-1.97,3.98-3.95,5.87-6.01,3.71.5,7.49-.84,11.18-.97,2.11-.07,4.19.38,6.24.79,1.05.21,2.08.52,3.12.78.17.13.36.17.59.15.57.15,1.14.26,1.7.42ZM352.66,264.9c-4.18,4.59-8.94,8.79-14.33,11.89-1.12-.26-2.23-.58-3.37-.79-1.68-.32-3.38-.6-5.09-.66,2.64-1.28,4.38-4.95,5.67-7.18.05-.09.11-.19.16-.28,2.9-.84,5.71-1.97,8.63-2.76,2.52-.68,5.78-1.34,8.32-.21ZM350.79,262.15c-.31.22-.33.54-.24.82-1.96-.14-4,.21-5.82.67-2.81.71-5.49,1.8-8.2,2.82,1.91-3.25,3.69-6.56,5.24-9.98.25.05.5-.02.53-.32.09-1.06.96-1.99,1.69-2.69,1.14-1.1,2.5-2.02,3.85-2.84,2.98-1.81,6.38-3.35,9.83-3.95.96-.17,2.05-.21,3.04.04-3.42,5.08-4.74,11.73-9.92,15.43Z"/>
    <path class="cls-1" d="M255.37,312.2c.26-.04.52-.15.79-.16.12,0,.17-.08.24-.12.06.16.18.29.33.4-.45-.05-.91-.04-1.36-.11Z"/>
    <path class="cls-1" d="M117.77,452.94c-1.29,7.88-1.62,15.89-1.62,23.87,0,.66,1.01.55,1.02-.1.15-7.89.45-15.79,1.31-23.64.05-.45-.63-.58-.71-.12Z"/>
    <path class="cls-1" d="M116.97,502.63c.5-3.51,1.26-7.01,1.31-10.58.05-3.02-.51-6.54,1.19-9.22.18-.28-.31-.6-.5-.32-1.48,2.09-1.57,4.73-1.62,7.21-.07,3.89-.63,7.62-1.25,11.45-1.34,8.3-2.49,16.5-4.49,24.68-.17.68.89.84,1.06.18,2.05-7.71,3.17-15.52,4.29-23.4Z"/>
    <path class="cls-1" d="M110.05,534.02c-.74,3.4-1.11,6.87-2.16,10.2-.19.6.69,1.04.9.42,1.18-3.37,1.6-6.96,2.03-10.49.06-.5-.67-.63-.77-.13Z"/>
    <path class="cls-1" d="M113.95,538.77c-.21.26.17.57.4.33,5.09-5.31,10.06-10.8,14.67-16.54.36-.45-.32-1.02-.68-.57-4.62,5.75-9.78,11.03-14.38,16.78Z"/>
  </g>
  <g>
    <path class="cls-1" d="M204.07,106.81c-.03.12.09.14.13.22-.07,0-.14,0-.21,0,0,0,.01,0,.02-.02.03-.07.04-.14.06-.21Z"/>
    <path class="cls-1" d="M226.87,41.93c.26-.33.51-.64.79-.95,0,.16.04.2.18.27-.33.22-.65.45-.97.68Z"/>
    <path class="cls-1" d="M238.44,132.57c-.06.09-.13.18-.19.27.16-.1.13-.28.11-.44.02.05.05.11.07.16Z"/>
    <path class="cls-1" d="M240.34,132.49c0-.12,0-.25-.01-.37.05-.09.05-.06.08-.09-.13.11-.16.29-.07.46Z"/>
    <path class="cls-1" d="M247.81,151.99c.28-.09.59-.09.86-.23-.14.13-.27.26-.4.4,0,0-.01.01-.02.02-.13-.08-.28-.14-.44-.19Z"/>
    <path class="cls-1" d="M241.64,149.08s-.07-.03-.1-.04c.05-.28.11-.56.15-.84-.07.29,0,.59-.04.89Z"/>
    <path class="cls-1" d="M156.28,85.9c.1,1.33.64,2.53,1.42,3.59,4.07,5.54,9.69,9.73,16.31,11.6-.21.58-.34,1.2-.39,1.83-.17,2.17.12,4.44.33,6.61.21,2.17.63,4.31,1.25,6.4.42,3.22-.77,6.61-1.04,9.83-.34,4.06-.53,8.18-.46,12.26.13,7.76,1.64,15.41,1.93,23.16.29,7.65-.47,15.3-1.11,22.92-.69,8.17-.32,16.21-.74,24.36,0,.17.11.24.14.37-3.94,11.68-7.78,23.41-11.63,35.14-1.1,2.01-1.93,4.13-2.23,6.4-.01.09.06.14.06.22-4.55,13.81-34.55,100.84-39.47,114.51.46.89.92,1.78,1.23,2.72,1.79-4.76,3.57-9.52,5.21-14.34,3.2-9.4,31.62-92.12,34.69-101.59.44-.08.84-.32.92-.92,1.15-8.64,10.24-16.35,16.26-22.1,7.64-7.29,16.34-13.46,23.54-21.2,1.21-1.3,2.34-2.71,3.48-4.09.1-.06.22-.05.31-.16,5.18-6.73,13.89-9.18,21.77-11.01,5.77-1.34,11.67-2.32,16.77-5.48,1.32-.81,3.01-1.88,3.61-3.4.63-1.58-.51-2.71-1.95-3.17-2.84-.91-6.23-.56-9.11-.1-3.6.58-7.14,1.65-10.46,3.15-2.93,1.32-5.4,3.02-7.88,5.05-1.32,1.08-2.67,2.25-4.12,3.26,2.19-3.1,4.37-6.2,6.6-9.19,3.22-4.31,5.86-9.04,9.15-13.28,1.3-1.68,2.63-3.22,3.71-4.91.23.07.49.04.65-.23,1.8-2.98,5.51-3.83,8.3-5.58,1.91-1.19,5.2-2.16,5.46-4.77,2.71-1.2,5.62-1.8,8.47-2.55,2.46-.66,4.96-1.43,7.13-2.82,1.77-1.14,3.99-3.03,4.12-5.31.05-.85-.36-1.99-1.32-2.09-.43-.04-.88,0-1.32,0-.58,0-.79.01-1.24-.4-.28-.26-.65-.39-.99-.58.37-2.78-1.55-5.09-3.4-7.02-2.23-2.33-4.93-4.5-8.33-3.92-.95.16-1.85.27-2.76-.15-.59-.27-1.11-.62-1.72-.84-1.1-.38-2.32-.32-3.44-.06-2.21.52-3.54,2.2-2.62,4.32-.04,0-.07-.03-.11-.01-.09-.1-.11-.23-.21-.32,0,0,0,0,0,0,0,0,0,0-.01-.01-.18-.15-.42-.11-.59.01.08-.07.08,0-.04-.04-.08-.03-.25.02-.34.03-.26.02-.51.03-.77.04-.25,0-.5.01-.76,0-.1,0-.46-.06-.34,0,.02.04.04.08.05.12-.11-.11-.22-.26-.4-.18-.04.02-.06.05-.1.07,0,0,0-.02-.01-.02-.02.02-.03.05-.05.07-1.21.6-2,1.49-1.94,2.92.07,1.51.57,3.04.81,4.53.5,3.22.95,6.69,2.79,9.47.04.06.1.06.15.1-.48.26-.9.68-1.23,1.16-1.08,1.54-1.59,3.48-2.11,5.26-.58,2.01-1.2,3.98-2.36,5.75-.21.32-.07.64.16.87-2.14,3.98-6.01,7.49-8.55,11.09-3.45,4.88-7.19,9.48-10.82,14.21-4.02,5.22-7.74,10.51-11.87,15.51,1.44-3.92,2.41-8.04,3.15-12.13.59-3.25,1.07-6.52,1.54-9.78.36-2.47,1.1-5.13,1.14-7.64,1.04-1.76,2.15-3.47,3.08-5.29,1.03-2.03,2.31-4.5,2.19-6.85-.05-.85-.39-1.63-1.05-2.17,2.39-1.95,4.32-4.58,5.33-7.45,1.01-2.87,1.04-6.16-.6-8.8-.91-1.48-2.51-2.73-4.18-1.54-1.56,1.11-2.41,3.22-3.11,4.92-.39.95-.74,1.94-1.1,2.92.14-1.13.02-2.31.22-3.43.1-.6-.81-.81-.92-.21-.11.58-.09,1.18-.09,1.77-.09-.84-.21-1.67-.49-2.47-.2-.56-1.09-.28-.88.28.04.1.04.22.07.33-.26-.27-.76-.26-.75.22.02,1.06.26,2.11.3,3.16,0,0-.01-.01-.02-.01-.03,0-.01.05-.03.06-.6-.49-1.18-1.01-1.82-1.44-.65-.43-1.39-.86-2.15-1.11.16-.32.29-.65.57-.87.28-.22.6-.31.94-.44,1.07-.4,1.85-1.02,2.42-2.02.51-.88,1.03-1.89,2.2-1.89,1.03,0,1.62.97,1.85,1.86.12.46.9.33.83-.14-.16-1.07-.7-2.11-1.75-2.54-.87-.36-1.85-.19-2.63.33-.91.6-1.19,1.62-1.88,2.41-.55.63-1.3.78-2.03,1.1-.89.38-1.43,1.09-1.82,1.96-.1.22-.05.41.05.57-.01.04-.06.05-.06.09-.24,1.37-1.27,2.21-2.14,3.21-.92,1.06-1.52,2.28-1.41,3.72.26,3.39,3,6.35,5.49,8.45-.17.51-.28,1.05-.33,1.6-.18,1.97.24,4.02.94,5.86.34.88.79,1.66,1.27,2.47.29.49.86,1.25.72,1.85-.13.57.31.97.79,1.07-.48,1.88-.66,3.93-.97,5.72-.52,3.05-.97,6.11-1.53,9.16-1.15,6.27-2.72,12.48-5.77,18.12-1,1.04-1.95,2.11-3.02,3.1-7.72,7.08-15.97,13.45-23.23,21.02-1.89,1.97-3.97,4.08-5.86,6.34,3.17-9.71,6.41-19.39,9.8-29.01.3-.23.52-.56.54-1.03,0-.15,0-.31.01-.46,2.36-6.65,4.76-13.28,7.34-19.83.93-2.38,1.74-4.77,2.62-7.15.14-.12.3-.22.37-.43.2-.62.31-1.27.48-1.9,3.33-9.15,6.46-18.33,9.61-27.58,3.41-10.01,8.59-20.26,7.65-31.11-.07-.87-1.38-.82-1.36.06.39,13.45-7.42,27.69-11.4,40.33-.67,2.13-1.45,4.22-2.19,6.33.55-4.27.98-8.56,1.73-12.76,1.89-10.51,6.41-20.48,7.35-31.18.5-.65.94-1.34,1.41-2.04.63-.95,1.45-1.73,2.26-2.52.74-.72,1.49-1.43,2.14-2.23.58-.71,1.05-1.5,1.57-2.25.82-1.19,1.95-2.58,1.93-4.1,0-.37-.21-.61-.32-.92,3.29-1.7,5.93-4.81,8.06-7.74,2.27-3.13,4.36-6.73,5.06-10.59.53-2.98-.03-7.86-4-7.91-1.05-.01-2.13.28-3.18.68,2.4-9.79,5.55-19.49,6.95-29.49.23-.18.47-.34.68-.53,1-.87,1.92-1.85,2.74-2.89,1.37-1.76,2.93-4.14,2.78-6.48.9-.64,1.79-1.31,2.79-1.8,1.88-.93,3.77-1.37,5.43-2.72.77-.63,1.49-1.32,2.33-1.87.7-.46,1.45-.81,2.16-1.24,1.15-.7,2.1-1.6,2.89-2.69,1.14-1.55,2.5-3.72,2.23-5.74-.06-.43-.26-.75-.47-1.06,1.34-.6,1.01-2.54.35-3.55-.43-.65-1.05-1.21-1.83-1.39-.67-.16-1.27.07-1.82.4-.5-.56-.92-1.18-1.39-1.78-.59-.75-1.34-1.27-2.28-1.49-1.1-.26-3.15-.15-4.03.82-.87-.66-1.91-.9-3.13-.73-.71-1.79-1.26-3.7-2.93-4.83-1.89-1.28-4.63-2.16-6.91-2.12-1.3.02-2.38.41-3.51,1.03-1.04.57-1.98,1.16-3.2,1.09-.78-.04-1.4-.03-2.06.46-.81.6-1.34,1.45-1.7,2.38-.66,1.68-.9,3.45-1.17,5.22-.04.02-.09-.04-.13-.01-1.21.89-1.59,2.29-1.48,3.74.27,3.53,2.36,7.02,4.17,9.97,1.49,2.42,3.18,4.68,4.78,7.03-.19.22-.4.43-.54.68-.7,1.22-.61,2.65-.12,3.93.52,1.35,1.34,2.54,2.1,3.76.32.52.66,1.05.89,1.63.13.32.17.66.2.97-.09.06-.16.15-.24.2-.41.27-.12.92.36.77.04-.01.08-.04.12-.06.03.05.09.05.14.09-2.56,9.84-5.56,19.57-7.87,29.47-.16.07-.32.15-.48.22-.48.21-.76.6-1.14.9-1.41-1.43-2.34-3.31-4.5-3.72-1.9-.36-3.63.77-5.51.79-.71,0-1.42-.07-2.11.1-.84.2-1.55.76-2.14,1.37-.6.62-1.12,1.35-1.28,2.22-.16.91-.04,1.86-.12,2.78-.04.37.16.58.39.68-.34.11-.68.21-1,.36-.42.2-.8.52-1.2.81-.15-.33-.3-.59-.58-.83-.27-.23-.58-.24-.9-.09-.9.44-1.87.45-2.84.36,3.7-5.43,6.5-11.35,1.34-16.65-.23-.24-.7-.23-.91.03-.15.18-.24.41-.38.59-1.03-1.91-3.4-3.6-5.26-2.63-.87.46-1.57.9-2.63.69-1.12-.22-2.05-1-3.19-1.2-2.15-.37-4.32.76-6.43.96-2.85.27-6.33-.51-8.06,2.42-.37.62-.59,1.27-.66,1.98-.09.94.29,2.46-.78,2.89-.57.23-1.18.15-1.73.48-.63.38-.92.98-1.14,1.65-.06.18-.01.31.04.44-.22.1-.46.1-.64.33-.79.95-.91,2.59-.81,3.76ZM249.57,133.09c.52.65,1.11,1.24,1.68,1.84-.97-.31-1.94-.64-2.92-.92-1.68-.48-3.66-1-5.31-.15-1.31.68-1.98,2.07-2.33,3.44-.45,1.78-.53,3.7-.45,5.53.06,1.41.12,2.81.08,4.21.06-1.48-.19-2.97-.69-4.35-.17-.46-.9-.23-.73.23.3.81.52,1.64.69,2.49.07.35.02.72.06,1.08-.87-2.02-1.41-4.21-1.81-6.33-.25-1.34-.52-2.66-.84-3.99-.14-.6-.31-1.27-.18-1.89.15-.69.69-1.05,1.28-1.35.47.09,1.05.03,1.46,0,.26-.02.66-.04,1.03-.13.34.3.5.7.56,1.13-.02.08-.03.16-.05.23-.05.13,0,.29.07.41.04.08.13.11.21.15.18.16.48.18.53-.1,0-.02,0-.04,0-.06.08-.07.22-.05.25-.16.09-.34.11-.71.06-1.05-.02-.14-.06-.27-.1-.41.47-.06.92-.54.62-1.09-1.14-2.09,1.93-2.73,3.44-2.6.76.07,1.4.42,2.06.74.04,1.15.66,2.2,1.37,3.07ZM262.79,139.51c-.71-.27-1.47-.44-2.2-.57-.82-.14-1.65-.16-2.48-.1.06-.56.17-1.14-.01-1.62-.02-.05-.06-.08-.09-.12.33-.6.59-1.23.75-1.9.05-.2-.09-.41-.29-.46-.2-.05-.41.08-.46.29-.1.44-.23.87-.38,1.29-.02.06-.07.12-.09.19-.36-.26-.82-.38-1.29-.45.37-.55.64-1.17.9-1.79.08-.19.04-.39-.15-.5-.16-.1-.42-.03-.5.15-.3.64-.55,1.31-.91,1.92-.03.05.04.08.04.13-.1-.01-.21-.02-.31-.04-.15-.02-.29-.08-.44-.1.06-.08.11-.17.19-.26.13-.16.26-.31.39-.47.28-.33.54-.67.77-1.03.12-.18.01-.43-.16-.53-.19-.11-.42-.01-.53.16-.21.32-.45.61-.69.95-.2.28-.4.56-.58.86,0-.01,0-.03.01-.04.03-.06.05-.12.08-.19.06-.13.12-.26.19-.39.07-.13.15-.26.24-.38.05-.07-.05.06.01-.02.02-.03.05-.07.08-.1.04-.06.09-.11.14-.17.15-.17.14-.41-.02-.57-.15-.15-.43-.14-.57.02-.46.51-.8,1.12-.93,1.8,0,.02.03.03.03.05-.11-.03-.22-.05-.33-.08-.02-.11-.07-.21-.13-.3.07-.14.14-.27.21-.41.22-.44.41-.91.66-1.34.11-.19.02-.43-.16-.54-.19-.11-.44-.02-.54.16-.24.42-.42.86-.61,1.3-.03.07-.07.14-.1.21-.63-.69-1.3-1.35-1.94-2.04-.55-.59-1.04-1.32-1.31-2.08.95.25,1.91.18,2.89,0,3-.55,5.35,1.65,7.32,3.63,1.58,1.59,3.02,3.28,3.31,5.48ZM249.35,152.08c.36-.32.73-.62,1.08-.95.15-.14.12-.39-.02-.52-.07-.07-.15,0-.24,0,1.59-1.48,2.86-3.54,3.86-5.05.41-.62.82-1.24,1.31-1.8.56-.65,1.21-1.23,1.73-1.93.38-.52.7-1.23.93-1.96,1.05-.01,2.09.05,3.13.31.65.16,1.4.38,2.01.73.04.01.04.05.09.04.08.05.19.07.26.13.46.35.74.85,1.34,1,.37.09.79.07,1.17.07.31,0,.8-.1,1.09.01.4.15-.15-.14-.02.02.05.06.12.16.13.23.05.26.1.43.07.7-.06.48-.3.93-.55,1.33-1.15,1.84-3.21,3.08-5.16,3.92-3.24,1.39-6.74,1.96-10.1,2.96.01-.1.06-.21,0-.29-.13-.13-.34-.1-.46.01-.16.15-.27.23-.46.38-.17.13-.34.25-.52.36-.07.04-.14.09-.21.13-.14.05-.28.1-.43.15ZM246.27,151.28c-.2.04-.18.21-.23.36-.19-.06-.4-.09-.58-.18.53-.55,1.1-1.06,1.51-1.71.09-.15.02-.35-.13-.43-.16-.09-.34-.02-.43.13-.41.64-.95,1.18-1.46,1.75-.33-.22-.65-.46-.96-.7.03-.02.08,0,.1-.04.51-.99.77-2.04,1.21-3.03.09-.2.04-.44-.16-.55-.18-.1-.46-.04-.55.16-.24.55-.43,1.11-.63,1.67-.1.28-.21.57-.31.85-.04.12-.08.23-.12.35-.02.05-.04.1-.05.15-.02.07.02-.04,0,0,0,.02-.01.04-.02.06-.36-.27-.73-.51-1.12-.74.15-1.12.51-2.22.96-3.23.21-.47-.49-.85-.71-.38-.35.76-.7,1.56-.92,2.39.37-3.37-.43-6.87.33-10.24.26-1.14.73-2.45,1.92-2.89,1.64-.62,3.82.31,5.38.82,1.91.62,3.82,1.3,5.82,1.56.32.04.8.05,1.16.16-.1.59-.17,1.18-.26,1.77-.13.13-.16.26-.07.41-.14.72-.4,1.41-.87,2.01-.24.27-.43.54-.68.82-.91,1-1.62,2.17-2.36,3.3-1.44,2.19-3.05,4.84-5.81,5.42ZM235.79,161.36c.14-.4.3-.78.4-1.21.55-1.16,1.01-2.36,1.36-3.63.51-1.8.92-3.87,2.04-5.41.17-.24.36-.32.55-.44.28.23.72.21.98-.11.11.03.19,0,.31.05.05.02.08.06.13.09,0,0,0,0,0,0,.01.04.06.02.08.05.82.47,1.56,1.09,2.34,1.62.02.01.04.02.06.03-.02.2.18.4.37.22,0,0,0,0,.01-.01.76.45,1.49.74,2.44.73.17,0,.34.01.51.02-.09.57-.1.93-.53,1.37-.88.88-2.16,1.34-3.24,1.92-1.14.61-2.2,1.33-3.36,1.91-1.59.8-3.18,1.63-4.47,2.79ZM216.04,193.65c1.06-.61,2.14-1.21,3.27-1.71,2.11-.94,4.31-1.65,6.5-2.4,2.17-.75,4.34-1.48,6.56-2.08,1.02-.28,2.05-.53,3.1-.68.76-.11,1.53-.03,2.28-.15.27-.04.37-.38.12-.53-1.29-.78-3.68-.03-5.04.27-2.39.53-4.73,1.27-7.06,2.04-2.66.88-5.31,1.82-7.85,2.99.35-.28.71-.56,1.04-.82,2.71-2.12,5.31-4.05,8.5-5.41,3.27-1.4,6.73-2.48,10.25-3.01,1.71-.26,3.45-.38,5.18-.31.89.03,2.53-.02,3.32.53.47.32.45.16.2.66-.28.58-1.08,1.09-1.59,1.45-1.64,1.17-3.48,2.09-5.35,2.83-6.32,2.5-13.33,3.03-19.82,5.02-1.19.37-2.41.82-3.62,1.32ZM209.52,153.77c.56.75,1.13,1.61,1.3,2.56.14.8-.27,1.4-.86,1.9-.13.11-.09.25-.04.38-.33.08-.65.17-.96.29-.09-.15-.17-.3-.27-.45-.13-.2-.25-.4-.37-.61-.06-.1-.11-.21-.17-.31-.01-.03-.02-.05-.04-.08,0-.02-.05-.1,0,0-.03-.05-.05-.11-.07-.16-.1-.24-.32-.37-.57-.3-.22.06-.39.35-.3.58.19.47.45.91.72,1.33.07.11.15.22.22.33-.61.26-1.22.56-1.87.74-.5.14-1.02.21-1.51.39-.23.08-.38.22-.56.34-1.15-.98-2.28-2.02-3.17-3.24-.88-1.21-1.76-2.71-1.76-4.25,0-1.23.85-2.1,1.63-2.95.66-.72,1.17-1.52,1.51-2.41.12.06.23.07.39.16.49.25.96.54,1.41.85,1.98,1.33,3.91,3.02,5.34,4.94ZM211.07,158.49c-.06,0-.13,0-.19,0,.76-.47,1.26-1.2,1.21-2.16-.01-.26-.13-.49-.2-.74.04-.05.12-.01.14-.09.34-1.36.67-2.73,1.28-4,.24-.5-.51-.91-.76-.41-.52,1.05-.8,2.18-1.06,3.32-.23-.44-.47-.87-.74-1.26-.45-.65-1.03-1.19-1.57-1.77.97-1.23,1.52-2.88,2.15-4.28.67-1.47,1.35-3.3,2.59-4.39.35-.31.71-.47,1.01-.37.81.29,1.36,1.41,1.67,2.12,2.2,5.05-1.55,11.04-5.54,14.03ZM207.64,172.46c-.08.05-.18.01-.23.1-.34-.94-.98-1.85-1.43-2.66-.94-1.7-1.46-3.89-1.37-5.83.03-.55.03-1.44.41-1.88.15-.17.54-.25.84-.33,1.35-.34,2.53-.95,3.83-1.42.56-.2,1.24-.46,1.83-.22.2.08.36.22.47.42.29.5.2,1.36.06,2.03-.72,3.55-2.85,6.57-4.41,9.8ZM186.91,75.15c-.41.7-.79,1.4-1.11,2.15-.46-.77-1.05-1.44-1.88-1.84-1.72-.81-2.82.94-4.36,1.3-.14.03-.26,0-.4,0,.03-.05.09-.08.11-.14.15-.4.14-.82.05-1.24-.05-.23-.33-.33-.53-.28-.23.06-.32.31-.28.53,0,.03.05.15.01.05.01.04.01.08.01.12,0,.08.01.15.01.23,0,.02,0,.07,0,.09,0,.02,0,.03,0,.04,0,.07-.02.14-.04.21,0,0-.01.05-.02.07,0,.01-.01.03-.02.04-.03.06-.06.11-.09.16-.09-.03-.18-.06-.26-.1.16-.56.33-1.11.48-1.67.06-.23-.1-.45-.32-.51-.21-.06-.46.1-.51.32-.11.54-.2,1.08-.29,1.62-.01,0-.03-.01-.04-.02.24-.67.36-1.38.4-2.08.02-.25-.25-.43-.47-.44-.26,0-.43.24-.44.47-.01.35-.02.7-.05,1.05,0,.02-.01.15,0,.07l-.02.13c0,.08-.02.17-.03.25-.02.11-.04.22-.06.32-.1-.02-.22,0-.33-.02-.03-.1-.07-.2-.1-.31-.02-.08-.03-.15-.05-.23,0-.01,0-.03,0-.04,0-.06-.02-.12-.03-.18,0-.03-.01-.06-.02-.09,0-.01,0-.03,0-.04-.01-.07-.02-.15-.03-.22-.03-.25-.21-.43-.47-.43-.24,0-.46.24-.44.47.03.35.1.69.21,1.02.02.05.05.1.07.15-.31.09-.61.21-.9.35.12-.56.16-1.14.07-1.71-.02-.12-.05-.21-.13-.29-.08-.08-.2-.12-.31-.12-.1,0-.22.06-.29.13-.07.07-.13.21-.12.31.04.27.07.54.07.81,0,.13,0,.26,0,.39,0,.07,0,.14-.01.21,0,.09,0-.07,0,.02,0,.04-.01.08-.02.12-.02.16.1.25.21.34-.16.08-.33.14-.5.22.09-.33.11-.68.02-1-.06-.21-.29-.31-.49-.26-.21.06-.31.29-.26.49,0,.04.02.07.03.11,0,.01,0,.02,0,.04,0,.07.01.14.01.22,0,.02,0,.03,0,.05,0,.03-.01.07-.01.09-.02.07-.03.14-.06.21-.05.14.09.22.19.31-.07.03-.15.07-.22.1-.01-.06-.02-.11-.03-.17,0-.02,0-.04-.01-.07q0,.05,0,0s-.01-.07-.02-.1c-.01-.08-.02-.16-.04-.23-.04-.31-.07-.62-.1-.93-.02-.24-.2-.4-.44-.4-.23,0-.42.22-.4.44.03.57.15,1.12.28,1.68-1.55.41-3.14.62-4.72.86-.99.15-1.97.34-2.84.87-1.66,1-2.19,2.6-2.16,4.32-.78-.52-2.03-1.49-3.22-1.84.42-1.23,1.88-.76,2.74-1.51,1.2-1.05.62-2.68.89-4.03.68-3.33,4.5-2.63,6.99-2.82,1.93-.15,3.79-1.05,5.72-1.08,1.81-.03,3.22,1.43,5.07,1.22.58-.06,1.13-.23,1.64-.5.35-.19.71-.57,1.12-.62,1.3-.17,2.97,1.44,3.57,2.8ZM186.04,90.07c-.27.05-.5.21-.6.49-.05.14-.04.3-.09.45-.24.33-.48.67-.72,1,1.57-3.4,2.55-7.02,2.3-10.95-.05-.81-.24-1.67-.53-2.49.51-.77,1.01-1.55,1.44-2.38.12-.07.27-.1.27-.29,0-.04-.03-.08-.04-.12.12-.22.24-.43.38-.63,3.73,4.67,1.05,10.03-2.41,14.91ZM195.61,90.3c.8-.32,1.51-.77,2.22-1.24.94-.62,1.25-.77,2.33-.49,1.29.33,2.61.46,3.9.77,1.64.39,2.07,1.49,2.18,3.09,0,.04.06.03.07.07-.22,1.44-.43,2.89-.74,4.31-.7,3.25-1.6,6.45-2.81,9.55-.09.23-.05.44.05.62-.31-.03-.62-.05-.93-.08-.75-.08-1.5-.14-2.26-.13.75-1.36.66-2.92.7-4.42,0-.25-.25-.45-.48-.44-.26.01-.44.23-.44.48-.03,1.34.11,2.81-.51,4.04-.08.16.03.27.12.38-.19.02-.39,0-.59.04-1.08.25-1.8,1.02-2.32,1.94-.66-1.2-1.57-2.22-2.48-3.25-1.32-1.49-2.19-3.22-2.89-5.08-.64-1.69-1.37-3.62-.82-5.44.49-1.61,2.06-3.14,3.52-3.9.69-.36,1.47-.52,2.18-.81ZM208.59,85.91c-.71.81-1.26,1.75-1.55,2.87-.12.46-.18.94-.27,1.4-.17-.42-.32-.84-.7-1.16-.12-.1-.28-.12-.41-.2.03-.39.08-.79.06-1.18-.02-.24-.21-.42-.46-.42-.23,0-.43.23-.42.46.02.25.02.5.02.75-.23-.08-.43-.19-.67-.24,0-.02.03-.03.02-.05-.06-.14-.11-.28-.15-.43,0-.04-.02-.07-.02-.11,0-.01-.01-.08,0-.02,0,.06,0-.01,0-.02-.01-.08-.02-.16-.03-.24-.04-.33-.05-.66-.04-.99.01-.23-.22-.39-.43-.39-.24,0-.38.22-.39.43-.04.58.1,1.14.31,1.68-.16-.03-.32-.07-.48-.09.07-.02.16-.01.2-.08.09-.12.09-.27.02-.41-.01-.02.03.08.03.07,0,0,0-.01,0-.02,0-.04-.03-.09-.05-.12-.03-.07.03.08.02.04,0-.02-.02-.04-.02-.06-.04-.1-.07-.2-.1-.3-.04-.12-.08-.25-.12-.37-.02-.06-.03-.12-.04-.18,0-.02,0-.05-.01-.07,0,0,0,0,0-.01,0,0,0,0,0,0h0s0,0,0,0c0,0,0,0,0,0-.02-.14-.07-.25-.19-.34-.1-.07-.21-.1-.34-.08-.13.02-.26.1-.32.23-.06.12-.06.22-.03.35.05.27.14.53.25.78.08.2.25.4.45.52-.38-.07-.75-.17-1.13-.27.05-.08.16-.1.17-.21,0-.03,0-.08,0-.11,0,.07,0,.07,0,.03,0-.02,0-.04,0-.06.01-.08.03-.15.04-.23.01-.09-.09-.12-.12-.19,0-.02,0-.04,0-.06,0-.21,0-.42,0-.64.01-.26-.25-.44-.48-.44-.26,0-.44.24-.44.48,0,.22,0,.43,0,.65.01.2.04.42.1.62-.19-.05-.38-.08-.57-.12-.02-.03-.03-.05-.05-.08-.01-.02-.03-.05-.04-.08,0-.02-.01-.03-.02-.05-.01-.04-.02-.07-.04-.11-.02-.08-.04-.15-.06-.23,0-.01,0-.03,0-.04,0-.03,0-.07-.01-.1-.02-.17-.03-.34-.03-.51,0-.26-.24-.44-.48-.44-.26,0-.44.24-.44.48,0,.34.06.69.16,1.01-.08,0-.14.03-.21.03.03-.07.08-.13.08-.2,0-.13-.07-.24-.16-.34.01.01.02.03.03.04-.05-.06-.08-.13-.12-.19-.03-.06-.04-.13-.06-.19,0-.08-.01-.15,0-.23,0-.04.01-.08.02-.12.06-.27-.11-.53-.38-.6-.26-.07-.55.12-.6.38-.07.3-.06.59,0,.89.06.28.22.52.41.73-.3.14-.59.31-.89.5-.79.51-1.55,1.02-2.44,1.35-.04.01-.07.03-.11.04.05-.09.12-.15.13-.27.07-.81-.01-1.61.06-2.41.07-.78.51-1.36,1.04-1.9.51-.51,1.07-.92,1.79-.99.63-.07,1.27.01,1.91-.03,1.66-.11,3.31-1.18,4.97-.83,1.68.35,2.62,2.01,3.84,3.09ZM209.04,23.93c.59.69,1.18,1.38,1.74,2.1.3.39.93.45,1.18-.04.15-.28.36-.52.56-.76.04.42.09.83.16,1.23.35,2.01.93,3.97,1.31,5.98.39,2.09.79,4.2,1.46,6.22.35,1.07.83,2.39,1.63,3.31-.16.05-.29.15-.44.23-.19-.31-.38-.61-.58-.92-.5-2.08-1.3-4.08-1.94-6.12-.17-.54-1-.28-.83.26.34,1.1.75,2.19,1.15,3.27-1.72-2.69-3.44-5.42-4.74-8.34-.67-1.5-1.98-4.57-1.01-6.37.15.08.22.02.37-.06ZM228.61,18.98c-1.14.25-2.21.46-3.43.4-.42-.02-.83-.06-1.25-.09,0,.01,0,.03,0-.03-.01-.1-.03-.19-.04-.29-.02-.19-.03-.39-.03-.58,0-.02,0-.05,0-.07.03-.05.07-.1.09-.15.04-.09-.06-.14-.07-.23,0-.03,0-.03,0-.05.02-.19.06-.38.11-.57.07-.25-.11-.5-.35-.56-.24-.07-.5.11-.56.35-.06.26.03.52,0,.77,0,.01-.01.02-.02.04,0-.02,0-.03,0-.05-.02-.18-.04-.35-.04-.53,0-.25-.22-.42-.46-.42-.24,0-.42.23-.42.45,0,.62.19,1.21.37,1.8-.23-.02-.45-.03-.68-.05-.07-.2-.14-.4-.2-.6-.04-.15-.08-.3-.11-.45-.02-.07-.03-.14-.04-.2,0-.04-.02-.08-.02-.12,0-.02-.03-.16,0-.04-.02-.14-.06-.24-.18-.32-.1-.07-.2-.09-.32-.07-.12.02-.24.09-.3.21-.05.11-.05.21-.03.33.08.41.22.8.36,1.2-.11,0-.22-.02-.33-.02-.63-.03-1.33-.03-2.04,0-.07-.1-.12-.2-.18-.3,0,0,0-.01,0-.02-.01-.03-.02-.06-.03-.09-.02-.06-.04-.12-.05-.18,0-.03-.01-.05-.02-.08,0,0,0-.02,0-.03,0-.06-.01-.12-.02-.19,0-.06,0-.13,0-.19,0,0,0-.02,0-.02,0-.03,0-.06.02-.1.04-.24-.09-.45-.32-.51-.09-.03-.14.1-.22.14-.07-.08-.1-.22-.24-.22-.21,0-.42.22-.4.43.06.49.1.98.12,1.47-1.43.2-2.81.65-3.73,1.68-.8.9-1.05,2.06-1.07,3.25-.3-.17-.73-.15-.98.22-.06.09-.12.18-.19.26-.54-.7-1.09-1.39-1.7-2.04.38-2.08.58-4.32,1.68-6.1.28-.45.73-1.03,1.26-1.19.35-.11.74,0,1.09.02,1.2.06,2.21-.43,3.24-.99,1.46-.8,2.77-1.26,4.46-1.01,1.44.21,2.88.75,4.18,1.39.82.41,1.51.91,1.98,1.71.47.82.76,1.75,1.1,2.63ZM243.73,25.19c-.07.17-.05.12-.18.17-.18.06-.29.18-.36.31-.96-.47-2.18-.49-3.17.01-1.72.87-2.89,2.67-4.67,3.36.08-.33.21-.66.26-.99.37-2.29.12-4.81-1.01-6.87-.18-.34-.41-.58-.62-.85.04-.04.08-.08.13-.11.32-.17.7-.26,1.06-.3.76-.09,1.59-.08,2.3.26.61.3.98.85,1.35,1.4.42.64.85,1.27,1.42,1.78.3.27.69.22.97-.03.77-.68,1.58-.45,2.12.37.22.34.39.73.41,1.14,0,.1-.03.34-.02.34ZM231.44,37.97c.4-.41-.25-1.02-.65-.61-.64.64-1.2,1.38-1.8,2.07.77-.87,1.54-1.73,2.24-2.65,1.49-1.96,2.95-4.17,3.8-6.54,1.86.07,3.44-1.9,4.79-2.87.79-.57,1.75-1.02,2.71-.59.87.38.85,1.26.65,2.07-.44,1.82-1.69,3.73-3.06,4.99-1.13,1.04-2.58,1.56-3.82,2.44-1.33.94-2.42,2.19-3.9,2.92-1.13.55-2.33.94-3.47,1.48.92-.81,1.65-1.81,2.5-2.7ZM225.23,42.87c-.67.1-1.34.17-2.02.18.12-.13.28-.24.38-.38.21-.32.4-.66.57-1,.1-.2.03-.42-.16-.53-.19-.11-.43-.02-.53.16-.09.16-.19.31-.29.46-.05.08-.1.15-.16.23-.03.05-.03.03,0,0-.01.01-.02.03-.03.05-.03.04-.05.07-.08.11-.1.13-.21.27-.33.39-.04.05-.09.09-.14.13,0,0-.02.01-.02.02-.02.02-.05.03-.08.05-.07.04-.08.14-.12.23-.01,0-.02.02-.03.03-.67-.08-1.32-.26-1.96-.5.48-.84.79-1.78,1.01-2.71.26-1.1.45-2.21.72-3.31.14-.59-.77-.8-.91-.21-.48,1.99-.73,4.12-1.62,5.99-.07-.03-.15-.05-.22-.08,0-.23-.06-.45-.34-.58-.11-.05-.19-.17-.29-.25.15,0,.31.02.4-.13.55-.98.56-2.3.58-3.39.02-1.17-.07-2.34-.05-3.52.01-.6-.91-.55-.92.04-.03,1.12.03,2.24.03,3.36,0,1.11-.1,2.15-.42,3.21-.03.1.07.12.11.2-1.11-1.02-1.58-3.06-1.92-4.32-.5-1.87-.83-3.77-1.2-5.67-.57-2.95-3.22-8.98,1.04-10.25,2.59-.78,5.35-.34,7.99-.14,1.23.09,2.48.19,3.7-.02.9-.15,1.75-.53,2.65-.65,2.57-.36,3.59,3.17,3.76,5.14.23,2.58-.59,4.96-1.82,7.2-1.28,2.32-2.94,4.41-4.67,6.41-.97,1.12-2.36,2.51-2.61,4.07ZM220.64,51.91c-.25-.47-.89-.65-1.05,0,0,.01,0,.02,0,.03-.2-.42-.4-.86-.62-1.23-.68-1.14-1.48-2.22-2.03-3.43-.45-.98-.73-2.11-.16-3.1.36-.63.82-.9,1.53-.71.75.21,1.44.61,2.2.82,1.19.34,2.34.34,3.51.26.15.25.41.43.77.3.16-.06.28-.18.44-.26-.24,1.73-1.38,3.43-2.35,4.74-.66.9-1.41,1.77-2.21,2.57ZM207.41,107.73c-.29-.32-.75-.44-1.22-.56.12-.11.22-.23.34-.33.08-.06.11-.19.11-.29,0-.11-.05-.2-.13-.28-.05-.05-.13-.06-.21-.08,0-.01.02-.02.03-.04.32-.44.59-.91.85-1.38.2-.36.04-.79-.29-.99-.15-.09-.32-.08-.49-.05.5-.92,1.02-1.82,1.45-2.77.18-.39-.37-.69-.59-.32-1.16,1.96-2.55,3.85-3.17,6.07,2.06-5.27,3.08-10.68,4.02-16.24.39-2.3,1.14-3.97,3.32-4.94.62.38,1.54.3,1.75-.62.02-.07.04-.15.06-.22,1.34-.62,2.82-1.22,4.12-.95,1.77.38,2.3,2.58,2.34,4.14.04,1.55-.33,3.1-.83,4.56-1.2,3.45-3.26,6.61-5.53,9.44-1.23,1.53-2.64,2.97-4.12,4.31.02-.03.04-.07.06-.11.01-.02.02-.03.03-.05.02-.03.04-.05.06-.08.03-.04.06-.08.09-.12.03-.04.02-.04-.01.01.01-.03.04-.06.06-.08.1-.13.2-.26.31-.38.15-.18.15-.42-.02-.59-.16-.16-.44-.14-.59.02-.48.49-.86,1.05-1.17,1.67-.1.21-.02.44.17.57-.27.22-.51.46-.79.67ZM198.98,120.27c-.27-2.25-1.55-4.26-2.11-6.51-.46-1.85-.16-5.21,2.21-5.52.98-.13,2.01.06,2.98.17,1.19.13,2.34.03,3.53.08,2.66.11-1.24,5.33-1.9,6.2-1,1.32-2.28,2.39-3.38,3.62-.53.6-.94,1.28-1.34,1.96ZM176.72,117.64c.07-.06.18-.02.22-.13.31-1.02.83-2,1.27-2.96.63-1.4,1.26-2.81,1.84-4.23.92-2.23,4.2-9.49,1.4-11.64.13-.05.26-.11.35-.27.81-1.41,1.92-2.95,3.08-4.55-.06,2.87.87,5.84,2.05,8.34.92,1.96,2.09,3.78,3.52,5.41.63.72,1.32,1.41,2.08,1.99.61.46,1.34,1.06,2.12,1.16.42.05.72-.42.4-.75-.54-.55-1.28-.91-1.86-1.42-.67-.59-1.3-1.22-1.87-1.91-1.26-1.52-2.29-3.24-3.13-5.03-1.42-3.05-2.44-6.82-1.47-10.17,1.28.19,2.53.14,3.75-.28.08.16.2.25.33.33-.46.45-.92.91-1.27,1.4-1.9,2.66-.91,5.81.19,8.59.62,1.55,1.37,3.06,2.43,4.36,1,1.22,2.3,2.34,2.91,3.82.09.22.26.34.45.4-.3,1.04-.42,2.15-.28,3.11.4,2.87,2.79,5.53,2.29,8.51-.02.15.04.25.09.37-.06.07-.13.12-.16.21-2.28,10.58-6.27,20.78-8.24,31.41-1.61,8.69-1.8,17.78-4.57,26.23-.02.05.02.08.01.13-2.72,6.99-5.45,13.98-8.02,21.02.07-5.7.07-11.4.55-17.13.66-7.89,1.36-15.8.92-23.72-.45-8.03-2.1-15.96-2.25-24.01-.08-4.36-.1-8.87.39-13.21.21-1.87.52-3.6.46-5.38ZM175.18,102.65c.16-1.26.69-2.26,1.95-2.7.86-.3,2.47-.7,3.31-.11,1.19.85.41,3.56.11,4.72-.65,2.51-1.64,4.92-2.63,7.31-.45,1.09-.91,2.23-1.3,3.37-.59-2.1-.99-4.23-1.18-6.42-.18-2.01-.5-4.17-.25-6.18ZM171.18,96.46c-1.99-1.75-3.59-3.93-4.98-6.18-1.6-2.58-4.6-8.55-.29-10.22,1.24-.48,2.7-.51,4.01-.72,1.23-.2,2.47-.43,3.64-.85,1.09-.39,2.21-1.48,3.39-1.06.96.33,1.56.83,2.64.63.82-.15,1.52-.56,2.21-1,.69-.45,1.16-.77,1.92-.25.87.6,1.33,1.48,1.62,2.44.02.03,0,.07.03.09.37,1.3.4,2.74.32,4.01-.32,5.58-2.79,10.19-5.69,14.79-.09-.01-.13-.07-.23-.08-.44-.03-.91.06-1.38.11.36-.64.72-1.3.94-1.99.31-.98.55-1.98.71-3,.08-.53-.72-.72-.82-.19-.34,1.8-.9,3.56-1.64,5.24-.03,0-.05,0-.08,0,.18-.85-.18-1.86-.22-2.69-.01-.23-.21-.42-.44-.41-.22,0-.42.21-.4.44.04.56.21,1.13.3,1.67.02.14.04.29.05.43,0,.07,0,.14,0,.21,0,.05,0,.13,0,.15-.03.22-.1.4-.2.59-.41.16-.83.29-1.17.54-.1-.27-.31-.47-.79-.63-1.3-.43-2.42-1.18-3.44-2.08ZM157.7,83.78c.23-.97.58-1.26,1.5-.86.94.41,1.81,1.03,2.7,1.54.22.12.36-.02.5-.14.23,2.06,1.18,4.21,2.05,5.73,1.28,2.23,2.79,4.38,4.56,6.25.92.96,1.92,1.86,3.05,2.57.15.09.31.16.47.24-.32-.11-.64-.19-.95-.31-1.2-.74-1.95-2.03-3.02-2.93-.4-.33-.94.24-.55.58.41.36.77.79,1.13,1.21-.86-.44-1.73-.84-2.54-1.37-2.49-1.66-4.49-3.77-6.49-5.97-1.72-1.9-3.05-3.85-2.42-6.54Z"/>
    <path class="cls-1" d="M207.59,149.7c-.07-.06-.14-.11-.21-.17,0,0,.01,0,.02-.01.19-.8.1-1.6,0-2.4.13.86.21,1.71.21,2.58Z"/>
    <path class="cls-1" d="M207.02,158.83c.07.07.14.13.21.19.12.09.12.29.04.41-.09.12-.26.17-.4.09-.8-.45-1.22-1.29-1.57-2.11-.08-.19.06-.43.25-.48.22-.06.39.06.48.25.02.04.04.09.06.13.01.03.02.05.04.08-.01-.03-.02-.05,0,0,.04.09.09.19.13.28.09.18.18.36.28.53.1.16.21.31.33.46,0,0,.07.08.01.02.01.01.02.03.04.04.03.04.07.07.1.11Z"/>
    <path class="cls-1" d="M204.34,156.4c-.13-.27-.27-.54-.42-.81-.16-.29-.3-.59-.43-.9-.07-.17.05-.37.2-.44.15-.07.39-.03.46.14.14.3.28.6.41.9.12.28.24.56.34.84.05.15-.04.31-.17.38-.13.06-.33.03-.39-.12Z"/>
    <path class="cls-1" d="M203.1,151.41c.47.11.3.84-.17.73-.47-.11-.3-.84.17-.73Z"/>
    <path class="cls-1" d="M211.87,150.72c.33-1.57.25-3.2.7-4.75.16-.55,1.02-.36.87.2-.42,1.54-.41,3.17-.83,4.71-.13.46-.83.31-.73-.17Z"/>
    <path class="cls-1" d="M250,142.79c.17.1.25.32.15.5-.39.71-.7,1.45-1.18,2.11-.11.15-.35.14-.48.04-.13-.09-.22-.32-.11-.47.46-.63.75-1.35,1.12-2.03.09-.17.33-.25.5-.15Z"/>
    <path class="cls-1" d="M243.06,143c-.14-.08-.21-.27-.12-.41.34-.58.66-1.17,1.03-1.73.1-.14.29-.23.45-.13.14.08.24.3.13.45-.39.55-.72,1.14-1.07,1.71-.08.13-.26.21-.41.12Z"/>
    <path class="cls-1" d="M258.44,144.8c.14.13.14.35.01.49-.7.8-1.62,1.43-2.16,2.36-.21.36-.78.06-.57-.31.57-.99,1.5-1.66,2.23-2.52.12-.14.36-.14.49-.01Z"/>
    <path class="cls-1" d="M253.84,147.7c-.27-.06-.17-.48.1-.42.27.06.18.48-.1.42Z"/>
    <path class="cls-1" d="M181.46,84.53c-.35,1.84.01,3.75-.59,5.55-.14.42-.8.29-.69-.16.47-1.82.07-3.74.51-5.57.12-.5.87-.32.77.18Z"/>
    <path class="cls-1" d="M181.5,80.14s-.02.09-.03.14c0,.02-.03.13-.02.14-.01,0,0-.07,0,0,0,.02,0,.04,0,.06,0,.05,0,.09,0,.14,0,.04,0,.08.01.13,0,.04-.01-.06,0,0,0,.02.01.05.02.07.02.09.06.18.09.26.06.14-.04.32-.17.38-.13.06-.33.02-.4-.12-.21-.43-.27-.9-.17-1.37.04-.17.23-.3.41-.25.17.05.3.22.26.41Z"/>
    <path class="cls-1" d="M175.24,94.9c0,1.25.21,2.5.52,3.71.12.47-.58.7-.73.23-.39-1.27-.65-2.57-.66-3.9,0-.23.18-.44.41-.45.23,0,.45.18.45.41Z"/>
    <path class="cls-1" d="M172.14,87.37c-.05-.22.05-.46.28-.52.21-.07.46.06.53.27.36,1.31.73,2.62,1.06,3.94.11.45-.55.67-.7.22-.42-1.3-.85-2.58-1.16-3.91Z"/>
    <path class="cls-1" d="M176.24,88.83c-.21,1.33-.44,2.67-.46,4.03,0,.4-.61.43-.63.03-.04-1.42.13-2.82.34-4.22.03-.2.27-.33.45-.28.21.05.32.25.29.46Z"/>
    <path class="cls-1" d="M170.81,93.12c.21-.06.37.05.46.24.01.03.03.06.04.09.03.06-.02-.04.01.02.02.05.05.11.08.16.05.11.1.21.16.32.11.22.22.43.34.65.23.42.48.83.74,1.23.1.15.05.36-.11.46-.16.1-.35.04-.46-.11-.57-.83-1.09-1.68-1.5-2.6-.08-.18.06-.41.24-.46Z"/>
    <path class="cls-1" d="M168.83,89.96c-.03-.25-.06-.5-.1-.75-.02-.12-.04-.24-.05-.36,0-.06-.02-.12-.03-.18,0,0-.02-.12-.01-.07,0,.05,0-.06-.01-.07-.02-.1-.02-.19.03-.28.05-.1.15-.16.26-.18.23-.04.39.12.42.34.07.5.13,1.01.18,1.51.02.18-.15.35-.33.35-.2,0-.33-.13-.35-.32Z"/>
    <path class="cls-1" d="M167.62,85.9c-.08-.2-.16-.4-.24-.6-.07-.16.05-.37.22-.41.18-.05.35.04.42.22.07.2.14.41.21.61.05.15-.05.35-.21.39-.18.05-.33-.04-.39-.21Z"/>
    <path class="cls-1" d="M164.62,92.91c.07.2-.06.45-.26.5-.22.06-.43-.05-.5-.26-.19-.54-.39-.97-.67-1.46-.14-.24-.29-.47-.44-.69-.08-.12-.17-.23-.26-.35-.04-.05-.08-.1-.12-.15-.02-.03-.04-.06-.07-.08-.05-.06.01.01-.04-.05-.14-.16-.19-.41-.02-.58.15-.14.43-.19.58-.02.8.92,1.41,1.99,1.8,3.14Z"/>
    <path class="cls-1" d="M199.25,94.97c.27-.01.44.19.47.43.16,1.14.3,2.28.47,3.42.03.21-.16.4-.35.43-.19.03-.44-.08-.48-.29-.22-1.17-.39-2.34-.55-3.52-.03-.24.2-.46.43-.47Z"/>
    <path class="cls-1" d="M196.21,104.61c.08.43.19.85.28,1.28.09.44.18.88.24,1.33.02.18-.14.35-.31.38-.16.03-.38-.07-.42-.25-.08-.42-.18-.84-.29-1.26-.11-.44-.2-.89-.27-1.34-.03-.19.15-.37.32-.39.17-.03.4.07.44.26Z"/>
    <path class="cls-1" d="M195.12,96.92c-.02.74-.02,1.48,0,2.21,0,.2-.16.4-.37.4-.22,0-.38-.15-.4-.37-.07-.74-.11-1.47-.08-2.21,0-.22.16-.44.41-.44.22,0,.45.17.44.4Z"/>
    <path class="cls-1" d="M195.91,93c.05-.21.28-.37.5-.31.21.06.37.28.31.5-.04.13-.06.27-.08.41,0,.03,0,.06-.01.08,0,.02,0,.04,0,.06,0-.06,0-.07,0-.02,0,.07,0,.13,0,.2,0,.13,0,.26.01.39,0,.06.01.13.02.19,0,.01,0,.02,0,.03,0,.03.01.07.02.1.05.2-.04.44-.26.5-.2.05-.44-.05-.5-.26-.16-.61-.16-1.25-.02-1.86Z"/>
    <path class="cls-1" d="M201.75,93.42c.21.06.31.24.28.44,0,.04-.01.09-.02.13,0,0-.01.12,0,.03,0,.07-.01.15-.01.23,0,.15,0,.3,0,.45,0,.15.02.3.05.45,0,0,.02.11,0,.04,0,.04.02.09.03.13.02.07.03.15.05.22.04.18-.04.39-.23.44-.18.05-.39-.04-.44-.23-.18-.67-.23-1.36-.14-2.05.02-.19.27-.33.44-.28Z"/>
    <path class="cls-1" d="M201.45,103.53c-.06.69-.15,1.38-.31,2.05-.04.18-.24.32-.43.27-.19-.05-.31-.23-.27-.43.06-.32.11-.64.15-.96.04-.31.06-.55.08-.9.01-.2.15-.4.37-.4.19,0,.42.16.4.37Z"/>
    <path class="cls-1" d="M196.57,105.63c.12-.67.1-1.37.07-2.08,0-.2.16-.4.37-.4.2,0,.4.15.4.37,0,.76-.02,1.52-.2,2.26-.04.17-.22.3-.4.25-.18-.05-.28-.21-.25-.4Z"/>
    <path class="cls-1" d="M211.1,97.91c.2.11.29.38.17.59-.51.92-.89,1.9-1.2,2.91-.07.22-.28.38-.52.32-.22-.05-.39-.29-.32-.52.32-1.08.71-2.15,1.29-3.12.12-.2.37-.29.59-.17Z"/>
    <path class="cls-1" d="M213.98,92.08c-.27-.06-.17-.48.1-.42.27.06.17.48-.1.42Z"/>
    <path class="cls-1" d="M208.15,99.13c.11-.3.22-.59.33-.89.1-.27.22-.52.34-.78.14-.29.56-.42.84-.25.29.18.41.53.25.84-.13.25-.25.49-.39.73-.14.24-.27.47-.41.71-.13.23-.4.33-.64.23-.1-.04-.2-.11-.26-.21-.06-.11-.11-.27-.07-.39Z"/>
    <path class="cls-1" d="M210.95,94.98c-.05.12-.21.25-.34.28-.13.03-.25.03-.38-.02-.12-.04-.23-.12-.29-.23-.07-.13-.12-.3-.07-.44.08-.23.17-.45.29-.66.12-.21.26-.41.42-.59.1-.11.28-.19.42-.19.15,0,.34.06.45.17.23.24.26.62.03.87-.07.08-.14.16-.21.24-.13.18-.24.37-.32.57Z"/>
    <path class="cls-1" d="M214.2,96.42c.23.12.27.38.18.6-.41,1.02-.85,2.03-1.44,2.96-.12.19-.36.28-.56.17-.19-.1-.28-.37-.17-.56.57-.95.98-1.97,1.4-2.99.09-.22.4-.28.6-.18Z"/>
    <path class="cls-1" d="M215.1,92.93c.02-.05.04-.11.06-.16.04-.1-.03.09,0,0,.01-.03.02-.06.03-.08.08-.22.15-.45.2-.68.05-.22.29-.38.51-.32.22.06.38.28.32.51-.13.5-.32.99-.55,1.45-.1.19-.37.28-.56.17-.2-.12-.27-.35-.17-.56.05-.11.1-.21.14-.32Z"/>
    <path class="cls-1" d="M225.87,36.99c-.15,0-.31-.09-.36-.25-.04-.17.02-.3.15-.41.02-.02.04-.04.07-.05.02-.02.05-.03.08-.04.05-.03.1-.07.15-.1.04-.03.09-.07.13-.1,0,0,.01,0,.02-.01.02-.02.05-.04.07-.06.09-.09.18-.18.26-.28.02-.03.08-.12.01,0,.02-.03.04-.06.06-.09.04-.06.07-.11.1-.17.11-.2.39-.3.6-.18.2.12.31.39.18.6-.16.27-.36.52-.61.73-.12.1-.25.21-.4.28-.16.08-.34.16-.52.16Z"/>
    <path class="cls-1" d="M230.03,27.03c.1-.2.39-.29.58-.17.21.13.27.36.17.58-.16.37-.28.8-.42,1.23-.15.45-.3.9-.54,1.3-.11.19-.37.29-.57.17-.19-.12-.28-.36-.17-.57.22-.4.33-.75.46-1.19.13-.46.28-.91.48-1.34Z"/>
    <path class="cls-1" d="M221.37,32.05c0-.71-.09-1.43-.13-2.14-.04-.73,0-1.47.18-2.18.13-.54.96-.35.84.19-.29,1.34-.04,2.73-.06,4.09,0,.53-.82.57-.83.04Z"/>
    <path class="cls-1" d="M217.38,34.51c-.25-.68-.24-1.39-.16-2.1.07-.67.25-1.32.3-1.99.02-.23.16-.43.4-.44.21,0,.45.17.44.4-.04.68-.19,1.35-.28,2.03-.09.63-.15,1.25.05,1.86.15.48-.57.7-.74.23Z"/>
    <path class="cls-1" d="M235.92,32.75c-1.21,1.28-2.15,2.8-3.51,3.94-.15.13-.36.16-.52.02-.14-.13-.16-.38-.02-.52,1.3-1.19,2.23-2.73,3.45-3.99.36-.38.95.18.59.56Z"/>
    <path class="cls-1" d="M219.6,18.36c-.09-.26-.1-.52-.06-.79.03-.23.31-.39.52-.33.24.07.36.28.32.52,0-.01,0-.02,0-.04,0,.08,0,.15,0,.23,0,0,0,.01,0,.02,0,.04.02.08.04.13.08.22-.06.49-.29.55-.24.06-.47-.06-.55-.29Z"/>
  </g>
  <g>
    <path class="cls-1" d="M110.24,80.45c-.11-.03-.19-.16-.32-.08-.03.01-.04.05-.07.06.17-.14.29-.33.44-.48-.04.16-.02.33-.05.5Z"/>
    <path class="cls-1" d="M77.57,126.63c-.02.1-.03.2-.06.3-.02-.09-.08-.14-.13-.2.06-.03.12-.07.18-.1Z"/>
    <path class="cls-1" d="M75.57,126.65s-.02.01-.04.02c-.02,0-.03,0-.05,0,.03-.01.06.02.09-.01Z"/>
    <path class="cls-1" d="M48.02,81.6c-.68-.27-1.45-.85-1.42-1.58.65.3,1.13.86,1.42,1.58Z"/>
    <path class="cls-1" d="M47.88,98.92c0,.06.01.13.02.19-.09-.08-.17-.16-.26-.24.05.02.09.07.14.09.05.02.06-.04.1-.04Z"/>
    <path class="cls-1" d="M36.49,82.77c-.01.43-.1.86-.16,1.29-.15-.4-.33-.79-.45-1.2-.09-.3-.55-1.73-.23-1.98.73-.55.84,1.68.83,1.89Z"/>
    <path class="cls-1" d="M42.17,98.34c-.7-.15-1.41-.26-2.12-.35-.05-.55-.1-1.09-.27-1.61.29.03.53-.11.64-.34.21.26.45.49.64.76.36.5.73,1.03,1.11,1.55Z"/>
    <path class="cls-1" d="M32.25,93.17c-.84.02-1.84-.64-1.95-1.47.82.22,1.45.76,1.95,1.47Z"/>
    <path class="cls-1" d="M62.27,134.84s.02.03.04.03c.07.03.1-.03.15-.05.12,0,.22,0,.34-.01-.16.09-.32.17-.48.25.04-.08-.04-.13-.04-.21Z"/>
    <path class="cls-1" d="M118.87,336.3c.29.42.61.83.93,1.23.41,1.26.77,2.51,1.06,3.78-.59-1.69-1.24-3.37-1.99-5.01Z"/>
    <path class="cls-1" d="M132.44,145.56c-.18.13-.32.31-.5.45.1-.16.12-.34.2-.5.08.08.2.03.3.05Z"/>
    <path class="cls-1" d="M129.16,148.99c-.06.09-.12.18-.18.27,0,0,0,0,0-.01.01-.08.03-.15.05-.23-.01.05,0-.03,0-.03.01-.04.02-.08.04-.12.01-.04.03-.08.05-.12.01.08.02.16.04.23Z"/>
    <path class="cls-1" d="M128.26,146.73c0,.4-.02.8,0,1.2-.02.03-.06,0-.07.03-.06-.37-.11-.74-.19-1.1.15,0,.18-.02.27-.13Z"/>
    <path class="cls-1" d="M119.19,174.73s-.01-.03,0-.04c0,0,.02,0,.03,0,0,.01-.02.02-.02.04Z"/>
    <path class="cls-1" d="M120.41,174.28s0,0-.01-.01c0,0,0-.02,0-.03-.02-.17-.14-.26-.26-.33.01-.17-.03-.32-.13-.47.08.05.13.13.21.17.15.08.31.14.48.16.21.03.49.04.6-.19-.07.06-.15.11-.22.17.05-.01.1-.04.15-.05-.22.17-.48.28-.69.48-.04.04-.03.09-.06.14-.02,0-.04-.03-.06-.03Z"/>
    <path class="cls-1" d="M43.17,83.3c-.25-.57-.49-1.15-.68-1.74.1.09.24.08.33.19.39.52.63,1.16.83,1.78.4,1.24.56,2.58,1.08,3.78.2.46.9.16.72-.31-.23-.59-.34-1.23-.47-1.85-.16-.77-.32-1.55-.55-2.31-.41-1.33-1.17-2.78-2.71-2.94-.39-.04-.65.27-.63.63.06,1.14.51,2.22.96,3.25.31.73,1.44.24,1.13-.49Z"/>
    <path class="cls-1" d="M132.09,138.43c-.24-.79-.32-1.85-.25-2.69.02-.25.05-.49.09-.74.01-.08.03-.16.05-.24.42.43,1.31.21,1.21-.55-.08-.64-.18-1.2-.56-1.73-.3-.41-.86-.32-1.16.01-.72.8-.99,2.02-1,3.06-.02,1.12.11,2.3.64,3.29.33.61,1.19.23.98-.43Z"/>
    <path class="cls-1" d="M68.13,106.11c-.18-1.38-.38-2.76-.62-4.14-.06-.38-.63-.3-.59.08.15,1.39.33,2.77.54,4.15.06.43.72.34.66-.09Z"/>
    <path class="cls-1" d="M69.13,116c.22,2.06.48,4.13.27,6.2-.05.48.7.58.75.1.23-2.14-.08-4.27-.43-6.38-.06-.38-.64-.3-.59.08Z"/>
    <path class="cls-1" d="M80.17,112.97c.22-2.4.61-4.84.14-7.24-.1-.52-.92-.41-.82.11.42,2.33.14,4.69.01,7.04-.02.43.63.53.67.09Z"/>
    <path class="cls-1" d="M94.07,30.9c-.06.25.35.36.43.12.3-.94.88-1.75,1.51-2.49.1-.12.06-.32-.06-.41-.13-.1-.31-.06-.41.06-.68.8-1.22,1.71-1.48,2.73Z"/>
    <g>
      <path class="cls-1" d="M82.18,21.06c.02-.4-.62-.47-.64-.07-.21,1.29-.52,2.51-.5,3.77.02.15.04.31.2.29.17.06.31-.04.29-.2.14-1.28.44-2.5.65-3.8Z"/>
      <path class="cls-1" d="M86.18,38.47h-.08s.08,0,.09.08v-.08Z"/>
      <path class="cls-1" d="M89.61,180.31c-.02-4.65.13-9.24.03-13.95-.14-6.68-1.05-13.17-2.05-19.81-1-6.09-2.02-12.25-3.1-18.32-.56-2.92-1.16-6.06-.95-9.09-1.55,2.42-3.26,4.87-4.92,7.15q.01.08-.07.09c-.09,1.04-.41,2.18-.57,3.23.45,2.69.76,5.49.2,8.25-.33,1.62-.55,3.39-.79,5.07,2.79,10.96,6.01,21.7,10.07,32.17.72,1.79,1.43,3.5,2.14,5.22ZM66.89,133.75l.09.07c.09,2.9,1.52,5.86,2.91,8.42,1.16,2.12,2.81,4.89,5.04,6.23.63-3.4.78-6.89,1.56-10.3.84-3.58.14-6.95-.36-10.51-1.05.93-2.2,1.72-3.44,2.45-.08.01-.07.09-.14.1-.42.93-.66,2.06-.68,3.01.05,1.49.26,3.04.47,4.51-.01.47-.71.57-.77.11-.23-1.62-.45-3.25-.37-4.91.07-.64.13-1.36.34-2.1-1.6.93-3.12,1.93-4.64,2.93ZM89.72,323.25c1.27,3.45,2.91,6.77,4.62,10,3,5.73,5.2,11.89,8.35,17.51.42.73-.78,1.21-1.18.56-3.32-5.76-5.63-12.14-8.59-18.11-.43-.81-.77-1.55-1.19-2.36.75,2.57,1.49,5.07,2.31,7.56.21.37.33.66.54,1.03.21.37.17.69.06,1.02,2.1,6.56,4.34,13.03,6.59,19.57,5.02,15.14,12.58,30.95,15.6,47,.3-4.61.6-9.3,1.05-13.94-.08-.54-.14-1.01-.22-1.55-.29.2-.67.25-.82-.2-.29-2.09-.49-4.11-.77-6.12,0-.55.54-.63.83-.27-.51-4.81-1.11-9.7-2.55-14.38-2.22-7.49-5.36-14.7-8.93-21.69-3.78-7.35-8.15-14.39-11.49-21.96-2.55-5.87-4.65-11.88-6.68-17.98.59,4.8,1.33,9.59,2.47,14.31ZM147.62,136.23c-1.25,1.2-2.49,2.47-3.82,3.68-1.89,1.68-4.16,2.94-6.33,4.35-2.18,1.33-4.54,2.52-6.23,4.49-1.13,1.5-2,3.19-2.88,4.81-.21,1.92-.4,3.92-.63,5.68-.27,2.56-.23,5.15-.58,7.72-.19,1.45-1,2.98-1.19,4.5.3-.12.53-.15.76-.19v-.08c.16-.5.41-.93.67-1.36.27-.35.53-.7.88-1.07.13-.18.36-.21.54-.08.09.07.13.38.06.46-.34.36-.6.79-.86,1.14-.2.26-.33.44-.46.69,1.06-.31,2.04-.6,3.01-1.05,4.47-1.88,7.87-5.19,10.28-9.39,4.32-7.46,5.59-15.91,6.78-24.35ZM114.54,328.31c-3.34-7.57-5.94-15.49-12.92-20.35-.52-.32.08-1.11.6-.79,1.22.85,2.37,1.72,3.38,2.76-5.36-8.47-11.72-16.26-19.94-22.13,0,.63.02,1.26.1,1.88.03.78.06,1.57.09,2.35.15-.02.22-.11.32.03,1.01,1.04,2.09,1.99,3.31,2.85,1.21.78,2.42,1.55,3.58,2.5,2.42,2.11,4.3,4.84,6.59,7.12.37.42-.31,1.15-.76.74-2.43-2.18-4.25-5.08-6.75-7.18-1.16-.94-2.44-1.71-3.67-2.56-.88-.67-1.77-1.41-2.53-2.33.16,2.26.25,4.62.41,6.88,9.23,5.18,17.57,13.55,23.85,21.9,1.45,1.93,2.93,4.08,4.35,6.33ZM128.64,134.61c-.04-.31-.16-1.16-.49-1.27-.82-.2.16,2.26.28,2.56.43.81-.83,1.38-1.26.57-.55-1.11-1.3-3.13-.1-4.08.56-.47,1.43-.51,1.96-.04.62.47.8,1.23.99,1.99.74,3.6-.11,7.11-.56,10.72.21-.74.44-1.4.65-2.14.74-2.07,1.77-4.27,3.27-5.97.2-.26.74-.34,1.03.01.92,1.53,1,3.8-.5,4.88-.72.49-1.49-.5-.85-.99.64-.48.7-1.2.6-1.9-1,1.32-1.74,2.76-2.32,4.26-.42.93-.76,1.92-.93,2.97.13-.18.27-.35.48-.54.2-.26.4-.53.52-.78-.01-.08.07-.09.07-.09-.01-.08.06-.17.05-.24.08-.01.07-.09.07-.09-.04-.31-.08-.54.05-.79.06-.17.2-.26.34-.36.14-.1.29-.2.44-.22.31-.04.64.07.89.19.41.1.55.55.44.88-.06.17-.28.27-.42.37-.14.1-.31.04-.47-.01v.08c.02.08.04.23.14.38.01.08-.06.17-.04.24.58-.4,1.08-.7,1.59-1.01.5-1.49,1.41-2.88,2.01-4.22.24-.51.99-.22.75.29-.43.85-.96,1.63-1.4,2.4-.19.34-.24.51-.36.84-.08.01-.07.09-.07.09l.07-.09c2.47-1.53,5.1-3,7.28-4.87,1.12-1.02,2.23-2.12,3.33-3.22-.09-.07-.17-.06-.17-.06-.74-.76-1.04-1.82-1.18-2.83-.21-.92-.25-2.33-1.12-2.92-1.12-.71-2.64.29-3.83.22-1.35-.05-2.78-.72-3.9-1.43-2.24-1.34-3.65-3.59-6.63-2.94-2.3.48-4.91,2.1-6.2,4.17.28,1.46.42,3.01.55,4.49.03,1.89.15,3.92-.21,5.86-.06.17-.2.26-.27.35,1.49,1.05,2.85,2.36,3.77,3.89-.06-.46-.13-.93-.19-1.39s-.13-.93-.28-1.46c-.22.11-.44.22-.63,0-.35-.27-.78-.52-.91-.9-.23-.52.01-1.03.28-1.38.2-.26.51-.31.76-.18,1.4.44,1.78,2.04,1.89,3.36.11.77.13,1.48.16,2.26.05.39.11.77.24,1.15.19-3.18.86-6.27.59-9.38,0-.55-.08-1.17-.24-1.7ZM116.84,70.22c-.48,1.09-.99,1.95-1.57,2.9,2.26-1.89,3.12-5.87,3.54-8.53.63-3.95.91-8.17.05-12.06-.29-1.54-1.82-6.29-4.02-4.56-1.22.88-2.42,1.83-3.61,2.95.69,1.56,1.45,3.03,1.9,4.62.29.98.35,1.92.23,2.8.61-.16,1.17-.08,1.86.37h.08c.21-.75.34-1.55.46-2.36.05-.79.18-1.52.48-2.2v-.08c.07-.01.06-.09.04-.17.24-1.69.17-3.33.02-4.97-.09-.62.84-.75.93-.13.24,1.7.33,3.5.1,5.27-.16,1.68-.55,3.39-1.03,5.03-.04.24-.27.35-.42.37,1.09,1.03,1.68,2.45,1.82,4,.25,2.33.08,4.56-.87,6.74ZM127.69,172.57c.01.08.02.15.03.23.09.07.16.06.18.13.38,1.6,1.93,2.57,3.21,3.26.85.43,1.68.71,2.58.98.34.19.75.29,1.16.39.17.06.33.11.57.16.08-.01.09.07.09.07.08-.01.17.06.24.05.17.06.25.12.34.19.08-.01.15-.02.31-.04-.11-.22-.22-.44-.33-.66-.49-.72-1.14-1.42-1.78-2.04-1.27-1.16-2.67-2.23-4.06-3.14-.1-.14-.03-.23-.04-.31-.83.27-1.67.47-2.5.74ZM112.34,87.15c.5-1.49,1.09-2.91,1.43-4.45.45-1.87.75-4.2-.79-5.64-.1-.14-.03-.23.02-.4-.38.13-.79-.05-.85-.43-.08.01-.22.11-.31.04-.1.41-.21.74-.31,1.15.23-.03.41.1.35.27-.13.18-.12.25-.18.42.01.08.1.14.03.23.01.08-.13.18-.2.26-.59,1.42-.85,2.96-.39,4.55.35,1.37.77,2.73,1.19,4.01ZM102.73,83.76c1.33-.66,2.73-1.33,4.04-2.14,1.31-.81,2.58-1.86,3.6-3.02-.02-.71-.03-1.34.03-2.05-1.59,1.01-3.12,1.93-4.53,3.15-1.26,1.12-2.42,2.46-3.14,4.06ZM85.71,314.27c-.01-.08-.17-.06-.18-.13-1.39-9.42-5.17-18.43-5.24-28.03.02-.4.63-.56.7-.1.46,4.98,1.69,9.85,2.91,14.65-1.7-21.83-.42-44.39-7.83-65.34-3.51-9.91-9.01-18.84-15.23-27.35-4.08-5.5-8.36-13.1-14.62-16.72,1.69,5.91,4.61,11.57,6.59,17.37,2.07,5.78,4.34,11.37,6.92,16.85,5.16,11.02,9.78,22.12,12.53,33.96,5.26,22.52,7.35,46.02,16.16,67.41-1.06-4.19-1.95-8.32-2.69-12.55ZM110.99,71.82c-.22-2.18.07-4.58-.84-6.58-.12-.3.32-.52.44-.22,1.03,2.3.76,4.86,1.1,7.33.03.23-.19.34-.36.21.02.15.12.3.14.45.28.91.4,1.76.37,2.63.07-.09.2-.26.27-.35.13-.18.36-.21.46-.06l.13-.18c-.04-.31.08-.56.38-.68.02-.4-.02-.71.01-1.03-.17.5-.25,1.06-.58,1.5-.2.26-.71.02-.6-.31.19-.34.29-.75.4-1.08.07-.09.06-.17.12-.25v-.08l-.02-.08.07-.09c.04-.24.1-.41.08-.56.04-.24.26-.43.5-.38.15-.02.18.13.2.29.47-1.72,1.35-3.34,1.74-5.05.17-.5.97-.37.88.11-.3,1.22-.85,2.4-1.3,3.65-.38.68-.59,1.42-.71,2.23,1.3-1.99,2.44-3.97,2.67-6.28.15-1.75.08-3.95-.61-5.51-.56-1.18-2.3-2.91-2.89-.94-.28.83-1.52.37-1.25-.46.92-3.04-.45-5.53-1.32-8.33-.13.18-.35.29-.49.46-3.09,3.82-2.24,9.93-1,14.32.49,1.82,1.36,3.52,2,5.32ZM127.6,183.77c.37-1.86.59-3.71.24-5.63-.15-1.08-.52-2.06-.9-3.11-.33-.66-.44-1.44-.38-2.15-.38.13-.75.26-1.13.39-.08.01-.15.02-.15.02-.45.14-.91.28-1.28.41.01.08.09.07.1.14.26,1.86.83,3.67,1.63,5.45.31.51-.65.96-.9.36-.8-1.78-1.45-3.66-1.49-5.62-.74.34-1.4.67-2.06,1.07-.14.1-.22.11-.31.04-.04.24-.17.5-.22.66.11.22.15.53.25.67.64,1.17,1.49,2.23,2.34,3.22,1.31,1.47,2.68,2.86,4.27,4.06ZM48.39,142.39c2.28-1.18,4.06-3.09,6.15-4.48,2.08-1.47,4.11-1.6,6.38-2.31.13-.18.2-.26.26-.43-3.91,1.33-7.97,1.03-12.21.04-5.87-1.39-11.63-2.56-17.64-3.3-6.1-.81-13.69-.38-19.45,1.84-1.35.5-4.07,1.35-4.75,2.71-.94,1.71-.18,1.52,1.44,1.85,1.63.4,3.3.49,4.9.66,4.97.57,9.52,2.69,14.31,3.76,6.01,1.29,15.02,2.64,20.6-.35ZM17.23,94.01c-.21-.37.39-.61.6-.24.55,1.11,1.31,2.02,2.08,3.02,1.74.07,3.5.22,5.29.6-1.81-2.82-3.19-5.94-4.86-8.86-.52-.87-1.04-1.83-1.56-2.7-.18-.13-.35-.27-.32-.59-1.42-2.25-3-4.55-5.11-6.14-.98-.81-2.25-1.42-3.5-.77-2.27,1.26-4.18,4.52-5.37,6.74-2.81,5.28-3.39,11.35-2.17,17.25.67,3.14,1.83,6.36,3.11,9.34.91,2,2.27,3.31,3.66,4.77-1.55-4.91-3.34-11.51-.62-15.75,1.69-2.6,4.97-3.37,7.99-3.71-.36-.34-.65-.7-.95-1.13-.6-.94-1.05-1.9-1.44-2.95-.14-.45.6-.79.74-.34.54,1.58,1.35,3.44,2.81,4.34.31-.04.71-.02,1.02-.06.15-.02.32.03.47.01-.68-.93-1.35-1.78-1.89-2.81ZM116.22,336.43c-2.16-4.74-4.91-9.25-8.02-13.46-3.28-4.35-6.99-8.33-10.97-12.03-3.36-3.16-7.12-5.87-10.68-8.76.08.54.07,1.09.15,1.63,0,0,.08-.01.09.07,3.16,7.99,6.02,16.1,9.63,23.88,3.41,7.49,7.92,14.42,11.62,21.79,3.68,7.21,6.95,14.79,9.06,22.62.82,3.04,1.34,6.2,1.78,9.37.27-3.74.62-7.42.9-11.08.46-6.29.77-12.56,1.01-18.82-1.2-5.19-2.37-10.23-4.56-15.21ZM72.4,38.02c-.35.29-.7.65-1.13.95.63,0,1.18,0,1.73,0,1.42.04,2.84,0,4.29-.28,1.16-.16,2.37-.49,3.6-.74-.09-.07-.25-.12-.26-.2v-.08c-.2.34-.65.48-1.03.06-.09-.07-.11-.22-.2-.29-.95-.03-2-.19-2.87-.23-1.52-.18-2.85-.08-4.14.81ZM78.22,82.68c-.94-1.13-1.37-2.49-1.95-3.83-.85-2.17-2.1-3.73-3.81-5.3-1.54-1.44-6.3-6.77-8.69-5.8-1.79.72-1.87,4.12-2.04,5.72-.21,1.92-.5,3.77-1.1,5.67.03.23.08.54.11.77.82.83,1.44,1.85,1.97,2.8,2.29,4.57,3.09,9.74,4.32,14.61.21.92-1.19,1.11-1.47.2-.54-2.21-.93-4.44-1.57-6.72-.66-2.51-1.41-5.01-2.6-7.36-.56-1.18-1.73-3.38-3.28-3.17-.92.21-1.67,1.02-2.2,1.72-1.33,1.76-2.5,3.58-3.65,5.47-2.3,3.87-3.89,8.26-3.25,12.9,3.82,1.44,6.93,3.37,9.1,7.09,3.51,5.97,5.02,16.24,11.52,19.91.05-.79.08-1.67.53-2.44.19-.34.7-.1.58.23-.24.51-.32,1.07-.32,1.7-.03.32-.08.56-.11.88.17.06.25.12.34.19.43-2.58,1.18-5.13,1.61-7.71.08-.56.96-.45.79.05-.41,2.74-1.07,5.35-1.81,7.97,0,0,.08-.01.09.07.24.04.34.19.36.34.08-.01.15-.02.15-.02.22-.11.36-.21.58-.4.1-.41.28-.83.38-1.24.29-.75.58-1.5,1.03-2.19.06-.17.38-.13.46-.06.18.13.21.37.08.54-.44.77-.8,1.61-1.08,2.44.58-.4,1.25-.65,1.89-1.13,0,0-.09-.07-.1-.14,0,0,.07-.09.06-.17,1.51-2.18,1.34-5.07,1.95-7.52.08-.56.88-.44.79.05-.57,2.68-.56,5.59-2.3,7.81.22-.11.37-.21.52-.23.56-.47,1.05-.93,1.53-1.47q.08-.01.15-.02l.07-.09c-.09-.07-.18-.13-.11-.22,1.83-2.7,2.98-5.77,4.82-8.39.32-.52,1.03.01.78.52,2.5-4.13,4.5-8.43,4.86-13.21.3-4.61-1.12-8.59-3.1-12.65-.99-1.99-2.03-3.82-3.73-5.31-1.08-.95-2.3-1.81-3.16-2.87ZM119.18,174.78c-.08.01-.15.02-.23.03-.27.35-.61.72-.88,1.07-.41.45-.82.9-1.22,1.43-.21.19-.44.22-.7.1-.1-.14-.04-.31-.06-.46-1.17,1.19-2.34,2.45-3.41,3.78-.53.7-1.06,1.41-1.6,2.11,1.39-.75,2.79-1.49,4-2.37,1.73-1.19,3.46-2.85,4.13-4.83-.04-.31-.09-.62-.04-.86ZM110.17,132.14c.67.85,1.27,1.79,1.87,2.66.67.85,1.28,1.87,2.23,2.45,1.04.64,2.2.48,3.32.64.64.07,1.21.23,1.79.38-.24-1.15-.55-2.29-.95-3.41-.11-.22.02-.4.17-.5.22-.11.47.01.5.17.49,1.27.84,2.64,1.1,3.94,0,0-.08.01-.07.09.42.18.91.35,1.34.6-.31-.51-.47-1.12-.56-1.74-.15-1.08,0-2.21-.22-3.28-.14-.45.63-.56.77-.11.22.99.13,2.03.11,3.06.03.78.22,1.55.7,2.19.24-1.69.22-3.5.14-5.22-.12-2.03-.34-4.13-.93-6.1-.17-.68-.44-1.44-.84-2.09-.21-.37-.57-.71-.91-.9-.58-.23-1.1,0-1.54.29-.51.31-1.02.61-1.44.99-.42.37-.7.65-1.23.8-1.05.38-1.83-.69-2.78-.16-.87.52-1.53,1.47-1.96,2.32-.38.68-.88,1.62-.62,2.37.11.22.05.39,0,.55ZM44.18,100.27c-.09-.07-.1-.14-.19-.21-2.46-.68-4.95-1.04-7.14-.9-2.11.14-4.14.81-6.26.87-1.66,0-3.3-.49-4.86-.98-4.25-1.06-10.29-1.48-14.23.8-5.32,3.1-2.07,12.9-.56,17.49,1.34,3.99,4.18,13.05,9.7,12.52.23-.03.25.12.35.27,2.48-.27,5-.3,7.39-.16,5.55.25,11.44,1.24,16.84,2.62,2.62.74,5.32,1.39,7.89,1.74-.84-.36-1.66-.64-2.5-.99-.41-.1-.17-.69.24-.51,1.32.45,2.59,1.06,3.93,1.66,2.22.09,4.39-.14,6.49-.9-.75-.29-1.51-.66-2.2-1.11-.43-.26.04-.87.39-.61.68.38,1.37.76,2.04,1.06.33.11.65.15.97.18.14-.1.3-.12.44-.22.22-.11.46-.06.63,0,.28-.28.56-.47.85-.67-.17-.06-.25-.12-.43-.26-.58-.23-1.1-.56-1.75-.7-.15.02-.33-.11-.29-.35.06-.17.19-.34.43-.3.65.15,1.23.38,1.84.77.25.12.52.32.86.51.43-.3.95-.53,1.48-.68-1.43-.67-3-1.16-4.42-1.75-1.69-.79-3.26-1.91-4.27-3.5-.29-.35.28-.83.56-.47,1.01,1.59,2.5,2.65,4.26,3.43,1.51.66,3.01,1.24,4.46,2.06.44-.22.9-.36,1.34-.58.67-.25,1.25-.65,1.91-.98-6.5-2.56-8.54-10.4-11.08-16.19-1.63-3.79-3.46-7.87-7.29-9.94-2.2-1.11-4.82-2.32-7.53-3.13-.14.1-.13.18-.3.12ZM86.19,38.55v-.08s-.09.01-.09.01c0,0,.08-.01.09.07ZM89.78,41.12c-.27-.28-.56-.63-.92-.97-.22.11-.45.14-.71.02-.03.32-.16.57-.38.68-.08.01-.15.02-.23.03q.01.08.09.07c.99,1.44,1.98,2.88,3.12,4.29.66.78,1.31,1.47,2.03,2.16-.13-.38-.34-.74-.47-1.12-.22-.99-.37-2.08-.81-2.96-.44-.88-1.09-1.58-1.72-2.2ZM64.58,135.25c-.23.03-.38.13-.6.24-.51.31-1.03.54-1.55.77-1.1,1.73-2.01,3.67-3.2,5.33-.27.35-.71.02-.52-.32,1.04-1.56,1.92-3.18,2.89-4.74-.07.09-.14.1-.22.11-3.93,6.3-8.91,12.43-10.73,19.7,2.12-3.45,4.14-7.04,6.69-10.23,2.75-3.46,4.75-7.2,7.24-10.86ZM119.22,172.8c-.11-.22-.05-.39.09-.49.13-.18.38-.13.56.08l.09.07q.01.08.09.07v.08c.09-.01.1.07.1.07.09.07.26.2.35.27-1.36-1.86-2.77-3.48-4.12-5.26-1.54-1.99-2.41-4.31-3.65-6.43-.2-.29.22-.66.43-.3,1.31,2.02,2.32,4.25,3.71,6.26,1.46,2,3.27,3.64,4.73,5.65.11.22-.03.32-.09.49q-.07.09-.06.17c.44-.22.79-.58,1.23-.8-.4-.58-.94-1.13-1.41-1.62-.56-.63-1.13-1.34-1.56-2.15-.22-.44.53-.7.75-.26.34.74.9,1.37,1.46,2,.29.35.56.63.85.99.11.22.31.51.43.81.44-.22.9-.36,1.35-.5-.03-.23-.05-.39,0-.55-.67-1.96-.87-3.98-1.15-5.99-.08-.54.77-.66.85-.12.19,1.39.39,2.78.66,4.16.11-.33.16-.57.27-.9.63-2.29.52-4.72.68-7.03.33-4.46,1.25-9.16.7-13.65-.46-3.32-3.35-5.92-6.23-7.41-2.64-1.44-5.65-.4-8-2.59-2.08-1.92-3.17-4.68-5.33-6.59-.63-.54-1.11-1.18-2.15-.73-.73.42-1.12,1.57-1.33,2.31-.4,1.63-.5,3.22-.59,4.81-.15,4.04.49,8.05,1.42,11.94.82,3.59,1.72,7.25,3.06,10.69,2.02,4.92,5.23,8.73,9.53,11.28-.48-.64-1.04-1.27-1.38-2.01-.31-.51.51-.86.82-.35.72,1.24,1.67,2.37,2.69,3.49q.09.07.17.06ZM26.42,239.31c-4.33-3.97-7.87-8.99-12.55-12.6,8.09,13.93,17.36,26.74,27.54,39.35,5.44,6.81,11.75,12.55,18.72,17.88,3.36,2.61,6.83,4.88,10.71,6.71,2.02.9,3.81,1.91,5.49,3.18-.8-4.06-1.61-8.21-2.34-12.28-.09-.07-.08.01-.17-.06-12.03-6.05-22.11-15.6-31.19-25.37-5.29-5.73-10.5-11.46-16.21-16.81ZM42.27,88.79c.17.69.49,1.27.74,1.95,1.11-1.1.32-3.35-1.02-3.96.02.71.11,1.32.28,2.01ZM88.11,38.75c-.14-.45.15-.65.54-.63.54-.63,1.1-1.18,1.63-1.88.13-.18.3-.12.39-.05,4.09-4.04,8.33-8.65,9.28-14.29.6-3.63-.16-7.39-1.34-10.77-.4-1.2-.8-2.33-1.56-3.25-.46-.49-.91-.9-1.52-1.29-.18-.13-1.39-.91-1.78-.93l-.07.09c.35,1.37.62,2.75.65,4.09-.03.95-.05,1.9-.15,2.86.1.14.2.29.08.54-.73,1.52.11,3.61.1,5.27.07,2.2-.27,4.29-.84,6.42-1.25,4.59-3.42,8.83-5.85,12.87.02.15.04.31.05.39.04.31.08.54.12.85.14-.1.13-.18.28-.28ZM41.21,89.09c-.31-1.06-.63-2.28-.32-3.42.03-.32.32-.52.63-.56,2.86.15,4.61,5.35,2.06,6.88.11.22.14.45.25.67.65,1.25,1.36,2.41,2.15,3.56.48.64,1.13,1.34,1.84,1.87-.02-.15-.04-.31-.05-.39-.08.01-.15.02-.17-.06-1.14-1.42-2.06-2.94-2.84-4.57-.13-.38.05-.79.35-.92.38-.13.72.06.84.36.56,1.18,1.27,2.34,1.91,3.52.1-.96.22-1.84.48-2.75-1.05-.72-1.76-1.88-2.23-3-.5-1.35-.95-2.86-.68-4.32.09-.49.7-.65,1.06-.31,1.01,1.04,1.47,2.63,1.59,4.03-.01.47-.38.68-.7.65.26.75.67,1.4,1.22,1.96.29-.75.58-1.5.94-2.34-.22.11-.46.06-.5-.17-.04-1.96-.07-3.93-.42-5.85-.05-.39-.11-.77-.25-1.23-.13.18-.42.37-.75.26-1.83-.69-3.1-2.48-2.02-4.29.12-.25.43-.3.67-.25,2.33.31,3.15,2.79,3.43,4.8.36,2,.25,4.06.13,6.05.6-1.34,1.36-2.71,2.13-3.92.12-.25.24-.51.38-.68-.28-2.01-.65-4.09-.85-6.11-.06-.46.63-.56.7-.1.25,1.78.5,3.56.68,5.42.84-1.3,1.68-2.68,2.72-3.69.76-.74,1.63-1.33,2.64-1.39.15-.02.33.11.49.09-.43-1.36-.62-2.75-.89-4.13-.14-.45.63-.56.7-.1.28,1.46.5,3,.92,4.36.18.13.43.26.61.39-.09-.07-.19-.21-.13-.38.06-.17.05-.24.02-.4-.11-.77-.22-1.55-.32-2.32-.05-.39.64-.48.7-.1v.08c.29-1.93.4-3.99.77-5.86.03-.32.15-.65.18-.97,0,0-.08.01-.16-.06-4.5-2.92-7.42-8.03-12.5-10-3.43-1.41-6.25-.15-9.05,1.81-1.94,1.37-3.75,3.04-6.23,3.39-2.16.3-4.23-.36-6.43-.37-3.23-.02-4.85,2.49-5.65,5.28-1.38,4.84-.75,9.88-1.49,14.79.53.95,1.05,1.9,1.58,2.85,1.89,3.36,3.33,6.94,5.29,10.3q.01.08.02.15c2.53.59,4.69.84,7.54.37.23-.03.55,0,.78-.03-.79-1.15-1.36-2.41-2-3.58-2.04.6-4.95-1.6-3.92-3.79.2-.26.42-.37.74-.34,1.89-.03,3.21,1.52,4.06,3.14.75,1.39,1.21,3.06,2.19,4.42,1.02-.06,2.12-.06,3.16.03-.2-.84-.53-1.58-.95-2.31-.01-.08-.18-.13-.19-.21-.15.02-.22.11-.31.04-1.41-.51-2.65-1.52-3.09-2.96-.1-.14-.03-.23.02-.4-.13-.93-.27-1.93-.62-2.75-.03-.23-.14-.45-.25-.67-.1-.14-.2-.29-.31-.51q-.09-.07-.18-.13c.02.15.04.31.06.46.11.77.37,1.52.84,2.09.49.72-.5,1.49-.99.85-.97-1.28-1.51-2.94-1.19-4.56.1-.41.47-.62.8-.51,2.29.63,2.53,3.43,2.73,5.45.82.2,1.51.66,2.15,1.28.08-.01.14-.1.22-.11,1.66,0,2.96,1.48,3.85,2.77.48.64.9,1.37,1.39,2.09.29.35.56.63.85.99.89.19,1.89.53,2.8.87-2.68-2.31-5.16-4.8-7.28-7.58-1.54-1.99-2.93-4.08-3.87-6.32-.67-1.4-1.47-3.18-1.36-4.7.18-1.52,1.94-1.92,2.82-.71,1.14,1.42.38,3.89.22,5.56q-.07.09-.13.18c1.88,3.91,4.71,7.23,7.73,10.27-.77-1-1.46-2-2.01-3.11-.73-1.32-1.33-2.73-1.76-4.17ZM86.22,35.94c.26-1.53.45-2.98.95-4.47.04-.24.34-.36.52-.23.17.06.27.28.23.52-.5,1.49-.77,2.94-1.03,4.48h.08c2.3-3.88,4.32-8.02,5.44-12.43.58-2.05.91-4.22.69-6.4-.02-.15-.04-.31-.06-.46-.19.34-.29.75-.57,1.02-.78,1.21-1.83,2.15-2.53,3.35-.83,1.38-1.33,2.87-1.93,4.29-.58,1.5-1.46,3.12-2.09,4.78.17.06.34.19.3.43-.31,1.7-.24,3.34-.33,5.01.17.06.25.12.33.11ZM88.71,20.46c1.34-2.24,3.19-3.68,3.69-6.35.53-2.99.42-6.05-.52-8.83-.32-1.14-.85-2.72-1.81-3.37-1.06-.8-2.7-.18-3.74.28-2.39.96-4.3,2.49-5.75,4.58-2.8,4.25-3.33,9.45-3.43,14.43-.05,4.74.27,9.89,2.6,14.14-1.11-3.47-1.99-6.97-2.03-10.59.01-.47.79-.58.77-.11.07,3.93,1.01,7.82,2.24,11.59.23-.03.55,0,.79.05.17.06.26.2.29.35.08-.01.14-.1.23-.03.23-.03.47.01.71-.02.07-.09.12-.25.27-.35-.76-.37-1.34-1.15-1.69-1.97-.48-1.19-.73-2.42-1.21-3.61-.14-.45.52-.78.74-.34.39,1.13.63,2.28,1.1,3.39.27.83.81,1.86,1.65,2.21,0,0,.08-.01.15-.02.07-.09.15-.02.23-.03-.83-2.56.1-4.98,1.18-7.41,1.29-2.62,2-5.48,3.54-7.98ZM56.35,282.82c-6.13-4.98-11.59-10.21-16.62-16.36-10.86-13.46-20.72-27.14-29.21-42.27-.32-.59.44-1.4,1.03-1.09,5.9,3.35,9.51,8.84,14.24,13.39,5.1,4.96,10.18,9.7,14.85,14.96,9.51,10.58,20.21,21.22,32.96,27.88-1.09-5.6-2.11-11.21-3.28-16.8-3.21-14.6-9.23-27.24-15.23-40.91-2.42-5.5-4.16-11.24-6.29-16.86-1.99-5.24-4.73-10.22-5.82-15.74-.22-.99.87-1.7,1.78-1.35,6.65,2.46,11.06,9.26,15.14,14.76,5.45,7.44,10.83,14.96,14.92,23.38,9.17,18.9,9.82,40.01,10.72,60.61.3-.12.6-.24.86-.04,12.33,7.03,20.4,20.33,27.13,32.4,2.42,4.39,5.26,9.51,7.43,14.88-.16-8.49-.55-16.95-1.55-25.32-2.32-19.54-6.8-38.69-12.11-57.58-5.21-18.74-7.91-38.7-14.55-57-.9-2.48-1.86-4.86-2.76-7.34-.26-.2-.37-.42-.43-.81-.01-.08.04-.24.03-.32-4.85-12.8-9.52-25.39-12.73-38.81-.16,1.13-.32,2.25-.56,3.31-.09.49-.52.78-1.02.61-2.91-1.09-4.94-4.36-6.4-6.91-1.26-2.27-2.55-4.77-3.09-7.45-2.49,3.66-4.55,7.49-7.31,10.87-3.22,4.07-5.66,8.59-8.52,12.93-.4.53-1.17.08-1.09-.48.96-8.41,6.45-15.4,11.07-22.35-1.29.34-2.59.68-3.82,1.4-2.26,1.34-4.03,3.32-6.29,4.66-4.58,2.77-9.66,2.53-14.76,2.13-5.5-.42-10.39-1.63-15.65-3.18-3.79-1.21-7.58-1.23-11.41-2.12-1.47-.35-3.68-.98-3.32-2.93.61-3,6.35-4.75,8.71-5.39,1.59-.46,3.29-.69,4.92-.92-3.85-1.04-6.3-6.22-7.8-10.18-.17-.06-.33-.11-.43-.26-1.12-1.81-2.85-2.91-4.18-4.54-1.31-1.47-2.13-3.41-2.77-5.21-1.38-3.67-2.6-7.36-2.98-11.25-.63-6.22.78-12.48,4.4-17.63,2.17-3.06,5.1-6.94,9.17-4.35,1.99,1.3,3.61,3.28,5.01,5.45.42-4.94-.13-9.99,1.66-14.65.81-2.08,2.1-4.15,4.29-4.85,2.34-.72,4.83.19,7.2.18,3.54-.02,5.96-3.04,8.88-4.7,2.19-1.25,4.63-1.83,7.09-1.14,5.81,1.55,9.41,7.04,14.06,10.42.39-.61.79-1.13,1.47-1.31,2.49-.82,5.26,2.1,6.86,3.46,3.21,2.71,5.75,5.11,7.47,8.97.11.22.3.43.41.65-.4-5.15-.56-10.25-.33-15.4.11-3.17.3-6.35.56-9.54.27-2.56.33-5.56,1.34-7.91.06-.17.29-.2.37-.21-.56-1.74-.83-3.67-.52-5.44.01-.47.18-.97.35-1.47-.76.19-1.6.38-2.37.49-1.3.26-2.64.29-3.99.24-1.41.04-2.99.02-4.47.15-1.08.7-2.2,1.17-3.41.95-.81-.12-.87-1.14-.2-1.47.87-.52,1.87-.73,2.95-.88.29-.2.58-.4.79-.58,1.07-.78,1.98-1.62,3.15-2.25,1.24-.72,2.65-.76,4.09-.65.72.06,1.45.19,2.16.25-3.04-4.86-3.15-11.3-2.99-16.92.22-5.23,1.45-11.08,5.23-15.07,2.6-2.81,8.81-6.35,11.41-1.82.49.72.69,1.56,1.04,2.38.96-.45,2.71.8,3.49,1.33,1.06.8,1.83,1.79,2.38,2.98,1.62,3.16,2.42,7.23,2.36,10.7-.13,8.13-6.47,14.06-11.61,19.66.01.08.1.14.11.22.36.34.64.62.92.97.64.62,1.21,1.33,1.64,2.14,1.04,1.83.82,4.22,1.94,6.03.2.29.18.76-.26.98-.67.25-1.39-.36-1.92-.76-.8-.68-1.55-1.52-2.3-2.36-1.13-1.34-2.36-2.82-3.28-4.35-.31,1.15-.79,2.24-1.37,3.19-.82,1.45-1.74,2.76-2.4,4.27-.18.42-.71.57-1.06.31-.44-.33-.81-.75-1.04-1.27-.08,2.22-.42,4.31-.6,6.47-.21,3.02-.35,5.96-.41,8.96-.19,6.02-.07,11.99.52,17.9.04.31-.09.49-.22.66,1.85,1.95,4.13,3.6,5.42,6.1,2.29,4.02,4.08,8.34,4.1,13.06.16,5.1-1.71,9.77-4.25,14.22-.5,4.88.55,9.62,1.54,14.44.23,1.07.38,2.15.61,3.23,3.41-4.97,6.2-10.4,8.59-15.85,2.1-4.71,4.04-9.47,5.31-14.53,1.16-4.65,2.1-9.28,3.51-13.88.75-2.55,1.86-6.48,4.19-8.39-.64.48-1.28.97-1.94,1.37-1.75,1.03-3.51,1.99-5.36,2.8-.36.21-.66-.22-.63-.54.64-2.22,2.28-4.02,3.96-5.52,1.55-1.32,3.28-2.5,5.12-3.39.02-.4.05-.79-.02-1.26-.47-1.67-1.39-3.2-2.01-4.84-1.09-2.76-1.83-5.81-1.94-8.87-.05-2.59.28-5.32,1.53-7.7,1.1-2.28,3.29-3.53,5.18-5.21,1.26-1.12,2.6-2.25,4.2-.98,1.95,1.54,2.89,4.33,3.21,6.65.44,2.62.11,5.34-.06,8.05-.22,1.84-.42,3.76-.88,5.56-.82,3.19-2.28,6.86-5.49,8.09-.26.43-.52.78-.7,1.2.09.07.15-.02.24.04,1.56,1.6,1.42,3.98,1.07,6-.48,2.19-1.38,4.21-2.03,6.35-.09.49-.74.34-.79-.05-.36-2-1.17-3.86-1.59-5.77-.04-.31,0-.55-.03-.78-4.12,7.19-4.79,15.96-6.99,23.98-1.34,5.07-3.48,10.1-5.73,14.9-2.41,5.3-5.07,10.56-8.52,15.21-.27.35-.56.47-.87.52.77,3.83,1.46,7.68,2.08,11.53,2.04,12.4,1.51,24.46,1.75,36.95.02.15-.12.25-.18.42,2.12,5.06,4.17,10.14,5.71,15.52,3.07,10.76,4.69,21.81,7.47,32.69,2.58,10.04,5.77,19.92,8.28,30.05,1.71,6.62,3.1,13.2,4.32,19.73,4.06-17.27,6.17-34.9,7.57-52.59.77-9.17.93-18.25-1.12-27.27-1.22-5.35-3.18-11.54-2.23-17.18-.09-.07-.17-.06-.18-.13.14-2.38-.82-4.77-.45-7.19-.11-.22-.29-.35-.47-.56-.21-.37-.35-.82-.64-1.17-.89,1.54-2.2,2.91-3.62,3.97-2.22,1.57-4.65,2.85-7.18,3.91-.66.33-1.31-.37-1.01-1.04.28-.83.94-1.71,1.48-2.41,1.52-2.1,3.22-4.07,5.02-5.82.76-.74,1.53-1.47,2.48-2,.14-.1.38-.13.52-.23-6.52-3.27-10.71-8.99-12.88-16.1-2.38-8.02-5.01-16.72-3.11-25.18.38-1.79,2.21-5.04,4.54-4.18.98.26,1.93,1.39,2.66,2.15.06-.72.28-1.38.59-1.97.56-1.1,1.34-2.24,2.44-2.86.43-.3.95-.53,1.5-.52.56.08,1.2.7,1.8.46.22-.11.42-.37.63-.56.2-.26.5-.38.79-.58.51-.31,1.08-.7,1.68-.94,2.25-.79,3.68,1.54,4.17,3.36.14.45.21.92.35,1.37,1.41-1.77,3.73-3.2,5.86-3.73,2.66-.69,4.39.41,6.43,2.02,1.33,1.08,3.15,2.24,4.94,2.07,1.4-.12,2.54-.98,3.97-.32,2.37,1.17,1.15,4.33,2.79,5.92.09.07.11.22.12.3.42-.37.75-.81,1.26-1.12.5-.38,1.35.05,1.29.77-1.32,9.17-2.53,18.64-7.23,26.78-2.34,4.11-5.35,7.44-9.53,9.68-.52.23-1.05.38-1.49.6,1.47.9,2.93,1.8,4.21,3.04,1.27,1.16,3,2.89,2.72,4.82-.1.41-.52.78-.93.68-.49-.09-.97-.18-1.47-.35-.09-.07-.1-.14-.19-.21-.08.01-.15.02-.23.03-1.81-.54-3.62-1.07-5.25-2.03-.44-.33-.96-.65-1.41-1.06.26.75.51,1.43.62,2.2.32,2.32.09,4.64-.47,6.84.01.08-.07.09-.06.17-.07.09-.13.18-.2.26-.08.01-.07.09-.14.1-.14.1-.22.11-.39.05-.08.01-.15.02-.23.03q-.09-.07-.1-.14c-.15.02-.24-.04-.34-.19-.69-.46-1.39-.91-2.03-1.53-.81-.75-1.64-1.58-2.46-2.42.11.22.15.53.2.84.09.62.09,1.25.1,1.88.1.14.2.29.15.53-.88,7.85,2.35,15.2,3.8,22.8,1.58,7.98,1.12,16.55.43,24.61-1.61,18.98-3.8,37.8-8.49,56.19-.11.33-.31.59-.6.79,2.9,16.85,4.29,33.68,4.53,50.67,1.22,4.8,1.66,9.7.32,14.22-.04.24-.27.35-.41.45-.18,7.2-.52,14.41-1.16,21.68-2.51,31.24-4.15,62.44-2.88,93.71l-.07.09c-.89,3.2-1.47,6.43-2.04,9.66-.88-17.06-.9-34.23-.91-51.25-.03-4.17.11-8.29.32-12.42-2.52-19.27-11.61-38.1-17.71-56.48-2.14-6.32-4.28-12.64-6.26-18.91-.01-.08-.18-.13-.19-.21-8.17-13.99-12.27-29.26-15.46-44.82-3.05-2.65-6.91-3.77-10.33-5.73-3.59-2.02-6.86-4.56-9.97-7.12ZM84.79,39.29c-.53-.4-1.19-.62-1.92-.76.04.31-.15.65-.61.72-.31.04-.53.15-.84.2-.63,1.11-.74,2.62-.66,3.72.08,1.17.23,2.25.63,3.38.23.52.54,1.03.84,1.54.5-.94,1-1.87,1.5-2.81.7-1.2,1.48-2.41,1.76-3.79.11-.88.08-1.67-.7-2.19Z"/>
    </g>
    <path class="cls-1" d="M108.43,142.27c.03-.3-.42-.36-.46-.06-.34,2.5.61,4.91,1.21,7.29.09.36.68.29.59-.08-.58-2.33-1.61-4.7-1.33-7.14Z"/>
    <path class="cls-1" d="M134.21,160.62c-.76,1.51-1.56,3.01-2.2,4.57-.13.32.35.52.5.21.7-1.54,1.59-2.99,2.35-4.51.2-.4-.45-.66-.64-.27Z"/>
    <path class="cls-1" d="M138.09,156.98c-.47,1.89-1.1,3.75-1.87,5.54-.43,1.01-.91,2.01-1.5,2.94-.44.69-.99,1.46-1.71,1.87-.27.15-.11.58.2.45.82-.34,1.43-1.02,1.94-1.73.68-.93,1.21-1.96,1.69-3.01.87-1.91,1.59-3.91,2.09-5.95.13-.52-.7-.63-.83-.11Z"/>
    <path class="cls-1" d="M28.84,126.95c-.28-.13-.43.29-.18.43.87.49,1.75.98,2.68,1.37.95.4,1.93.7,2.94.91.47.1.57-.65.1-.74-1.94-.4-3.73-1.16-5.54-1.97Z"/>
    <path class="cls-1" d="M51.58,115.19c1.49,1.92,3.29,3.84,4.06,6.19.12.36.63.12.54-.23-.69-2.45-2.48-4.46-4.03-6.41-.29-.36-.85.08-.57.45Z"/>
    <path class="cls-1" d="M51.53,74.36c-.16-1.3-.31-2.6-.48-3.89-.06-.46-.77-.36-.71.1.19,1.29.4,2.59.6,3.88.06.38.64.3.59-.08Z"/>
    <path class="cls-1" d="M44.91,82.35c-.86-2.07-1.53-4.21-2.39-6.29-.15-.36-.71-.12-.56.24.86,2.07,1.59,4.19,2.52,6.23.12.27.54.09.42-.18Z"/>
    <path class="cls-1" d="M44.35,139.4c-3.43.08-6.9,0-10.25-.81-.3-.07-.35.4-.06.47,3.37.87,6.85,1.01,10.32,1.01,3.31,0,6.15-1.79,9.39-2.12.37-.04.28-.57-.08-.56-3.22.07-6.07,1.92-9.32,2Z"/>
    <path class="cls-1" d="M103.23,353.22c2.45,8.98,7.11,17.21,10.58,25.81.18.45.85.16.69-.3-2.96-8.8-7.9-16.79-10.58-25.71-.12-.39-.8-.2-.69.19Z"/>
    <path class="cls-1" d="M27.37,245.16c4.82,3.67,7.8,9.07,11.85,13.48.34.37.96-.12.61-.48-4.12-4.41-7.19-9.82-12.1-13.48-.32-.23-.68.25-.37.49Z"/>
    <path class="cls-1" d="M50.57,269.33c-3.26-2.56-6.66-5.5-8.14-9.5-.17-.46-.84-.16-.69.3,1.28,4,4.49,6.98,7.67,9.56,3.31,2.7,6.89,5.04,9.96,8.02.38.37.99-.27.64-.66-2.7-3.01-6.28-5.24-9.44-7.73Z"/>
    <path class="cls-1" d="M66.51,282.22c-.8-.59-1.61-1.18-2.34-1.85-.27-.25-.68.18-.45.46,1.37,1.7,3.12,2.97,4.96,4.12,1.8,1.12,3.7,2.21,5.76,2.77.54.15.9-.62.34-.83-1.92-.75-3.79-1.72-5.54-2.81-.94-.58-1.85-1.2-2.73-1.86Z"/>
    <path class="cls-1" d="M73.28,243.06c-3.21-9.71-6.91-19.25-11.94-28.17-.19-.34-.75-.11-.56.24,4.81,9.01,8.12,18.75,11.47,28.38.24.69,1.26.24,1.03-.45Z"/>
    <path class="cls-1" d="M80.15,275.66c-1.48-9.66-2-19.69-5.7-28.84-.21-.53-.99-.18-.8.35,3.22,9.3,3.36,19.11,5.41,28.64.15.68,1.2.56,1.09-.15Z"/>
  </g>
</svg>