<?xml version="1.0" encoding="UTF-8"?>
<svg id="_レイヤー_1" data-name="レイヤー 1" xmlns="http://www.w3.org/2000/svg" viewBox="0 0 150.53 456.21">
  <defs>
    <style>
      .cls-1 {
        fill: #006837;
      }
    </style>
  </defs>
  <path class="cls-1" d="M.05,65.78c.38,1.37,2.77,1.62,3.87,1.81,7.94,1.4,15.89,2.81,23.84,4.2,5.48.96,11.6,1.99,16.84,4.43,2.39,1.86,4.71,3.8,6.87,5.94,3.12,3.08,6.48,6.41,9.6,9.99-6.06-3.8-13.52-5.25-20.25-7.38-7.72-2.43-15.38-4.2-23.44-2.38-1.39.31-3.58.88-3.69,2.64-.1,1.77,1.58,2.61,3.05,2.83,2.61.39,5.23-.26,7.84-.36,4.42-.16,8.97.36,13.36.88,4.32.51,8.66,1.13,12.96,1.84,3.95.65,7.84,1.63,11.15,3.98.25.18.48.07.62-.11,2.37,2.88,4.54,5.9,6.28,9.1.14.52.27,1.04.41,1.56.82,3.03,1.68,6.06,2.61,9.08-.03-.04-.06-.09-.09-.13-1.55-1.98-2.95-3.98-4.3-6.09-2.23-3.49-4.71-6.41-7.72-9.24-2.18-2.05-4.37-4.15-6.91-5.75-1.79-1.13-4.31-2.37-6.21-.8-.17.14-.17.42-.08.59,1.78,3.16,4.73,5.42,7.52,7.65,3.06,2.45,5.86,5.15,8.54,8.01,2.81,2.99,5.23,6.33,8.07,9.29.9.94,1.82,1.84,2.68,2.81.29.33.63.72.97,1.12.21.6.38,1.21.6,1.81.8,2.2,1.65,4.4,2.42,6.63.4,2.86.83,5.72,1.26,8.58,0,.01,0,.03,0,.04-3.22-8.88-12.37-14.34-18.63-21.07-3.17-3.41-5.88-7.16-8.85-10.73-1.01-1.21-3.82-5.13-5.88-4.3-3.29,1.34,3.9,8.53,4.79,9.5,4.09,4.47,8.57,8.55,12.86,12.82,3.3,3.29,6.34,6.94,9.23,10.59,3.52,4.43,7.75,9.74,7.56,15.72-.01.36.25.48.52.45,1.43,13.73,2.05,27.48,2.68,41.31-1.9-4.53-3.78-8.99-4.79-13.87-1.17-5.63-1.98-11.32-3.24-16.94-.85-3.77-1.59-7.59-2.55-11.33-.52-2.04-1.22-4.77-2.97-6.15-.96-.75-2.65-1.24-3.21.15-.33.83.3,2.74.41,3.46.31,2.2.66,4.35,1.24,6.49,2.55,9.45,3.93,18.98,7.61,28.11,1.32,3.28,2.68,6.48,4.42,9.56,1.25,2.2,2.81,4.77,3.39,7.41.04.9.08,1.8.11,2.7-.04.32.04.63-.05.95-.05.19,0,.34.11.46.21,5.14.48,10.28,1.02,15.4-3.68-8.21-9.3-15.69-15.49-21.82-.39-.38-.8-.72-1.19-1.09-1.55-4.7-3.82-9.13-5.81-13.65-2.18-4.95-3.82-10.12-5.53-15.25-1.28-3.87-2.39-7.73-2.93-11.78-.32-2.39-.52-5.43-2.08-7.41-.73-.93-2.1-1.81-3.09-.77-1.13,1.18-.77,3.82-.68,5.26.49,7.48,4.22,14.81,7.27,21.56,1.92,4.26,4.11,8.38,6.2,12.55.83,1.65,1.39,3.99,2.47,5.72-4.21-3.53-8.67-6.58-13.5-9.46-1.3-1.65-2.27-3.45-3.33-5.29-1.23-2.15-2.8-4.09-4.02-6.26-2.37-4.18-4.4-8.65-5.48-13.35-1.48-6.44-2.05-15.07-8.08-19.12-.26-.18-.64,0-.72.29-.69,2.68.23,5.58,1.06,8.12,1.04,3.18,2.16,6.31,3.18,9.49.15.46.32.9.47,1.35-1.55-3.16-3.23-6.24-5.15-9.1-1.72-2.56-3.74-4.9-5.65-7.32-1.37-1.74-2.85-3.58-5.14-4-.29-.05-.67.13-.64.49.36,3.97,3.12,7.14,5.37,10.24,2.79,3.85,4.7,8.27,6.59,12.62,1.34,3.09,2.57,6.24,4.2,9.19.3.55.63,1.13.99,1.72-1.4-1.18-2.73-2.43-3.83-3.92-.02-.03-.05-.02-.07-.04-.63-1.36-1.54-2.6-2.5-3.74-1.55-1.84-3.31-3.46-5-5.16-3.42-3.43-6.8-8.02-11.71-9.34-.17-.04-.41,0-.53.14-1.02,1.29-.59,2.83.19,4.13,1.91,3.22,5.2,5.67,8.09,7.93,4.36,3.41,8.75,6.74,12.43,10.89.17.2.41.17.61.06,3.46,3.22,7.83,5.62,11.68,8.15-5.6-1.15-11.72-.61-17.25-.41-2.1.08-4.11.36-6.11.72-.02-.12-.09-.23-.23-.31-1.75-.91-3.26-2.23-4.82-3.43-.98-.76-2-1.45-3.01-2.18-1.07-.78-2.13-1.59-3.13-2.46-.71-.62-1.78-1.41-2.13-2.32-.3-.75.42-.69.98-.6,1.04.17,2.07.61,3.03,1.03,1.85.82,3.59,1.8,5.29,2.89,3.27,2.09,6.63,4.1,9.61,6.61.31.26.76-.17.45-.45-3.29-3.01-7.18-5.47-10.99-7.77-1.93-1.17-4.03-2.26-6.19-2.93-.75-.23-1.77-.54-2.53-.18-.67.32-.78,1.08-.52,1.72.4,1.01,1.39,1.84,2.17,2.53,1.05.94,2.18,1.81,3.31,2.65,1.11.82,2.24,1.6,3.33,2.45,1.34,1.06,2.69,2.15,4.18,3-1.03.2-2.06.38-3.11.61-2.46.53-5.27.82-7.26,2.53-.87.75-2.42,2.54-1.4,3.72.84.97,2.8.52,3.86.36,3.84-.57,7.67-1.06,11.52-1.52,1.42-.17,2.82-.45,4.21-.73-.04.16-.07.33.1.44.61.36,1.25.64,1.89.93-3.66.37-7.48.74-10.64,2.54-1.06.6-2.93,1.94-2.69,3.39.2,1.26,1.76,1.48,2.81,1.55,2.26.16,4.37-.36,6.42-1.29,3.33-1.53,6.81-2.53,10.36-3.42.04.06.06.14.14.18,4.11,2.19,8.23,2.35,12.78,2.26,4.95-.1,9.83,1,14.78.79.7.58,1.43,1.1,2.11,1.73,9.7,8.96,16.88,19.49,21.06,31.74.14.99.27,1.97.41,2.96-2.19-6.3-5.88-12.15-10.31-16.99-2.93-3.21-5.99-6.32-9.42-8.98-1.9-1.47-4.11-2.89-6.44-3.54-1.22-.34-3.23-.4-3.36,1.3-.12,1.53,1.74,2.93,2.77,3.75,3.79,3.04,8.46,4.78,12,8.13,3.02,2.86,5.42,6.29,8.19,9.39,3.11,3.48,5.63,7.17,7.09,11.62.06.21.12.42.17.64.71,5.74,1.23,11.49,1.13,17.36,0,.1-.02.19-.02.28-3.06-4.33-5.89-9.05-8.02-13.88-1.01-2.3-1.78-4.69-2.8-6.99-.44-.99-1.2-3.17-2.54-3.28-1.16-.1-1.64,1.44-1.74,2.35-.18,1.52.4,3.07,1.03,4.42,1.73,3.73,4.47,7.12,6.93,10.38,3.08,4.09,7.71,8.12,6.62,13.76-.03.17.01.32.09.43-.44,6.68-1.14,13.31-2.27,19.98-.29,1.72-.5,3.46-.7,5.2,0,0,0-.01,0-.02,0-.01,0-.02-.01-.03-.49-5-2.21-9.83-3.79-14.57-1.71-5.08-3.17-10.14-4.2-15.41-.81-4.11-1.11-8.39-2.27-12.42-.52-1.81-1.33-4.91-3.5-5.37-.21-.04-.44.03-.55.22-1.88,3.53-.39,7.45.37,11.09,1.15,5.52,2.09,11.05,3.84,16.42,1.55,4.74,4.29,8.6,6.36,13.07,2.09,4.51,1.66,9.43,3.04,14.08-.39,4.1-.84,8.19-1.69,12.2-.61,1.7-.61,3.51-.77,5.28-.02.19.17.32.35.35-.93,4.41-2.06,8.82-2.76,13.14-.32,1.99-.61,3.99-.93,5.98-.7-9.86-3.62-19.81-7.48-28.62.15-.09.27-.23.29-.45.34-4.84.77-9.7-.04-14.53-.84-4.99-2.53-9.71-3.03-14.77-.42-4.29-1.24-8.5-1.84-12.76-.27-1.89-.09-4.71-1.17-6.36-.57-.87-1.6-1.23-2.4-.41-1.03,1.07-.82,3.5-.79,4.82.15,5.97,1.47,12.23,2.99,17.96,1.11,4.2,2.63,8.27,3.67,12.5.94,3.8,1.31,7.6,1.59,11.45-.02.26-.04.51-.05.77-.29-.63-.56-1.29-.86-1.91-3.74-7.75-9.17-14.44-12.96-22.13-2.78-5.65-6.05-13.12-5.37-19.59.04-.07.13-.09.11-.19-.45-1.69.59-3.44,1.2-4.96.67-1.66,1.2-3.38,1.8-5.07,1.25-3.54,2.39-7.14,3.49-10.73.83-2.71,1.52-5.48,1.82-8.31.15-1.44.31-3.08-.13-4.49-.32-1.01-1.06-1.69-2.15-1.35-1.34.42-1.96,2.02-2.4,3.21-.74,2.01-1.1,4.13-1.62,6.2-.72,2.88-1.66,5.68-2.28,8.59-1.16,5.41-2.19,11.1-1.96,16.69-.02.06-.07.08-.08.14-.03.22.02.46,0,.68-1.26-5.34-3.17-10.44-5.69-15.3,1.08-1.81,1.42-4.05,1.66-6.1.24-2.07.17-4.11.1-6.18-.13-3.82-.03-8.81-2.97-11.7-.22-.21-.51-.18-.73,0-1.75,1.43-1.46,5.05-1.45,7.04,0,1.29.08,2.58.05,3.87-.04,2.1-.39,4.17-.69,6.24-1.28-1.98-2.57-3.95-3.96-5.85-1.37-1.88-2.86-3.9-4.83-5.18-1.03-.68-2.97-1.4-3.88-.12-.89,1.26.3,3.27.92,4.38,2.78,4.97,6.36,9.67,10.15,13.97-.2-.18-.53-.09-.48.24.72,4.83,1.88,9.75,4.02,14.17,1.02,2.12,2.43,3.68,3.96,5.44,1.59,1.83,3.05,3.77,4.84,5.42.22.2.48.15.66.01.02.02.03.04.05.06.71,2.04,1.5,4.04,2.29,5.9.68,1.6,1.47,3.13,2.29,4.63-.88-.85-1.85-1.64-2.76-2.43-2-1.74-3.96-3.51-6.04-5.15-1.41-1.11-2.9-2.1-4.36-3.12.02-.05.1-.08.07-.14-1.64-4.31-3.83-8.37-5.98-12.43-1.55-2.92-3.02-6.15-5.68-8.25-1.25-.98-4.23-2.61-4.42.18-.19,2.99,2.24,5.89,4.01,8.04,1.08,1.31,2.2,2.56,3.08,4.03.69,1.16,1.27,2.38,1.87,3.59-3.22-2.22-6.6-4.35-10.23-5.56-1.24-.42-3.27-.98-4.33.17-1.06,1.16.3,2.51,1.16,3.29,3.75,3.36,8.55,5.32,12.66,8.17,1.01.7,2.02,1.38,3.03,2.06-.18.12-.31.3-.23.57.68,2.28,2.41,4.19,4.03,5.86,1.78,1.84,3.74,3.54,5.7,5.19.7.59,1.46,1.12,2.19,1.67-2.65-.98-5.57-1.45-8.28-1.93-2.24-.4-6.32-1.43-8.18.39-.18.18-.15.43,0,.61,3.59,4.48,9.82,5.35,15.09,6.5,3.46.76,6.73,1.92,10.01,3.25,1.5.61,2.99,1.19,4.52,1.7,1.6.53,3.24,1.14,4.33,2.49,7.24,13.93,11.75,30.67,10.19,46.26-.02.1-.03.21-.05.31-1.16,8.07-2.37,16.13-3.69,24.18-.45-1.49-.5-3.31-.57-4.45-.11-1.84-.21-3.66-.36-5.5-.44-5.58-.58-11.16-1.36-16.71-1.01-7.27-2.84-16.79-10.24-20.25-.28-.13-.61-.03-.71.29-.93,3.13.18,6.33,1.44,9.21,1.71,3.9,3.75,7.52,4.99,11.63,1.47,4.88,2.1,9.91,2.93,14.92.39,2.36.77,4.75,1.38,7.06.55,2.1,1.46,4.08,2.08,6.16-.71,4.22-1.37,8.44-2.22,12.64-2.7,13.41-5.99,26.85-10.55,39.76-3.98,11.27-10.2,21.79-11.51,33.86-.13,1.18,1.89,1.44,2.06.28,1.97-13.43,8.99-25.26,13.09-38.06,4.07-12.71,7.26-25.69,9.76-38.8.87-4.58,1.55-9.18,2.26-13.78,3.84-3.87,7.49-7.94,11.49-11.63,3.92-3.61,7.91-6.85,11.22-11.08,4.36-5.57,8.5-12.19,9.86-19.24.38-1.98,1.05-4.81.08-6.72-.64-1.25-2.06-1.52-3.17-.64-1.88,1.5-2.27,5.08-2.74,7.24-.89,4.06-2.56,7.85-4.39,11.57-2.36,4.83-5.16,9.46-8.54,13.64-.72.89-1.53,1.7-2.3,2.56,1.28-3.52,1.78-7.23,1.98-10.98.14-2.6-.04-5.23.46-7.8.43-2.22,1.13-4.27.93-6.56-.02-.25-.19-.45-.46-.46-2.13-.04-2.82,2.95-3.19,4.54-.81,3.47-1.03,7.09-1.29,10.64-.21,2.86-.09,6-.85,8.78-1.45,5.31-5.5,9.57-8.74,13.95,1.22-8.13,2.36-16.28,3.54-24.42.57-3.9,1.17-7.8,1.77-11.7,0-.01.02,0,.03-.01.34-1.03.81-2,1.2-3.01.27-.71.47-1.48.55-2.25,2.38-5.81,6.04-11.04,8.68-16.71.37-.49.78-.94,1.12-1.45.3-.46.56-.94.81-1.43.11-.08.23-.12.3-.26,1.29-2.97,3.05-5.67,4.91-8.31.66-.93,1.24-1.9,1.85-2.85,1.3.19,2.61.47,3.92.28,1.33-.2,2.57-.86,3.72-1.53,1.13-.65,2.21-1.38,3.37-1.98,1.4-.72,2.91-1.16,4.34-1.79,2.07-.91,3.4-2.76,5.37-3.79,1.38-.72,3.25-.52,4.47-1.57.86-.74,1.15-1.95.18-2.71-1.03-.81-2.61-.8-3.83-.57-4.04.74-7.64,3.56-10.8,6.02-2.79,2.18-6.06,5.41-9.75,6.1.76-1.2,1.55-2.39,2.33-3.59,2.11-3.27,4.62-6.24,7.02-9.29,0,0,.01,0,.02,0,.73-.34,1.46-.67,2.19-1.02.07.13.18.23.38.21,1.01-.1,1.84-.51,2.89-.42.86.08,1.69.25,2.56.3,2.18.12,4.29.24,6.43.71,3.83.83,7.55,2.08,11.45,2.54,3.49.4,7.1.73,10.6.37,1.1-.12,2.72-.24,3.51-1.15.71-.83.32-1.73-.55-2.23-1.51-.87-3.65-.74-5.33-.9-3.43-.32-6.66-1.76-10.05-2.33-2.88-.48-5.8-.68-8.71-.84,1.27-.14,2.55-.26,3.81-.43,2.83-.38,5.38-1.34,8.13-2.01,1.49-.36,4.85-.61,5.55-2.34.54-1.33-1.2-1.98-2.18-2.19-2.5-.54-4.91.26-7.33.79-4.59,1.01-9.25,1.8-13.87,2.62-1.09.19-2.19.41-3.28.67.9-.63,1.85-1.21,2.82-1.75,2.58-1.44,4.92-2.99,7.31-4.72,1.36-.98,2.76-1.94,4.27-2.66,1.02-.49,2.1-.86,3.12-1.35,2.03-.98,3.54-2.41,3.72-4.76.02-.24-.19-.48-.41-.53-4.98-1.27-9.83,2.23-13.57,5.1-3.57,2.74-5.54,6.89-8.54,10.14-.56.43-1.05.91-1.53,1.42-.24.1-.48.17-.71.3-.14-.04-.29-.02-.43.08-1.41.99-3.28,1-4.79,1.78-1.69.88-2.96,2.44-3.95,4.02-2.3,3.68-4.03,7.9-4.96,12.13-.05.22.09.37.26.42-1.05,1.57-2.1,3.13-3.18,4.68-.73,1.04-1.42,2.11-2.08,3.19,1.35-6.99,1.45-14.34,4.74-20.75.12-.24.04-.45-.1-.61.07-.27.13-.55.19-.82.46-.9.89-1.8,1.2-2.78.07-.05.15-.1.18-.2,3.1-8.13,8.21-14.45,14.13-20.71,2.46-2.6,4.89-5.24,7.34-7.86,2.31-2.46,4.21-5.28,6.48-7.74.97-1.05,3-2.81,1.7-4.37-1.28-1.54-4.11-.03-5.34.81-2.39,1.65-4.32,4.05-6.3,6.16-2.32,2.48-4.39,5.18-6.44,7.88,2.52-5,3.29-11.04,3.92-16.46.41-3.57.24-7.12,0-10.69-.16-2.54-.2-5.3-1.69-7.47-.18-.26-.51-.31-.75-.1-2.03,1.8-1.99,4.62-2.26,7.11-.5,4.59-.83,9.24-1.52,13.81-.61,4.08-1.2,8.05-1.48,12.16-.14,2-.71,3.82-1.24,5.73-.48,1.69-.88,3.36-1.87,4.84-.19.28-.01.57.24.71-.03.05-.07.1-.1.15-.98,1.69-1.96,3.42-2.84,5.19.05-.31.09-.64.15-.94.87-4.62,1.75-9.41,1.37-14.13-.11-1.31-1.84-9.92-4.59-7.56-1.46,1.25-1.3,4.88-1.28,6.57.03,3.51.42,7.06.73,10.55.32,3.58.7,7.18.49,10.78-.19,3.36-.91,6.65-1.71,9.91-.12.19-.18.41-.31.6-.06.09.02.14.05.21-3.59,7-3.63,15.08-5.72,22.57-1.77,6.37-6.06,11.64-9,17.48.63-3.29,1.39-6.56,1.78-9.87,2.06-8.03,1.93-16.49,3.33-24.66,1.47-8.56,2.5-16.94,2.76-25.63.08-2.56.05-5.12-.03-7.67.11-.06.25-.08.25-.24.03-2.45.08-4.92.1-7.38,0-.05.03-.09.02-.14-.02-.06-.01-.13-.03-.19,0-1.67-.02-3.34-.09-5.01.2-1.34.49-2.68.79-4.03.31-1.42.58-2.84.86-4.27,5.63-4.69,9.8-11.04,13.06-17.56,2.12-1.85,4.1-3.84,5.73-6.16,2.01-2.85,3.47-5.98,4.8-9.19,1.53-3.71,3.6-7.18,4.95-10.96.59-1.64,2.27-6.13.59-7.67-1.1-1.01-2.46.36-3.11,1.23-1.79,2.41-2.26,5.97-3.07,8.79-1.08,3.77-2.23,7.58-4.14,11.03-1.55,2.8-3.7,4.94-5.94,7.08.67-2.91,3.35-5.36,2.24-8.56-.1-.29-.39-.4-.67-.27-2.07.97-3.19,3.49-3.99,5.49-.91,2.25-1.58,4.63-1.93,7.03-.04.26.12.44.31.54-1.9,2.2-3.62,4.54-5.24,6.95,1.81-4.71,3.91-9.32,5.83-13.96,1.95-4.71,4.22-9.29,6.07-14.04.5-1.27,1.01-2.72,1.44-4.2,1.81-3.42,3.09-6.89,3.39-10.81.26.12.58.1.63-.23.51-3.07,1.58-5.94,2.69-8.8.08-.04.17-.08.22-.19,2.22-4.61,5.57-8.62,8.53-12.75,1.39-1.94,2.66-3.96,4.07-5.9.96-1.32,2.24-2.65,2.85-4.18.78-1.98-.8-3.58-2.62-2.32-1.84,1.28-3.06,3.43-4.31,5.24-1.35,1.96-2.77,3.79-3.97,5.77.06-.21.14-.41.2-.62.98-3.6,1.57-7.28,2.36-10.92.41-1.91.91-3.92.77-5.89-.19-2.62-2.67-3.68-3.36-.71-.37,1.62-.3,3.32-.35,4.97-.09,3.17-1.31,6.55-2.18,9.59-1.06,3.68-2.39,7.26-3.61,10.89-.88,2.61-1.39,5.27-1.99,7.93-.2-3.69-.52-7.37-.92-10.97-.44-3.96-.98-7.7-.42-11.66.33-2.35.96-5.17.38-7.51-.28-1.12-1.03-1.93-2.2-1.28-1.26.69-1.65,2.77-1.92,4.01-1.11,5.09-1.06,10.48-1.07,15.66,0,3-.07,5.97.18,8.96.23,2.78.48,5.59.85,8.36.3,2.28.87,4.5.88,6.81,0,.15.12.2.22.22.86,4.56-2.4,10.25-4.23,14.06-.04.09-.08.19-.12.28.39-1.97.74-3.94.75-5.93.01-4.15-1.44-8.13-2.35-12.13-.86-3.77-1.6-7.57-3.32-11.06-.85-1.73-2.22-4.72-4.39-5.04-.31-.05-.6.12-.61.47-.1,3.38.97,6.62,2.13,9.75,1.3,3.51,2.61,6.99,3.61,10.61,1.08,3.92,2.13,8.13,1.72,12.22-.39,3.86-1.76,7.61-2.67,11.37-.07.29.1.49.32.58-.75,1.72-1.55,3.41-2.29,5.14-.69,1.6-1.37,3.19-2.03,4.79.05-4.2.03-8.4-.57-12.56-.28-1.95-.63-3.92-1.27-5.79-.41-1.21-.95-2.57-2.08-3.28-.19-.12-.53-.06-.63.17-1.75,3.86-.49,8.33.46,12.24.6,2.47,1.1,4.88,1.16,7.44.07,2.9-.27,5.81-.09,8.71.01.2.19.24.33.31-.96,2.86-1.79,5.77-2.33,8.79-.21,1.2-.56,2.52-.9,3.88-1.11-10.09-2.55-20.17-3.04-30.31-.54-11.41-.89-22.85-1.65-34.26,0-.02.04-.01.04-.04.17-5.35,2.26-10.33,3.81-15.38,1.49-4.86,3.28-9.6,4.98-14.39,1.18-3.31,2.04-6.75,3.33-10,.81-2.04,1.89-4.31,1.87-6.56-.02-1.36-.71-2.65-2.25-2.58-1.86.08-2.77,2.22-3.39,3.67-1.23,2.89-2.93,5.52-3.94,8.52-1.16,3.43-1.74,7.02-2.13,10.61-.68,6.22-.83,12.51-1.93,18.66-.27.96-.51,1.92-.7,2.89-.44-5.58-.97-11.15-1.76-16.69-.13-.91-.29-1.84-.43-2.75.08-.47.13-.95.15-1.46.02-.52.08-1.04.1-1.55,1.21-6.42,2.94-12.65,4.83-18.95,1.35-4.49,4.67-10.02,3.07-14.8-.43-1.29-1.32-2.75-2.88-2.5-1.76.27-2.65,2.15-3.14,3.65-.67,2.07-.84,4.26-1.22,6.39-.59,3.35-.83,6.68-.8,10.08.03,3.65.03,7.2-.31,10.84-.09.91-.13,1.83-.22,2.75-.08.39-.13.79-.21,1.18-.13-2.31-.51-4.58-1.14-6.8-.77-5.21-1.37-10.43-1.3-15.66.06-4.38.51-8.73,1.03-13.08.09-.04.17-.08.23-.19,1.15-2.37,1.77-4.93,2.78-7.36.76-1.82,1.54-3.62,2.27-5.45.18.22.52.34.72.08.9-1.13,1.58-2.43,2.56-3.5,1.12-1.23,2.41-2.27,3.5-3.54,2.23-2.6,4.46-5.01,7.09-7.22,4.02-3.37,8.18-6.55,12.08-10.08,1.18-1.07,2.94-2.51,3.27-4.17.31-1.57-1.16-2.23-2.5-2.08-5.04.55-9.52,4.77-12.94,8.16-2.04,2.01-4.05,4.05-6.08,6.06-1.5,1.49-2.82,3.11-3.95,4.88.75-2.42,1.57-4.81,2.27-7.24,1.9-6.62,5.14-16.29.55-22.5-.16-.21-.53-.35-.73-.09-1.16,1.46-1.59,3.26-2,5.05-.52,2.26-1.15,4.5-1.64,6.77-.81,3.77-2.09,7.67-2.77,11.57.12-5.49-.19-11.01-.93-16.6-1.05-7.95-2.11-16.46-5.01-24.01-.48-1.25-1.3-3.74-2.96-3.86-1.71-.12-2.24,2.01-2.36,3.29-.3,3.16.68,6.5,1.44,9.53,1.15,4.63,2.1,9.34,3.02,14.02,1.19,6.12,1.91,12.38,2.33,18.6.36,5.29,1.39,11.07.19,16.3-.02.08.06.1.1.16-1.47,8-3.07,16.02-3.49,24.15-.16,3.02-.02,6.01.21,9-1.11-3.14-2.12-6.31-3.07-9.52.05-.1.1-.2.08-.33-.41-2.93-1.31-5.73-2.53-8.4-1.58-5.98-2.89-11.91-5.42-17.59-1.94-4.36-3.25-9.37-5.54-13.67.62-3.21.43-6.51.78-9.78.48-4.47,1.14-8.88,1.34-13.38.16-3.85.01-7.67-.29-11.51-.26-3.27-.46-6.7-1.82-9.73-.49-1.1-1.72-3.64-3.31-3.42-1.58.21-1.32,2.61-1.23,3.68.36,4.15,1.39,8.22,1.82,12.37.42,4.01.14,8.04.15,12.06,0,3.87.47,7.71.69,11.57.07,1.18.06,2.39.11,3.58-1.12-3.73-1.73-7.61-2.48-11.44-.98-5.01-2.4-9.92-4.37-14.63-.08-.2-.19-.4-.28-.61.2-.09.36-.27.28-.54-2.05-7.06-2.1-14.7-3.28-21.94-.63-3.86-1.6-7.63-2.55-11.42-.59-2.34-.43-5.18-1.93-7.17-.15-.19-.47-.32-.66-.09-1.71,2.07-1.65,5.03-1.43,7.56.26,3.15,1.03,6.21,1.44,9.34.43,3.33.25,7.64,1.17,11.33-.82-1.28-1.66-2.54-2.51-3.76-.91-1.31-2.28-3.49-4.03-3.75-1.49-.22-2.21,1.06-2.23,2.38-.05,2.59,1.41,5.31,2.39,7.65,1.81,4.29,4.11,8.34,6.44,12.37,1.46,2.53,2.75,5.16,4.1,7.74-.56-.93-1.08-1.88-1.67-2.77-2.18-3.27-4.56-6.47-7.07-9.49-2-2.41-4.24-4.76-7.21-5.91-.18-.07-.39.05-.48.2-1.5,2.37.58,5.12,2.01,6.97,2.57,3.3,4.84,6.65,7.09,10.19,2.86,4.49,6.53,8.26,10.01,12.26,1.63,1.87,3,3.8,4.3,5.9.37.59.75,1.13,1.16,1.65-.04.21-.04.44.12.69,3.11,4.93,4.55,10.72,6.99,15.99,1.6,3.47,2.7,7.04,3.7,10.65-3.8-5.58-8.67-10.6-13.13-15.13-1.31-1.34-2.73-2.5-4.1-3.72-.04-.09-.06-.19-.16-.26-.12-.09-.26-.14-.38-.23-3.21-2.8-6.51-5.45-10.03-7.98-1.11-.79-2.26-1.55-3.4-2.32-1.99-2.5-3.73-5.01-4.98-7.99-.54-1.29-1.12-2.56-1.72-3.83-.79-1.69-6.96-16-9.68-13.47-1.92,1.78.57,5.98,1.45,7.68.71,1.36,1.51,2.66,2.33,3.95-.79-1.03-1.56-2.07-2.46-3.02-1.38-1.47-2.85-3.06-4.59-4.11-.54-.32-1.29-.7-1.91-.37-.75.39-.68,1.49-.52,2.18.32,1.32,1.3,2.45,2.24,3.39,1.1,1.11,2.34,2.07,3.56,3.06,2.69,2.19,5.08,4.71,7.78,6.89.7.98,1.37,1.99,2.14,2.93.76.93,1.65,1.69,2.56,2.42-3.17-1.07-6.47-1.84-9.66-2.56-3.79-.86-7.64-1.3-11.5-1.68-2.73-.27-5.76-.87-8.45-.09-1.06.31-3.12,1.3-2.72,2.73ZM53.51,62.09c.88,1.95,1.58,4,2.51,5.91-1.11-1.72-2.11-3.56-3.39-5.08-3-3.54-6.35-6.82-9.07-10.59-2.34-3.26-4.12-6.9-6.58-10.08-.84-1.08-1.77-2.08-2.59-3.18-.67-.9-2.36-2.99-2.07-4.19.33-1.4,1.2-.75,2.16-.09.76.52,1.45,1.14,2.12,1.78,1.24,1.2,2.35,2.53,3.42,3.88,2.75,3.47,5.47,7.05,7.71,10.88,2.04,3.48,4.13,7.09,5.8,10.76ZM50.09,38.74c-.83-1.75-1.72-3.48-2.68-5.19.05-.08.09-.18,0-.27-.33-.36-.58-.76-.84-1.16-.16-.28-.34-.55-.5-.83-2.12-4.1-1.65-9.83-2.16-14.12-.32-2.73-.97-5.42-1.29-8.15-.28-2.39-.58-5.48.74-7.66.57,1.1.8,2.33.98,3.57.2,1.41.55,2.76.9,4.15.89,3.54,1.72,7.09,2.26,10.71.94,6.25,1.15,12.77,2.57,18.96ZM56.78,66.03c-3.08-7.15-6.41-14.22-10.26-20.96-3.54-6.19-7.51-12.47-9.55-19.37-.29-.99-1.17-4.08.77-3.82.96.13,2.08,1.74,2.59,2.42,1.27,1.67,2.3,3.51,3.34,5.33,1.47,2.55,3.18,4.92,4.54,7.54,2.02,3.86,3.62,7.93,4.87,12.1,1.63,5.48,2.27,11.24,3.69,16.77ZM60.02,62.74c-.29,2.75-.16,5.53-.5,8.26-.42-1.54-.37-3.17-.38-4.78-.01-1.9-.16-3.8-.3-5.7-.3-4.02-.38-7.98-.3-12.01.08-3.85-.07-7.61-.67-11.42-.35-2.19-.77-4.36-1.07-6.55-.15-1.08-.36-2.21-.34-3.31.03-1.65,1.17-1.41,1.9-.4,2.4,3.28,2.44,7.88,2.75,11.77.32,4.04.4,8.05.17,12.1-.23,4.05-.84,8.03-1.27,12.06ZM81.08,87.43c-.01-.23-.17-.39-.38-.42.81-4.57.18-9.39-.1-13.97-.37-6.11-1.03-12.27-2.15-18.29-.9-4.88-1.92-9.8-3.1-14.62-.36-1.48-3.36-12.95.36-11.8,1.91.59,2.8,7.12,3.22,8.85,1.25,5.1,2.19,10.24,2.93,15.44,1.67,11.79,2.09,23.36-.79,34.81ZM85.16,88.04c.12-.34.27-.66.39-1,.81-2.38,1.5-4.8,2.26-7.2,1.45-2.67,3.62-4.83,5.82-6.89,1.97-1.85,3.86-3.77,5.8-5.65,2.02-1.96,4.16-3.83,6.55-5.32,1.58-.98,4.08-2.43,6.05-2.23,2.53.26-1.19,3.77-1.87,4.39-1.3,1.2-2.64,2.37-3.97,3.52-4.06,3.5-8.54,6.53-12.3,10.36-1.81,1.84-3.3,3.97-5.18,5.75-1.4,1.33-2.45,2.76-3.55,4.28ZM79.79,98.98c.28-2.22.55-4.44.8-6.66.08-.06.17-.12.21-.24,1.7-5.2,2.57-10.44,3.01-15.7.17.09.38.07.4-.18.27-5.09,2.27-10.19,3.33-15.17.45-2.11,1.06-4.18,1.54-6.28.41-1.8.73-3.82,1.72-5.43,3.94,6.33.48,15.87-1.42,22.35-1.53,5.22-3.15,10.45-4.94,15.58-.86,2.45-1.99,4.77-2.98,7.17-.62,1.5-1.12,3.04-1.67,4.57ZM82.22,131.49c.18-2.54.29-5.08.26-7.66-.05-3.85.3-7.55.92-11.36.39-2.36.46-5.42,1.9-7.43,2.06-2.88,3.64.77,3.69,2.74.03,1.48-.37,2.97-.8,4.38-.91,2.99-2.08,5.89-2.97,8.89-1.04,3.5-2.09,6.95-2.99,10.44ZM86.03,153.04c.4-3.66.6-7.35.95-11.01.32-3.41.77-6.81,1.66-10.12.87-3.21,2.43-5.91,3.85-8.86.46-.94.75-1.96,1.25-2.89.31-.57.66-1.3,1.28-1.58,1.1-.49,1.9.11,1.95,1.28.09,2.03-1.02,4.26-1.75,6.1-1.04,2.64-1.74,5.4-2.66,8.09-1.27,3.67-2.66,7.3-3.93,10.97-.92,2.65-1.75,5.34-2.59,8.02ZM116.97,158.12c.73-2.01,1.33-4.05,1.96-6.09.03-.03.08,0,.09-.05,1.37-3.57,3.84-6.3,5.97-9.4,1.11-1.62,2.2-3.42,3.74-4.67.27-.22.77-.65,1.17-.58.75.13.56,1.17.36,1.65-.52,1.27-1.55,2.35-2.36,3.45-2.34,3.18-4.5,6.47-6.88,9.62-1.18,1.57-2.22,3.23-3.32,4.85-.27.39-.47.82-.72,1.21ZM112.12,165.46s.06,0,.08-.04c1.15-3.64,1.77-7.39,3.03-11.02,1.4-4.02,2.82-8.02,3.92-12.14.7-2.64,1.53-5.32,1.58-8.07.02-1,.03-2,.14-3,.08-.71.4-3.46,1.57-1.75,1.12,1.63-.19,5.25-.56,7.01-.87,4.08-1.59,8.15-2.76,12.16-1.17,4.02-2.51,7.99-4.06,11.88-1.05,2.65-2.21,5.32-2.84,8.11,0-1.04-.06-2.09-.09-3.14ZM108.3,174.18c-.06-1.82-.34-3.6-.58-5.44-.33-2.6-.56-5.23-.78-7.84-.24-2.93-.2-5.84-.18-8.77.03-4.55.06-9.14.66-13.66.19-1.39.33-4.59,1.57-5.55,1.89-1.47,1.23,4.29,1.12,5.29-.23,2.07-.68,4.11-.66,6.2.04,4.5.83,9.04,1.15,13.53.33,4.53.93,9.13.59,13.68-.18,2.43-.87,4.62-1.77,6.75.08-1.32.02-2.62-.45-3.82-.12-.31-.41-.4-.68-.37ZM100.28,197.75c.71-2.64,1.49-5.27,1.83-8,.47-3.7-.24-7.33-1.11-10.91-.9-3.7-2.1-7.32-3.45-10.88-1.32-3.47-2.75-7.04-2.8-10.8,2.03,1,3.48,4.88,4.14,6.65,1.26,3.38,1.8,6.97,2.69,10.46,1.01,3.95,2.25,7.86,1.84,11.99-.22,2.24-.68,4.45-.99,6.67-.74,1.6-1.44,3.22-2.15,4.82ZM93.87,212.55c-.47,1.17-.93,2.33-1.36,3.51.08-4.37.24-8.71-.77-13.01-.91-3.88-2.53-8.55-1.12-12.51.89.94,1.29,2.51,1.6,3.66.44,1.66.73,3.35.95,5.05.58,4.41.64,8.87.7,13.31ZM104,203.81c-.58.55-1.15,1.09-1.73,1.65-.3.29-.52.64-.8.95.34-2.01.86-4.01,1.57-5.91.64-1.71,1.56-3.88,3.15-5,.53,2.91-2.2,5.4-2.19,8.32ZM97.65,213.62c-1,.88-2.04,1.77-3,2.73.09-.24.17-.48.25-.72.1.05.22.09.3-.02,2.68-3.41,5.08-7,8.25-9.98,2.73-2.57,5.55-4.96,7.51-8.21,3.4-5.6,4.53-12.13,6.59-18.26.26-.78,1.09-3.3,2.2-3.39,1.48-.12.4,4,.23,4.64-.95,3.65-2.87,6.95-4.45,10.34-2.82,6.02-5.12,11.72-10.05,16.41-2.46,2.34-5.3,4.2-7.84,6.45ZM92.2,224.86c.25-1.2.5-2.41.83-3.59.23-.79.52-1.57.77-2.35,1.04-1.42,2.43-2.61,3.72-3.75,1.72-1.53,3.51-2.95,5.33-4.37.11-.09.21-.19.32-.28-1.45,2.43-2.89,4.86-4.53,7.17-1.87,2.63-4.04,5.02-6.44,7.18ZM109.87,246.66c-.03.05.03.08.03.12-.91,1.22-1.79,2.46-2.64,3.72.51-1.55.85-3.18,1.16-4.62.32-1.49.36-2.96.42-4.47.09-2.48.48-4.94.87-7.39.63-3.96,1-7.93,1.41-11.92.21-2.05.47-4.09.67-6.13.17-1.72.33-3.49,1.43-4.85,1.2,2.22,1.17,4.94,1.34,7.41.23,3.22.3,6.43-.05,9.64-.67,6.08-1.42,13.18-4.64,18.49ZM101,265.24c.17-1.04.36-2.07.51-3.1,2.69-6.44,7.15-12.33,11.38-17.78,2.07-2.67,4.18-5.28,6.55-7.69,1.84-1.87,3.53-4.1,5.79-5.47.64-.39,1.68-1.01,2.45-.92.39.04,1.11.6,1.04,1.18-.03.25-.45.65-.62.85-.56.67-1.22,1.23-1.75,1.92-1.98,2.58-4,5.02-6.23,7.39-6.86,7.3-14.65,14.53-19.13,23.62ZM99.39,268.9c.12-.75.27-1.49.35-2.25.35-3.34.09-6.7-.24-10.03-.3-2.98-.55-5.95-.79-8.93-.23-2.9-.53-5.95.23-8.81.55-2.07,1.91-.29,2.45.85.46.96.73,2,.92,3.04.39,2.16.36,4.4.21,6.59-.29,4.08-1.17,8.07-1.85,12.1-.41,2.42-.71,4.97-1.28,7.44ZM117.64,265.83c1.84-2.34,3.46-4.87,5.7-6.86,1.8-1.6,3.97-2.99,6.09-4.13,2.13-1.14,4.49-1.9,6.9-1.48-.49,2.38-2.92,3.32-4.99,4.18-2.75,1.15-5.1,2.91-7.49,4.68-1.79,1.33-4.07,2.39-6.2,3.61ZM101.35,289.33c2.95-.51,5.61-2.72,7.87-4.5,2.94-2.31,5.92-4.73,9.34-6.3,1.51-.69,3.34-1.38,5.02-.99.95.22,1.65.87.6,1.63-.62.45-1.58.55-2.3.73-1.52.37-2.62,1.04-3.82,2.05-.85.71-1.67,1.46-2.65,1.98-1.04.57-2.21.91-3.31,1.35-1.99.79-3.71,1.96-5.57,2.99-1.22.68-2.45,1.23-3.87,1.22-.44,0-.87-.1-1.3-.16ZM114.66,273.7c1.55-.68,3.13-1.28,4.8-1.7.83-.21,1.69-.3,2.53-.43.35.03.68.07.88.08,1.02.05,2.04.11,3.06.17,3.82.23,7.66.56,11.36,1.57,2.31.62,4.6,1.44,6.99,1.65.98.09,5.12,0,5.33,1.24.34,2.03-7.7,1.4-8.88,1.33-3.85-.24-7.55-.82-11.29-1.79-2.86-.75-5.73-1.57-8.68-1.79-1.64-.12-3.26-.17-4.89-.38-.47-.06-.83,0-1.21.07ZM111.52,274.01c1.05-1.4,2.06-2.84,2.96-4.34.12-.11.24-.22.36-.33.56-.13,1.11-.24,1.51-.32,1.58-.35,3.18-.59,4.78-.84,3.95-.63,7.9-1.44,11.83-2.19,2.49-.48,5.03-1.49,7.59-.95.62.13,1.68.4.99,1.26-.31.38-1.41.57-1.88.71-1.1.31-2.23.49-3.32.8-2.55.72-4.93,1.49-7.58,1.82-2.18.28-4.38.44-6.55.76-3.75.55-7.32,1.92-10.7,3.63ZM99.64,286.73c1.1-3.82,2.73-7.54,4.87-10.88,1.02-1.6,2.36-3.21,4.18-3.89,1.13-.42,2.37-.66,3.48-1.17-.09.17-.26.28-.35.46-.03.06,0,.11-.01.17-3.39,4.4-7.37,8.33-10.55,12.91-.55.8-1.09,1.6-1.63,2.41ZM86.72,351.58c3.82-4.4,7.27-9.1,10.02-14.33,1.91-3.64,3.83-7.52,5.04-11.46.71-2.29.94-4.69,1.72-6.96.32-.92,1.4-3.88,2.79-2.41.65.69.42,2.44.36,3.29-.15,2.05-.55,4.18-1.2,6.14-2.58,7.84-7.85,15.41-13.7,21.15-1.62,1.59-3.33,3.08-5.04,4.59ZM81.44,355.66c1-1.51,1.94-3.06,2.64-4.74,1.06-2.55,1.18-5.16,1.36-7.89.23-3.57.38-7.15.88-10.69.18-1.3.58-5.87,2.33-6.56.05,2.24-.68,4.32-1.01,6.54-.31,2.05-.21,4.12-.26,6.19-.13,4.47-.6,9.03-2.25,13.22-1.22,1.32-2.43,2.66-3.68,3.94ZM78.19,360.15s.03-.03.04-.05c0,0,0,0,0,0-.01.02-.03.03-.05.05ZM70.84,362.9s0,0,0-.01c-.66-2.28-1.03-4.67-1.43-7-.78-4.57-1.35-9.17-2.56-13.66-.98-3.64-2.39-7-4.07-10.36-1.63-3.27-3.68-7.18-2.95-10.95,7.75,4.23,8.92,15.72,9.7,23.57.55,5.5.85,11.05,1.21,16.56.03.53.06,1.18.09,1.86ZM37.02,241.39c.48.54.9,1.14,1.39,1.66.76.82,1.54,1.64,2.31,2.48-.7.99-.19,2.72.05,3.77.4,1.73.95,3.45,1.58,5.11.89,2.35,2.07,4.56,3.42,6.66-.18-.21-.36-.41-.55-.61-1.52-1.72-2.98-3.27-4-5.36-1.07-2.17-1.87-4.44-2.49-6.77-.62-2.31-1-4.68-1.71-6.96ZM42.05,240.07c-.79-1.49-1.59-2.98-2.49-4.43-.08-.14-.19-.27-.27-.4.07-.09.15-.17.17-.31.27-2.09.64-4.17.75-6.28.06-1.27,0-2.53-.03-3.8-.03-1.35-.04-2.71.08-4.06.07-.79.24-1.81.69-2.58,2.29,2.83,2.19,7.37,2.31,10.77.14,3.76-.08,7.49-1.21,11.09ZM44.92,248.97c-1.19-1.8-2.69-3.41-4.13-4.96-4.49-4.85-8.41-9.93-12.04-15.45-.69-1.05-2.66-3.47-2.2-4.8.8-2.35,5.06,2.36,5.69,3.12,5.49,6.64,9.64,14.14,12.68,22.1ZM49.18,264.42c-2.3-3.13-4.38-6.39-5.79-10.05-.55-1.41-1.01-2.87-1.4-4.33-.25-.92-.84-2.6-.54-3.68,1.67,1.88,3.19,3.88,4.02,6.24.87,2.48,1.66,4.92,2.74,7.28.18,1.52.53,3.03.97,4.53ZM49.64,254.49c-.09-.02-.16-.08-.26-.08-.08-5.43.87-10.91,2.03-16.17.57-2.58,1.37-5.07,2.05-7.62.46-1.75.77-3.54,1.29-5.28.22-.73,2-5.43,2.91-3.08.47,1.2.24,2.86.12,4.11-.56,5.47-2.59,10.71-4.22,15.93-.84,2.69-1.72,5.42-2.73,8.05-.51,1.33-1.19,2.72-1.18,4.14ZM40.53,265.8c-.85-.58-1.67-1.2-2.51-1.79-.66-.47-1.35-.95-2.02-1.43.03-.12.04-.25-.03-.39-.84-1.61-1.59-3.27-2.51-4.83-.8-1.35-1.78-2.51-2.79-3.7-1.74-2.05-4.05-4.58-4.3-7.38-.05-.57-.07-1.2.62-1.11.5.06,1.02.42,1.42.69,1.2.79,2.18,1.85,3.01,3.02,1.81,2.56,3.18,5.49,4.67,8.24,1.54,2.86,3.03,5.75,4.45,8.68ZM57.23,281.7c-4.19-1.7-7.75-4.52-11.36-7.2-4.1-3.04-8.42-5.79-12.64-8.64-3.62-2.44-7.72-4.15-11.13-6.93-1.05-.85-2.8-2.65-.27-2.55,2.08.09,4.21,1.34,5.99,2.3,4.02,2.19,7.75,4.86,11.49,7.47,2.73,1.91,5.45,3.78,8.01,5.92,3.11,2.6,6.53,5.11,9.08,8.29.01.01.03,0,.04,0,.27.44.52.89.8,1.33ZM62.5,290.02c-2.53-1.37-5.16-2.54-7.65-4-2.76-1.62-5.42-3.43-7.86-5.52-1.82-1.55-3.6-3.15-5.29-4.84-1.56-1.55-3.28-3.34-4.08-5.45,2.94,1.99,5.88,3.98,8.7,6.13,3.64,2.78,7.33,5.54,11.71,7.03.1.03.17-.01.25-.02,1.42,2.2,2.84,4.41,4.21,6.66ZM64.54,293.6c-1.45-.82-3.17-1.27-4.7-1.83-3.53-1.28-6.91-2.9-10.58-3.81-5.54-1.37-12.43-1.79-16.47-6.32.97-.58,2.47-.47,3.49-.41,1.52.09,3.03.32,4.53.6,3.12.58,6.46,1.13,9.39,2.41,1.29.88,2.61,1.71,3.97,2.49,2.77,1.59,5.72,3.23,8.78,4.18.04.01.05-.04.08-.04.11.19.23.36.34.55.41.7.78,1.45,1.17,2.17ZM69.84,290.82c-1.08-5.7-3.21-11.28-4.64-16.85-1.1-4.31-1.83-8.76-2.46-13.16-.3-2.06-.47-4.27-.26-6.34.03-.26.09-1.56.39-1.74.97-.61,1.12,1.2,1.22,1.67.26,1.31.34,2.64.51,3.95.64,4.84,1.47,9.61,1.98,14.47.46,4.37,1.93,8.5,2.75,12.8.33,1.73.45,3.46.51,5.2ZM82.3,306.68c-.04.24-.07.47-.11.71.02-.24.07-.47.1-.71,0,0,0,0,0,0ZM82.06,279.17c-1.37-3.22-3.49-6.05-4.95-9.23-2.19-4.75-3.46-9.98-4.57-15.07-.48-2.2-.84-4.42-1.35-6.62-.47-2.04-1.16-4.13-1.13-6.24-.02-.73.07-1.44.26-2.14.5-.86.93-.88,1.29-.04.42.28.83,1.6.95,1.92.52,1.32.87,2.71,1.16,4.09.86,4.18,1.35,8.43,2.22,12.62,1.47,7.07,4.05,13.81,6.13,20.71ZM83.44,248.26c-2.52-3.12-4.97-6.35-7.14-9.72-.97-1.51-1.92-3.12-2.4-4.87-.21-.74-.41-1.67-.16-2.42.1-.3.09-.37.39-.64.47-.44.37-.38.75.1.22.28.4.6.57.91,1.08,2.01,1.78,4.21,2.62,6.32.77,1.97,1.7,3.83,2.71,5.69.85,1.57,1.75,3.1,2.67,4.63ZM87.7,254.61s0,.1,0,.14c-.04-.09-.05-.2-.09-.29.04.05.06.1.1.15ZM83.61,226.83c-.59-.83-1.2-1.62-1.85-2.39-2.6-3.09-5.18-6.26-7.92-9.22-1.73-1.88-3.63-3.64-5.85-4.92-1.75-1-3.51-1.99-5.22-3.06-1.68-1.06-3.6-2.2-4.85-3.78-.64-.81-.91-1.83.47-1.95,1.23-.11,2.7.72,3.75,1.27,5.92,3.09,10.99,8.6,15.13,13.74,2.58,3.2,4.68,6.66,6.35,10.31ZM28.79,167.7c-.34.1-.63.28-.74.6-3.15-2.93-6.78-5.43-10.08-8.08-1.83-1.47-3.64-3.01-5.2-4.77-.84-.95-2.6-2.98-1.92-4.44,4.46,1.41,7.65,5.66,10.84,8.83,1.54,1.53,3.16,2.98,4.62,4.61.88.99,1.74,2.09,2.49,3.25ZM27.25,186.46c1.33-.27,2.66-.54,3.98-.82,1.15.6,2.35,1.12,3.62,1.41-1.1.2-2.2.42-3.31.58-.62.09-1.26.15-1.9.22-.26-.17-.48-.4-.75-.54-.54-.28-1.1-.53-1.64-.83ZM35.9,165.52c1.55,3.98,3.3,7.87,5.27,11.67-.66-.43-1.34-.84-1.99-1.27-.08-.05-.16-.12-.24-.17.04-.24-.04-.5-.34-.59-2.85-.91-4.55-4.67-5.77-7.14-1.32-2.65-2.4-5.41-3.59-8.12-1.73-3.94-3.48-8-5.99-11.51-2.03-2.83-4.69-5.82-5.37-9.35,2.09.83,3.48,2.95,4.85,4.64,1.97,2.45,3.99,4.87,5.61,7.57,2.76,4.61,5.15,9.46,7.56,14.28ZM48.28,181.73c-1.8-1.07-3.54-2.23-5.29-3.38-3.54-6.81-6.57-13.68-9-21.02-.97-2.94-1.92-5.88-2.95-8.8-.88-2.5-1.99-5.5-1.65-8.23,5.81,4.62,5.7,14.13,7.71,20.66,1.43,4.63,3.73,9.19,6.39,13.22,1.36,2.05,2.7,4.01,3.9,6.16.27.48.58.93.88,1.38ZM48.85,184.66c-4.22-1.1-8.62-1.53-12.92-.94-4.05.56-7.97,1.77-12.01,2.38-4.1.62-8.23.9-12.31,1.59-.6.1-3.12.83-3.71.28-1.79-1.66,3.33-3.75,4.3-4.03,3.66-1.03,7.64-1.87,11.41-2.19,4.25-.36,8.59-.36,12.86-.39,3.03-.02,5.94.27,8.78,1.02,1.2.77,2.41,1.54,3.61,2.28ZM50.15,186.2c-2.77-.28-5.55-.41-8.34-.2-2.03.16-4.03.51-6.01.88-.02-.12-.04-.26-.16-.29-1.11-.25-2.13-.72-3.14-1.22.24-.05.48-.1.71-.15,5.77-1.14,11.5-.69,16.95.98ZM54.15,187.95c-2.19-.34-4.42-.28-6.65-.1-3.15.25-6.31.48-9.42,1.09-3.11.6-6.17,1.45-9.2,2.37-2.7.83-5.3,2.51-8.06,2.99-1.29.22-5.58.67-4.19-1.59,1-1.63,3.71-2.29,5.42-2.71,2.55-.63,5.15-.94,7.74-1.27.14.09.29.14.42.23.11.08.28.03.36-.07.07-.09.02-.19-.02-.28,1.26-.17,2.52-.31,3.77-.58,6.15-1.34,12.25-1.57,18.47-.9.44.28.89.55,1.34.83ZM61.57,193.28c-4.31-.16-8.56-.95-12.88-1.03-2.15-.04-4.28.19-6.43-.03-2.14-.22-4.15-.86-6.08-1.77,3.29-.72,6.57-1.16,9.94-1.45,3.51-.31,7.08-.57,10.46.61,1.7,1.14,3.36,2.38,4.98,3.68ZM66.78,195.15c-.45-.42-.9-.84-1.35-1.25.29-.16.44-.66.08-.94-1.37-1.05-1.8-3.3-2.45-4.81-.66-1.54-1.46-3.01-2.22-4.5-1.92-3.73-3.81-7.47-5.51-11.31-2.72-6.15-6.12-12.84-6.61-19.62-.07-.96-.13-1.93-.06-2.89.12-1.72,1.29-2.59,2.39-.74,1.31,2.21,1.43,5.21,1.76,7.69.9,6.63,3.6,13.09,5.77,19.38,2.25,6.51,5.47,12.66,8.21,18.97ZM83.1,194.36c.02.52.05,1.05.07,1.57-.25-.51-.5-1.03-.76-1.52-1.87-3.53-3.67-6.93-5.26-10.57-.01-.05-.02-.11-.03-.16,0-.02-.05-.01-.06-.03-.2-.46-.43-.88-.62-1.35-2.06-5.06-3.75-10.19-4.7-15.58-.93-5.24-2.63-10.29-3.62-15.51-.28-1.45-.44-2.92-.66-4.38-.15-1.01-1.06-2.66,1.11-1.95,1.71.55,2.46,4.06,2.87,5.57,1.17,4.39,2.05,8.9,3.03,13.34,1.23,5.61,1.93,11.32,3.28,16.9,1.17,4.82,3.25,9.21,5.34,13.67ZM79.14,142.2s.05.02.07.04c.09.66.16,1.32.24,1.97-1.11-2.51-2.7-4.88-4.23-6.95-3.31-4.47-6.96-8.77-10.8-12.8-3.35-3.52-7.03-6.73-10.44-10.2-2.08-2.12-4.15-4.28-6-6.61-.73-.91-1.5-1.88-2.01-2.94-.39-.82-.81-1.66.47-1.34,1.33.34,2.76,2.36,3.63,3.35.69.79,1.33,1.61,1.98,2.43,3.34,4.25,6.75,8.45,10.72,12.14,6.51,6.06,14.61,11.56,16.37,20.89ZM72.67,115.96c.29.92.61,1.82.91,2.74-.39-.38-.77-.76-1.09-1.09-2.67-2.73-4.91-5.82-7.5-8.62-2.89-3.14-5.85-6.22-9.17-8.9-2.88-2.32-6.07-4.57-8.04-7.77,1.96-1.08,4.95,1.24,6.39,2.34,2.01,1.52,3.79,3.29,5.66,4.97,3.05,2.74,5.36,5.89,7.56,9.33,1.55,2.43,3.63,4.61,5.28,7.01ZM54.21,89.68c-4.74-1.19-9.85-1.52-14.41-2.1-4.89-.62-9.95-1.22-14.89-1.08-2.72.07-5.81,1.04-8.5.32-1.39-.37-2.24-1.76-.86-2.81.53-.4,1.45-.54,2.09-.69,1.99-.46,4.04-.76,6.08-.82,5.16-.17,10.19,1.11,15.09,2.59,4.95,1.5,10.36,2.71,15.4,4.59ZM24.96,57.18c-.27.18-.49.42-.5.73-.03-.03-.06-.05-.1-.08-1.29-1.18-2.54-2.4-3.9-3.49-1.12-.9-2.25-1.8-3.28-2.8-.88-.86-1.89-1.91-2.15-3.16-.04-.21-.14-.76,0-.95.05-.06.12-.05.3-.01.71.16,1.41.79,1.95,1.24,1.37,1.14,2.62,2.43,3.83,3.74,1.39,1.52,2.62,3.15,3.83,4.8ZM33.27,65.48c-.67-.59-1.3-1.22-1.86-1.92-1.68-2.09-2.94-4.34-4.97-6.11-1.35-2.67-3.11-5.15-4.48-7.81-.28-.55-3.29-7.17-1.13-6.74.83.17,1.7,1.86,2.11,2.49.91,1.38,1.71,2.83,2.49,4.29,1.55,2.91,2.98,5.89,4.31,8.91.54,1.22,1,2.47,1.59,3.66.56,1.12,1.23,2.18,1.94,3.22ZM2.76,64.07c1.5-.73,3.81-.4,5.42-.27,4.19.35,8.43.73,12.56,1.52,4.55.87,9.43,1.95,13.91,3.75.54.37,1.06.75,1.6,1.12,1.79,1.21,3.53,2.49,5.27,3.76-4.26-1.47-8.79-2.36-13.05-3.1-8.23-1.43-16.49-2.75-24.7-4.3-.51-.1-1.02-.19-1.51-.35-1.61-.55-.7-1.55.5-2.13Z"/>
</svg>