<?xml version="1.0" encoding="UTF-8"?>
<svg id="_レイヤー_1" data-name=" レイヤー 1" xmlns="http://www.w3.org/2000/svg" viewBox="0 0 213.38 203.31">
  <defs>
    <style>
      .cls-1 {
        fill: #98ce00;
      }

      .cls-2 {
        fill: #fff;
      }
    </style>
  </defs>
  <path class="cls-2" d="M213.38,86.58C213.38,38.84,165.52,0,106.69,0S0,38.84,0,86.58c0,42.8,37.96,78.64,89.23,85.42,3.47.75,8.2,2.29,9.4,5.26,1.08,2.7.7,6.92.35,9.65,0,0-1.25,7.53-1.52,9.13-.47,2.7-2.14,10.55,9.24,5.75,11.39-4.8,61.44-36.18,83.82-61.94h0c15.46-16.96,22.87-34.16,22.87-53.27h0Z"/>
  <g>
    <path class="cls-1" d="M177.88,114.15h-29.97c-1.13,0-2.04-.91-2.04-2.04v-.03h0v-46.48h0v-.05c0-1.13.91-2.04,2.04-2.04h29.97c1.12,0,2.04.92,2.04,2.04v7.57c0,1.13-.91,2.04-2.04,2.04h-20.37v7.86h20.37c1.12,0,2.04.92,2.04,2.04v7.57c0,1.13-.91,2.04-2.04,2.04h-20.37v7.86h20.37c1.12,0,2.04.92,2.04,2.04v7.57c0,1.13-.91,2.04-2.04,2.04v-.03Z"/>
    <path class="cls-1" d="M67.01,114.15c1.12,0,2.04-.91,2.04-2.04v-7.57c0-1.12-.92-2.04-2.04-2.04h-20.37v-36.96c0-1.12-.92-2.04-2.04-2.04h-7.57c-1.13,0-2.04.91-2.04,2.04v46.53h0v.04c0,1.13.91,2.04,2.04,2.04h29.98Z"/>
    <rect class="cls-1" x="75.45" y="63.51" width="11.64" height="50.64" rx="2.04" ry="2.04"/>
    <path class="cls-1" d="M136.56,63.51h-7.57c-1.13,0-2.04.91-2.04,2.04v27.65l-21.3-28.77c-.05-.07-.11-.14-.16-.21h-.01c-.04-.05-.08-.1-.12-.14-.01-.01-.03-.02-.04-.03-.04-.03-.07-.06-.11-.09-.02,0-.04-.03-.06-.04-.03-.03-.07-.05-.11-.07-.02,0-.04-.03-.06-.04-.04-.02-.07-.04-.11-.06l-.06-.03s-.08-.04-.12-.05c-.02,0-.04-.02-.07-.02-.04,0-.08-.03-.12-.04-.02,0-.05,0-.07-.02-.04,0-.08-.02-.12-.03-.03,0-.06,0-.09,0-.04,0-.07,0-.11,0h-7.7c-1.12,0-2.04.91-2.04,2.04v46.56c0,1.12.91,2.04,2.04,2.04h7.57c1.13,0,2.04-.91,2.04-2.04v-27.65l21.33,28.81c.15.21.33.38.53.51,0,0,.02.01.02.02.04.03.08.05.13.08l.06.03s.07.03.1.05c.03.02.07.03.1.04.02,0,.04.02.06.02.05.02.09.03.14.04h.03c.17.04.35.07.53.07h7.52c1.12,0,2.04-.91,2.04-2.04v-46.56c0-1.12-.91-2.04-2.04-2.04h0Z"/>
  </g>
</svg>