<?xml version="1.0" encoding="UTF-8"?>
<svg id="_レイヤー_1" data-name=" レイヤー 1" xmlns="http://www.w3.org/2000/svg" viewBox="0 0 156.95 53.52">
  <defs>
    <style>
      .cls-1 {
        fill: #fff;
      }
    </style>
  </defs>
  <g>
    <g>
      <path class="cls-1" d="M84.68,6.67c1.41,2.65-.2,7.82-1.27,10.94-1.29,3.75-2.83,7.27-4.5,10.9l.21,9.84c1.25-2.6,2.83-6.36,5.31-7.56,1.14-.55,2.38-.18,3.04.88,1.16,1.88,1.24,4.1,2.35,6.27.63,1.24,1.85,1.75,3.2,1.39,2.82-.76,5.03-3.9,5.86-6.71-.16-1.34-.17-2.57-.07-3.9.1-.42.35-.73.75-.82,1.04-.24,1.01,1.45,1.65,2.14.36.39.6.75.4,1.19-.24.5-.73.67-1.42.4-.16,1.21-.09,2.46.35,3.6.57,1.5,2.06,2.23,3.56,1.64,1.01-.4,1.82-1.11,2.46-2.04l1.46-2.64c.06-.1.37-.21.46-.14s.13.4.06.51l-1.43,2.33c-.73,1.18-1.78,2.09-3.04,2.59-1.37.54-2.78.21-3.73-.9-.63-.73-.95-1.59-1.27-2.6-.89,1.58-1.84,2.98-3.15,4.13-1.89,1.66-4.62,2.64-6.21.56-1.75-2.3-1.98-6.59-3.68-7.08-2.48-.71-4.83,5.9-5.79,8.38l-.78,2.01c-.12.3-.8.53-1.08.45-.32-.09-.73-.53-.74-.92l-.15-7.73c-1.14,1.52-2.43,2.84-4.07,3.76-2.65,1.49-5.73,1.67-7.45-.91-.69-1.04-1.02-2.22-1.13-3.58-1.89.78-3.91.83-5.74-.09l-2.15-1.36.63,2.03c.63,2.04.24,4.29-1.63,4.7-.99.22-1.89-.19-2.49-.95-.71-.9-.87-1.95-.87-3.21l-.93,1.04c-1.44,1.6-3.24,2.8-5.33,3.3s-4.14-.28-5.22-2.18c-.55-.97-.83-2.02-.92-3.27-3.09,1.24-5.34.49-7.91-1.45l.67,2.14c.56,1.79.29,3.93-1.4,4.52-.86.3-1.73.1-2.39-.49-.71-.63-1.02-1.5-1.19-2.41-2.41,5.75-6.26,13.87-11.89,16.51-3.09,1.45-6.62.89-9.21-1.35-3.67-3.19-5.49-9.12-6.22-13.95C-.5,29.03-.12,21.39,1.8,14.04,3.23,8.57,6.42,1.51,12.25.19c4.12-.94,7.25,1.8,8.34,5.75.42,1.52.63,3.01.64,4.63.06,7.11-2.47,13.96-7.02,19.37l-.41.75c-.16.29-.66.33-.95.21-.23-.1-.45-.6-.33-.87.29-.67.33-1.3.16-2-.15-.6.09-1.12.67-1.25s1.04.24,1.16,1.04c4.7-5.07,6.95-14.38,5.14-20.94-.33-1.2-.86-2.3-1.61-3.26-1.54-1.96-4.03-2.57-6.32-1.57-2.48,1.08-4.28,3.32-5.55,5.72-1.33,2.53-2.28,5.12-2.98,7.94-1.66,6.69-2.13,13.59-1.3,20.44.55,4.54,1.88,9.64,4.87,13.04,2.59,2.95,6.65,3.75,10.07,1.78s5.79-5.57,7.55-8.99c1.54-2.99,2.77-6.04,3.72-9.28.36-1.23.78-2.35,1.61-3.35-.27-.31-.45-.66-.38-1.03.05-.27.44-.61.8-.68.29-.05.7.26.91.54l.73,1.03c.97,1.36,1.99,2.59,3.47,3.45,1.48.86,3.76.92,4.84-.52.47-1.3.55-2.84,1.57-3.95.78-.85,1.68-1.52,2.9-1.52,1.02,0,1.93.53,2.31,1.5.47,1.19.36,2.6-.5,3.61-.6.7-1.93,1.26-2.21.79-.1-.16-.13-.54-.07-.74.05-.18.41-.29.66-.31,1.31-.07,2.05-1.35,1.73-2.6-.12-.48-.45-.98-.81-1.15-1.19-.57-2.46.37-2.96,1.59-.85,2.06-1.02,4.41-.31,6.5.52,1.53,1.87,2.34,3.42,2.12,3.24-.46,5.9-2.94,7.11-5.93.39-.97.82-1.87,1.46-2.69-.25-.31-.42-.67-.37-1.05.04-.26.37-.55.73-.66.28-.08.71.18.92.47l.74,1.02c.99,1.36,1.98,2.62,3.44,3.47,1.54.91,3.73.93,4.97-.46.3-1.65.74-3.38,2.09-4.54.89-.77,2.03-1.19,3.17-.82,1.02.33,1.58,1.25,1.72,2.27.23,1.67-.65,3.19-2.31,3.67-.42.12-.76-.15-.8-.62-.02-.28.32-.58.73-.59,1.3-.03,2.05-1.34,1.73-2.57-.11-.44-.41-.95-.71-1.12-1.14-.65-2.44.15-3.01,1.45-.91,2.07-1.1,4.47-.35,6.58.52,1.49,1.78,2.31,3.31,2.13,3.23-.38,5.87-2.84,7.14-5.77.22-6.63.49-14.17,1.88-20.57.45-2.09,1.22-4.6,2.95-5.66.89-.54,1.85-.26,2.35.67h-.02,0ZM78.93,26.27c2.34-4.71,4.93-10.67,5.65-15.67.23-1.59.08-3.9-1.09-4.24s-2.32,1.56-2.84,2.98c-.65,2.05-1.02,4.09-1.24,6.26-.37,3.58-.5,7.11-.47,10.67h-.01ZM32.24,36.75c.86-1.88-.24-4.23-1.4-6.08-1.77,1.55-2.67,5.32-1,6.6.82.63,1.84.37,2.41-.53h-.01ZM56.97,36.66c.74-1.98-.37-4.27-1.46-5.97-1.61,1.43-2.43,4.31-1.48,6.09.36.51.91.85,1.49.85s1.08-.37,1.45-.96h0Z"/>
      <path class="cls-1" d="M100.41,26.5c-.35.45-.95.38-1.25-.01-.4-.52-.43-1.19-.08-1.76.22-.35.77-.53,1.1-.27.61.48.71,1.41.22,2.03h.01Z"/>
    </g>
    <g>
      <path class="cls-1" d="M121.83,8.35l-.11.37c-.03.09-.4.04-.42-.06-.62-2.71-2.74-4.89-5.28-4.03-.99.33-1.98,1.27-2.24,2.48-.64,3.04,1.83,6.78,3.89,9.13l2.84,3.24-.12.11-3.81-4.14c-1.93-2.1-3.9-5.52-3.41-8.3.22-1.24,1.01-2.26,1.96-2.8,2.4-1.35,5.23.03,6.37,2.89.51-1.02,1.03-1.99,2.04-2.51,1.14-.58,2.48-.43,3.62.28.92.57,1.7,1.67,1.73,2.9.02.92-.07,1.83-.94,2.28,1.2-1.51.88-3.58-.75-4.73s-3.69-.84-4.7.89c-.35.6-.47,1.28-.68,2.01h.01Z"/>
      <g>
        <path class="cls-1" d="M119.59,50.94v-13.48l-3.71-.02c-.29,0-.69-.31-.76-.54-.11-.37.08-.74.37-1.01l5.54-5.2v-6.69c0-.21.35-.46.55-.46l3.66.05.05,3.09,9.31-8.75c.18-.17.43-.37.6-.37s.48.15.66.32l20.8,18.11c.23.2.34.55.27.78-.05.19-.4.45-.62.45l-4.36.11v13.32c0,.56-.45,1.05-1.05,1.05h-30.41c-.42,0-.91-.23-.91-.76h0ZM130.59,50.79l.02-15.3c0-.24.3-.53.52-.53h9.53c.32,0,.58.22.63.54v15.29h9.74v-13.54c.08-.5.45-.84.93-.84l3.71-.1-20.39-17.76-10.14,9.52c-.26.12-.65-.39-.61-.63v-3.14h-2.72l.02,5.67c0,.62,0,1.2-.45,1.63l-5.21,4.9,3.79.05c.31,0,.54.38.54.69v13.55h10.1-.01ZM140.66,35.59h-9.47v15.21h9.47v-15.21Z"/>
        <circle class="cls-1" cx="133.2" cy="43.3" r=".6"/>
      </g>
    </g>
  </g>
  <g>
    <path class="cls-1" d="M73.47,49.11c.71.29,1,.82.94,1.48-.06.57-.59,1.16-1.29,1.17l-2.16.03v-5.24h1.9c.58,0,1.14.52,1.25.94.18.66-.02,1.19-.63,1.62,0,0-.01,0-.01,0ZM72.95,48.88c.48-.02.79-.67.74-1-.07-.46-.44-.85-.93-.86h-1.34v1.93l1.52-.07h.01ZM72.95,51.3c.61,0,.98-.46.99-.96,0-.44-.41-.93-.93-.94h-1.59v1.91h1.53Z"/>
    <path class="cls-1" d="M83.58,51.7c-.11.05-.38.15-.39.09l-.09-.51c-.73.7-1.81.75-2.48.15-.83-.74-.82-1.9-.2-2.6.74-.83,1.91-.8,2.7-.03v-2.27h.46s0,5.17,0,5.17ZM83.13,50.03c0-.74-.6-1.35-1.35-1.35s-1.35.6-1.35,1.35.6,1.35,1.35,1.35,1.35-.6,1.35-1.35Z"/>
    <path class="cls-1" d="M98.13,48.3v3.32c.01.1-.36.25-.38.15l-.12-.55c-.68.8-1.85.8-2.53.16-.79-.74-.76-1.92-.09-2.62.75-.77,1.93-.72,2.62.06l.08-.47c.01-.08.2-.06.42-.05ZM97.67,50.03c0-.74-.6-1.35-1.35-1.35s-1.35.6-1.35,1.35.6,1.35,1.35,1.35,1.35-.6,1.35-1.35Z"/>
    <path class="cls-1" d="M65.47,48.42v3.31l-.41.05c-.08,0-.08-.28-.11-.49-.72.71-1.81.74-2.49.14-.82-.72-.8-1.87-.2-2.57.73-.84,1.92-.83,2.68-.05l.12-.51c.02-.1.4.04.41.13h0ZM65,50.03c0-.74-.6-1.35-1.35-1.35s-1.35.6-1.35,1.35.6,1.35,1.35,1.35,1.35-.6,1.35-1.35Z"/>
    <path class="cls-1" d="M93.42,51.23c-.37.5-1.07.67-1.58.59-.64-.1-1.13-.41-1.44-1.02l.47-.17c.31.58.93.87,1.58.68.37-.1.7-.4.75-.74s-.18-.79-.5-.95l-1.35-.67c-.76-.38-1-1.41-.39-2.02.68-.69,1.77-.58,2.45.13l-.35.33c-.47-.54-1.28-.64-1.76-.13-.38.4-.15,1.08.31,1.3l1.2.57c.76.36,1.19,1.31.61,2.09h0Z"/>
    <path class="cls-1" d="M104.9,50.03c0,1-.81,1.82-1.82,1.82s-1.82-.81-1.82-1.82.81-1.82,1.82-1.82,1.82.81,1.82,1.82ZM104.43,50.03c0-.74-.6-1.35-1.35-1.35s-1.35.6-1.35,1.35.6,1.35,1.35,1.35,1.35-.6,1.35-1.35Z"/>
    <path class="cls-1" d="M58.35,50.03c0,1-.81,1.82-1.82,1.82s-1.82-.81-1.82-1.82.81-1.82,1.82-1.82,1.82.81,1.82,1.82ZM57.88,50.03c0-.74-.6-1.35-1.35-1.35s-1.35.6-1.35,1.35.6,1.35,1.35,1.35,1.35-.6,1.35-1.35Z"/>
    <path class="cls-1" d="M78.99,50.03c0,1-.81,1.82-1.82,1.82s-1.82-.81-1.82-1.82.81-1.82,1.82-1.82,1.82.81,1.82,1.82ZM78.53,50.03c0-.74-.6-1.35-1.35-1.35s-1.35.6-1.35,1.35.6,1.35,1.35,1.35,1.35-.6,1.35-1.35Z"/>
    <path class="cls-1" d="M87.76,48.31l-1.95,4.89c-.1.24-.24.36-.62.31l.68-1.72-1.39-3.45.49-.02,1.16,2.89,1.11-2.84.53-.05h-.01Z"/>
    <path class="cls-1" d="M108.3,51.75v-2.2c-.02-.5-.38-.85-.8-.89-.49-.04-.94.31-.94.86v2.25h-.46v-3.5l.58.19c.37-.18.92-.34,1.37-.11.38.19.7.63.7,1.18v2.08c.01.08-.29.15-.44.14h0Z"/>
    <polygon class="cls-1" points="52.63 51.71 52.15 51.77 52.15 47.01 50.7 47 50.7 46.53 54.07 46.53 54.08 47 52.63 47 52.63 51.71"/>
    <path class="cls-1" d="M60.31,51.76h-.46v-3.03l-.77-.04c0-.19,0-.42.09-.42l.67.02.03-1.27h.45v1.24l.79.05c-.04.23-.06.4-.13.4l-.64-.02-.02,3.07h0Z"/>
    <rect class="cls-1" x="99.61" y="46.53" width=".46" height="5.24"/>
    <rect class="cls-1" x="66.91" y="46.53" width=".46" height="5.24"/>
  </g>
</svg>