<?xml version="1.0" encoding="UTF-8"?>
<svg id="_レイヤー_1" data-name="レイヤー 1" xmlns="http://www.w3.org/2000/svg" viewBox="0 0 478.26 359.3">
  <path d="M172.16,58.99c-.04.1-.09.21-.17.32-.04-.07-.08-.15-.12-.22.1-.02.19-.06.28-.1ZM115.99,91.26c.01.11.04.22.08.34-.02-.12-.05-.23-.08-.34ZM92.93,79c.31-.99-.55-1.47-.43-2.33,3.4-2.33,2.55-.76,5.57,2.12,2.03-1,.7-2.98.24-5.19,1.95.34,2.99-3.21,5.03-1.62,1.53-1.23,9.63-4.55,7.73-3.29,1,.38,1.26.73,1.5,1.75.93-1.34-2.47-2.39.55-3.4-.5,2,1.7,3.67.5.44,1.83-2.87,1.22.91,1.99-.26,1.07-2.82,2.24-1.5,2.69-1.16,1.27.66,2.89-4.03,1.62,1.22-.89-.63-2.25,2.44-2.22-.48-2.26-1.51.54,2.79-.95,1.27-1.05,4.83-4.56,6.91-8.52,8.23-1.67-1.65-.39.21-1.47.85-3,4.6-3.23-1.51-3.25,2.45-.7,2.84-2.4.05-2.58.42-.34,2.55-3.01,3.35-2.16-.54-2.67,6.77-1.82-.04-3.57,3.99-.12-2.77.31-1.67-1.38-4-.42,3.11-3.32.22-.88-.45ZM118.18,67.17c.17.03,0-.45,0,0h0ZM100.52,75.29c-.02-.45-.62-.09,0,0h0ZM99.42,75.49c0,.19.39.06,0,0h0ZM99.48,75.47c.07-.02.05-.02,0,0h0ZM99.53,81.14c-.29-.06-.19.66.02.05.3-1.45-.84-1.68-.02-.05ZM93.61,78.13c.02.07.04.11.05.15-.01-.04-.03-.09-.05-.15-.39-.02-.02.71,0,0ZM163.84,65.38c3.47-1.49-1.63-3.22-.19-6.29.32,2.84.98-.37,3.04,3.32,2.6-1.31.38,1.5.82,2.8-1.4-1.07-3.57,1.43-4.82,2.29-.77-1.23-.56-3.61,1.16-2.12ZM164.24,61.93c-.17-.03,0,.45,0,0,0,.03.02.05.02.07,0-.02-.01-.04-.02-.07ZM164.28,62.04s0,.02,0,0h0ZM269.97,17.29c.09,1.73,5.32-.56,2.42-1.79,2.96.66.48-2.28-.26-2.47-2.56-.8.96,3.63-2.16,4.26ZM51.8,116.91c-.12-1.01-.88-2.18.32-2.24.65-5.1,3.82.29,1.45,3.28-.26-1.81-1.02-.46-1.76-1.04ZM52.79,113.66c.17.03,0-.45,0,0,0-.03-.02-.05-.02-.07,0,.02.01.04.02.07ZM52.77,113.58s-.01-.04-.01-.04c0,0,0,.02.01.04ZM58.98,112.51c4.16-4.52-.35-2.27-2.03-4.12.63.78,2.08,6.54,2.03,4.12ZM373.51,169.8c-.2,2.54,4.14.45,3.4-1.6-1.31.37-1.96,2-3.4,1.6ZM173.09,61.45c-.54,1.76,2,3.71,2.73,4.43.32-1.82-.95-1.85-1.8-3.13.06-1.13-.07-1.32-.92-1.3ZM385.77,37.07c1.31-1.61-1.69-1.92.08-.68-1.26-.2-.78,1.26-1.57,1.44-.44-.86-.22-1.3.34-2.21-1.29.44-1.35,2.36-.95,3.77.21-.8-.04-1.47.61-1.56,0,0,0,0,0,0,.31,1.9,4.28-1.69,1.51-.77ZM267.78,17.96c.32,2.89,1.61-1.35,2.45-1.66-1.48-1.59-1.62,1.42-2.45,1.66ZM127.94,62.69c-.76-.95-1.19-2.71-2.09-1.34.27,1.49,1,2.14,2.09,1.34ZM173.68,65.18c-.76-.92-1.74-3.42-2.9-1.28,2.06-.95,1.44,2.26,2.9,1.28ZM170.12,67.97c.64-1.51.14-2.72-1.06-1.84.37.64.68,1.17,1.06,1.84ZM268.1,13.93c-.87.05-.54,1.32-1.35,1.49,1.05,1.8,1.64-.82,1.35-1.49ZM90.98,94.11c1.36.76,1.33,2.95.98-.39-.98-.47-2.19-.83-.98.39ZM303.05,2.33q.15-1.38-.42-2.23c-.56.55-.24,2.35.42,2.23ZM166.46,58.42c.21-.19.35-.31.46-.41-3.01-2.01,1.19,5.01-.46.41ZM381.19,167.04c.83,1.07,1.8-.08,2.26-.59-.91.17-2.04-.29-2.26.59ZM267.02,16.78c-.5-.9.06-2.04-1.02-1.42.3,1.14-.61,1.99,1.02,1.42ZM381.18,39.5c-.8-.02-1.29-.04-1.78-.05,0,0,0,.01-.01.02-.32-.49-.7-.51-1.11-.31-.23.56.7.58,1.07.37-1.32,2.09,0,.94,1.83-.03ZM130.89,60.02c-.64.15-1.22.11-1.25.95q1.01.4,1.25-.95ZM92.01,90.44c-.39.44.14,1.26.62,1.97.16-1.11.45-1.73-.62-1.97ZM88.36,88.64c-.21-.16-.44.08-.73.13.46,1.98,1.11,1.84.73-.13ZM122.42,64.12c-.21-.61-.35-1.04-.58-1.73-.63,1.13-.63,1.37.58,1.73ZM277.74,14.39c-.62.02-.89.39-1.3,1.29.84-.18,1.37-.25,1.3-1.29ZM51.6,112.63c-.93.14.3,1.35.51,1.98.1-.68-.17-1.78-.51-1.98ZM123.69,63.52c-.64-.06-1.12.82-.36,1.07.42-.42,1.31-.71.36-1.07ZM125.59,60.74c-.87.2-.83.31-.44,1.32.44-.53.83-.63.44-1.32ZM67.99,106.13c-.39.04-.43-1.02-.99-.5-.09.79.82,1.57.99.5ZM91.38,83.26c-.91.26-1.11.28-.7,1.17.52.19.41-.61.7-1.17ZM303.95,3.4c.45-.24,1.3-.11.86-.89-.45.24-1.3.11-.86.89ZM76.45,101.01c-.86-.66-.92-.59-1.15.39.77.31.65.14,1.15-.39ZM382.41,39.13c-.32-.33-.54-.56-.87-.89-.2,1.2-.11,1.34.87.89ZM284.24,11.6c-.02-.61-.24-1-.85-1.11.26.54.23,1.54.85,1.11ZM302.58,4.1c-.2-.53,0-1.16-.51-.88-.84.6-.23.64.51.88ZM58.87,107.92c-.24-.51-.23-1.5-.82-1.08-.04.6.28,1.08.82,1.08ZM239.33,36.15c.42.37.52-.3.74-.59-.72-.68-.68-.15-.74.59ZM125.94,62.78c-.42.17-.97.11-.59.8.42-.17.97-.11.59-.8ZM86.58,95.96c-.19-.51-.2-1.14-.75-.76.19.51.2,1.14.75.76ZM89.63,92.18c.21-.37.92-.02.54-.96-.55.2-.96.1-.54.96ZM382.06,35.89c-.27.31-.87.45-.56.67.53-.21,1.02-.18.56-.67ZM411.37,60.77c-.4.14-.61.21-1.1.37.81.79.82.48,1.1-.37ZM300.52,0c-.72.28-1.22.14-.61,1.04.21-.36.36-.61.61-1.04ZM54.09,109.57c.12.36.22.65.39,1.16.17-.82.54-1.42-.39-1.16ZM267.63,18.34c.09-.6.13-.91.2-1.37-1.01.05-.56.45-.2,1.37ZM88.76,93.44c-.79.2.1.82.28,1.3.32-.11-.22-.86-.28-1.3ZM65.08,109.12c.08,0,.1-.21.17-.28-.17-.16-.16.12-.22.25-.26.13-.51.26-.96.5.84.17,1.41.54,1.01-.48ZM170.34,55.25c-.33.11-.6.21-.85.29.56.65.64.37.85-.29ZM377.98,41.04c.09-.23.16-.42.32-.84-.48.21-.71.31-1.05.46.32.16.49.25.73.38ZM162.49,60.31c-.12.32-.2.5-.17.42.61,1.06.67.41.17-.42ZM60.06,105.81c-.75.21-.78.18-.97.83.41.33.48-.36.97-.83ZM387.63,35.5c-.1.43-.17.73-.27,1.19q.48-.47.27-1.19ZM381.99,37.52c.61,1.06.5.33.07-.75-.06.58-.08.82-.07.75ZM64.67,111.78c-.14-.56-.26-.81-.68-.4.21.46.3.62.68.4ZM91.33,91.37c-.04.48-.07.78-.1,1.14.82.1.42-.46.1-1.14ZM335.1,6.16c.35-.17-.19-.83-.23-1.25-.49.09.16.81.23,1.25ZM240.45,35.18c.61,1.06.67.41.17-.42-.12.32-.2.5-.17.42ZM94.76,87.91c.26.56.39.84.56,1.2.37-.83.31-.66-.56-1.2ZM128.92,59.75c-.54-.01-.75.14-.48.43.14-.12.31-.28.48-.43ZM274.38,12.76c-.09-.54-.51,0-.79.08.13.35.53-.08.79-.08ZM283.86,9.48c-.14-.34-.53.08-.79.09.12.52.51,0,.79-.09ZM280.02,14.01c-.54-.03-.74.12-.43.49.13-.15.28-.32.43-.49ZM86.5,94.16c-.15-.17-.31-.36-.47-.55.03.62.18.87.47.55ZM55.12,108.57c-.29.12.12.63.15.92.45-.07-.06-.59-.15-.92ZM171.33,64.84c-.12.1-.3.25-.48.4.27.26.74-.09.48-.4ZM70.49,107.53c-.12.32-.2.53-.39,1.05.7-.46.83-.33.39-1.05ZM55.35,116.97c.07-.19.16-.4.22-.55-.24,0-.5.26-.22.55ZM299.94,1.28c.08.44.32.11.52,0-.08-.29-.34-.01-.52,0ZM172.18,60.31c-.28.05.06.46.08.69.28-.05-.06-.46-.08-.69ZM68.31,109.03c-.1-.43-.33-.11-.52,0,.09.28.34,0,.52,0ZM67.47,102.93c-.36.06-.07.37.06.61.24-.07-.03-.4-.06-.61ZM48.67,116.07c-.02-.12-.05-.18-.09-.21,1.39-.19,3.57-1.18,1.09-1.48-1.72-2.42-1.03-.24-1.28,1.5,0,0,0,0,.01,0-.11.06-.22.17-.33.21.09.37.39.02.59-.03ZM335.43,6.29c-.3.54-.18.48.08.87-.02-.21-.04-.42-.08-.87ZM245.03,32.62c-.24.07.03.4.06.61.36-.06.07-.37-.06-.61ZM378.43,168.49c.07.32.4-.02.6-.02-.07-.32-.4.02-.6.02ZM88.86,84.69c-.09-.43-.33-.11-.52,0,.09.28.34,0,.52,0ZM85.44,80.86c-.28.05.06.46.08.69.28-.05-.06-.46-.08-.69ZM285.28,12c-.28.05.06.46.08.69.28-.05-.06-.46-.08-.69ZM118.22,65.79s0,0,0,0c0,0,0,0,0,0ZM118.2,65.72c.36.17.23.08,0,0h0ZM118.22,65.79s-.01-.04-.02-.07c0,.03.02.05.02.07ZM118.24,65.84s0,0,0,0h0ZM118.24,65.84v-.04s0,.03,0,.04ZM162.91,62.15c.03.2.2.03.31.02-.03-.2-.2-.03-.31-.02ZM335.42,7.21c-.13-.11-.15.17-.22.26.17.17.16-.13.22-.26ZM375.17,168.67c-.03-.2-.2-.03-.31-.02.03.2.2.03.31.02ZM220.15,45.76s-.03,0,0,0h0ZM220.23,45.74c-.11.4-.04.26,0,0h0ZM220.23,45.74s-.02,0-.03.01c.01,0,.02,0,.03-.01ZM220.15,45.76s.03,0,.05-.02c-.02,0-.04.01-.05.02ZM269.56,14.49c.15.52.34.71.75.38-.14-.56-.34-.56-.74-.42,0-.1-.19-.15-.26-.22-.13.18.13.2.25.28,0,0,0-.01,0-.02ZM108.68,92.44c-.61.18-.53.45-.18.81.4-.16.38-.32.18-.81ZM184.72,56.04c.12.23.07.67.49.56-.12-.23-.07-.67-.49-.56ZM187.3,304.88c1.13-.12,2.31-.11,3.4-.67.4-.07.87.08,1.2-.42-.46-.14-.85-.12-1.2.11-1.19-.02-2.24.71-3.41.74-1.12.43-2.38.26-3.47.87-.12.07-.48.13-.18.3.2.11.55-.04.84-.07.97-.22,1.94-.31,2.82-.85ZM423.14,214.72c-.99-.25-1.56.09-2.07.87.96.23,1.52-.12,2.07-.87ZM40.13,124.62c.16-.04.22-.19.15-.33-.11-.22-.31-.41-.57-.39-.19.02-.31.22-.3.46.11.33.41.35.73.26ZM49.58,287.19c-.76-.19-1.27-.04-1.8.15.51.12,1.03.1,1.8-.15ZM44.99,287.2c-.15,0-.29.05-.45.06-.45.17-1.31-.17-1.28.35.05.69.85.12,1.34.18.15-.01.31,0,.45-.05.13-.04.32-.14.35-.26.05-.27-.19-.29-.41-.29ZM371.53,170.3c.46.11.82.18.96-.28.03-.07-.04-.23-.08-.24-.39-.08-.64.18-.89.52ZM369.83,124.73c-.02.18.11.27.27.26.07,0,.19-.11.19-.16.02-.18-.11-.26-.28-.27-.06.06-.19.11-.19.17ZM52.94,279.49c-.04-.08-.09-.2-.14-.19-.2-.01-.39.06-.47.27,0,.03.1.13.17.14.18.03.36.01.44-.22ZM61.97,109.91c.08,0,.16-.09.24-.14-.07-.04-.15-.12-.23-.11-.08,0-.16.09-.25.14.08.05.17.12.25.12ZM178.57,309.25s-.07-.1-.1-.08c-.06.02-.16.06-.22.1.02.03.07.09.09.09.08-.02.18-.07.24-.1ZM34.02,274.5s-.05-.09-.09-.09c-.03-.01-.1,0-.13.03-.08.09-.03.14.1.13.03.01.06-.04.11-.07ZM43.15,121.25s-.04-.08-.05-.12c-.05.01-.1,0-.11.04-.03.04-.04.11-.03.14.09.11.17.09.19-.06ZM433.42,59.44c1.43-.41,2.8-1.01,4.2-1.55-.09-.34-.18-.67-.26-1.01-1.36.06-2.73.06-4.08.23-.7.09-1.38.58-.97,1.45.19.41.82.96,1.11.87ZM423.97,39.71c.02-.27-.24-.55-.37-.82-.27.3-.58.57-.77.9-.03.07.39.39.61.59.19-.22.52-.44.54-.67ZM441.35,56.93c.23-.34.23-.83.33-1.25-.46.02-.99-.09-1.38.09-.41.19-.69.66-1.03,1,.16.22.23.39.36.47.64.41,1.28.33,1.72-.31ZM118.33,90.23c.29.06.59.12.88.19-.18-.28-.36-.55-.54-.83-.11.21-.22.43-.34.64ZM410.73,44.85c.38-.18.7-.49,1.05-.75-.28-.35-.47-.58-.65-.8-.32.29-.69.54-.93.89-.05.08.47.71.54.67ZM428.47,60.21c-.43.03-.87-.01-1.24.13-.13.05-.09.56-.13.86.42,0,.85.03,1.26-.05.07-.01.07-.5.11-.94ZM119.21,90.41c.05.08.1.15.15.23.03.02.07.03.1.05,0-.08-.02-.15-.03-.23-.07-.02-.15-.03-.22-.05ZM434.95,99.1c-1.62-.33-2.56.48-3.82,1.48,1.59,1.05,2.86,1.45,4.51.82-.23-.77-.46-1.54-.69-2.3ZM450.33,157.81c.4.43.75,1.11,1.22,1.23.42.1.98-.44,2.05-1-.94-.67-1.4-1.26-1.82-1.22-.5.04-.97.64-1.45.99ZM463.68,70.51c.51-.03,1.02.08,2.45.21-5.05,3.69-9.08,5.76-13.94,6.28-2.64.28-5.37,1.54-7.69,2.98-1.09.67-1.53.66-2.5.34-.46-.16-1.31.34-1.79.78-.77.69-1.38,1.58-1.95,2.26-.58,0-.99.12-1.24-.03-1.14-.67-2.33-2.21-3.6-.85-.8.84-.77,2.51-1.32,4.62-.94.49-2.6,1.37-4.33,2.29-.14.77-.29,1.6-.44,2.41-3.76,2.39-7.73,3.84-12.06,4.5-2.12.32-4.27,1.38-6.13,2.55-2.85,1.81-5.68,3.1-9.09,2.63-.77-.1-1.75.09-2.4.52-4.47,2.98-9.37,4.77-14.32,6.5-1.27.45-2.54.91-3.81,1.37.18.53.42,1.26.79,2.24,2.22,2.29-4.09,2.81-4.56,5.63-.06.09-.13.18-.2.26.1-.11.25-.15.43-.15.2,0,.43.09.41.31-.02.35-.37.42-.63.51-.29,0-.34-.2-.31-.4,0-.1.04-.18.08-.24-.33.43-.7.81-1.08,1.17.02.54-.13.66-.64.55-1.79,1.44-3.9,2.47-5.52,4.12.34.69.68,1.4,1.04,2.14-.16.06-.31.11-.47.17.5.04.94-.2,1.6-.81.56-.5,1.12-.45,1.9-.5-.28.48-.63.87-1,1.21,3.9-1.06,8.36-3.32,12.48-4.77-1.86.1-3.74-.08-5.61-.27-.6-1.38-1.19-2.72-1.87-4.27.78-.18,1.55-.37,2.32-.52.98-.18,2.09-.07,2.92-.53,5.52-3.08,11.89-3.53,17.63-6.06.44-.2.99-.14,1.6-.22.23.42.5.82.69,1.26.74,1.71,1.17,2.07,2.48,1.67.74-.23,1.4-.72,2.53-1.32-1.36-.84-2.3-1.42-3.64-2.24,1.32-.55,2.29-.96,3.26-1.37.81,1.99,1.53,3.72,2.3,5.63-3.43,2.1-7.2,2.7-10.75,3.47-1.62-1.28-3.18-2.5-4.83-3.8-1.29,1.3-2.27,2.74-4.15,2.62-.43-.03-1.02.33-1.3.71-.36.49-.78,1.24-.65,1.74.25.99,1.06,1.23,1.97.69.42-.25.88-.67,1.3-.64.31.03.6.64.98,1.1-.61.43-1.23.78-1.85,1.07.03,0,.06,0,.09,0,3.16,1.33,5.28,2.81,8.8,2.22,2.35-1.57,4.61.18,6.85-.03.02-.01.03-.02.05-.04.02,0,.05.02.07.03.24-.03.49-.09.73-.17.09.21.15.41.19.6.66.33,1.36.64,2,.55.95-.14,1.78-1.24,2.8-2.01.66.59,1.37,1.23,2.22,2,2.18-1.68,4.31-3.33,6.44-4.98,0-.48-.09-.98.03-1.42.05-.19.53-.42.78-.37.44.09.85.36,1.45.64-.81.48-1.46.86-2.1,1.24.25.47.49.93.89,1.68,1.17-.19,2.73,0,3.74-.7,2.4-1.67,5.12-1.64,7.7-2.32,1.31-.34,2.7-.45,3.91-1.03,1.63-.78,3.26-1.11,4.95-.79,1.32.25,2.26-.16,3.18-1.18.43-.47,1.14-.78,1.77-.91,2.49-.53,5.06-.73,7.49-1.51,2.25-.72,4.32-1.81,6.81-1.98,2.51-.18,5-1.33,7.52-1.97,2.36-.6,4.74-1.1,7.12-1.6.46-.1.95.04,1.37.07.58,1.23-.27,1.73-.93,2.29-1.12.93-2.38,1.99-3.75,1.38-1.31-.58-2.19.06-3.33.45-4.09,1.41-8.26,2.49-12.33,3.88-2.26.77-4.36,2.07-6.62,2.81-2.08.69-4.4.59-6.36,1.49-3.21,1.47-6.58,2.33-9.85,3.45,0,.46-.12.75-.61.73.03-.18.02-.37.03-.54-4.57,1.61-9.29,2.79-13.91,4.21-.92.29-1.99-.03-3.25-.08-2.16,2.24-5,3.54-8.2,3.92-.66.08-1.38-.15-1.98.06-1.85.65-3.71,1.31-5.46,2.21-3.28,1.71-6.8,2.53-10.27,3.48-.26.07-.56.01-.87-.1-2.1,1.11-4.34,2.12-6.47,3.15-.19.61-.36,1.18-.53,1.73,7.39-2.03,14.75-4.31,22.14-6.64,4.95-1.56,10.06-2.53,15.07-3.99,3.21-.94,6.33-2.26,9.49-3.48,2.87-1.11,5.85-1.58,8.87-2.15,4.8-.89,9.55-2.24,14.3-3.62,3.92-1.14,7.8-2.43,11.92-1.95.4.05,1.01-.08,1.27-.37,2.26-2.62,5.97-1.69,8.3-4.13,1.87-.12,3.69.03,5.58.68-.64,2.96-2.42,4.17-4.93,5.08-.76-.49-1.73-1.12-2.8-1.81-3.28,1.41-6.5,3.21-10.2,3.49-1.54.11-2.4,2.25-4.03,2.78-.56.19-.99.87-1.41,1.26-1.38-.65-2.55-1.2-3.52-1.66-1.58.91-.68,2.13-1.05,3.2-.34.22-.73.58-1.18.78-1.89.79-3.79,2.12-5.66,2.12-1.73,0-2.65.39-3.78,1.66-.73.84-2.06,1.23-3.17,1.52-3.71.97-7.47,1.71-10.9,3.58-1.6.87-2.81-.48-4.39-1.22-.65,1.37-1.21,2.55-1.93,4.08-.88-.31-2.07-.35-2.55-.99-1.05-1.4-2.44-.71-3.92-1.48,0,1.54-.01,2.71-.03,4.19,1.17-.04,2.15.08,3.05-.14,7.12-1.79,14.27-3.66,21.46-5.45.71-.18,1.51.06,2.41.12-.96,2.23-2.15.37-3.11.79-.92.4-1.9.67-3.01,1.05-.3.92-.6,1.89-.91,2.86-3.03-.39-5.63.31-7.27,3.35-.32-.27-.55-.5-.81-.69-1.4-1.04-2.42-1.08-2.77.2-.71,2.6-2.18,3.15-4.49,3.03-1.19-.07-2.43.75-3.86,1.24.67,1.42,1.16,2.47,1.75,3.73,4.51-.66,8.78-2.82,13.32-3.54,4.31-.69,8.65-1.73,13.18-1.4-.29,1.4-1.26,1.27-1.93,1.47-13.47,4.15-26.81,8.26-40.03,12.37-7.66,2.39-15.34,4.6-22.87,7.16,0,.09-.05.21-.17.43-.01-.14-.02-.25-.03-.35-.89.3-1.78.61-2.67.92-.95.34-1.9.68-2.85,1.01-1.8,1.14-3.47,2.22-5.26,3.72-.8.16-1.69.35-2.59.63-.22.32-.52.61-.8.64-.81.1-1.51.42-2.17.87-.23.2-.45.29-.68.32-.9.73-1.65,1.68-2.1,2.93-3.6,1.84-8.52,2.45-10.07,6.4,2.4,1.62,4.94-.52,7.37-.24,2.01-.58,4.07-1.05,6.08-1.66,3.07-.92,6.26-1.39,9.04-3.34.67-.47,1.57-.58,2.48-.64.4-.1.69-.11.83-.06.15-.01.3-.03.44-.04,1.32-.17,2.57-.37,3.32-1.91-.88-.88-1.72-.14-2.52.09-.94.27-1.83.69-2.75,1.01-.91.32-1.84.61-2.76.89-.77.23-1.56.4-2.34.62-.93.27-1.85.58-2.78.85-.93.27-1.85.6-2.81.76-.94.15-1.92.12-2.91,0,21.13-7.4,42.87-13.44,64.77-20.06.37-.12.87.2,2.07.51-11.5,4.48-22.68,6.96-33.59,10.51.83,1.52,1.95.73,2.6.55,5.77-1.67,11.51-3.52,17.29-5.31,4.22-1.3,8.44-2.7,12.72-3.85,2.52-.68,5.11-.91,7.54-2.12.72-.36,1.79.13,3.18.3-.64,1.01-1.12,1.51-1.29,2.12-.09.33.28,1.13.55,1.19,1.52.37,2.51-.47,2.72-2.5.18-1.72.97-2.06,2.31-1.77q.8,2.66,2.67,2.09c-.37-.92-.73-1.8-1.19-2.91.76-.46,1.42-.97,2.15-1.28.9-.4,1.6.15,2.11.89.67.98.04,1.59-.62,2.21-.18.17-.15.59-.24,1.05,1.96-.31,3.88-.6,5.67-.88.74,1.32.79,2.32-.42,2.86-.91.4-1.9.57-2.86.82-10.09,2.6-20.19,4.97-30.08,7.86-9.72,2.85-19.3,5.98-28.85,9.06-1.9.93-4.02,1.96-5.05,3.6,3.33-1.05,6.65-2.1,9.99-3.16,3.98-1.26,8.06-2.2,12.03-3.61,4.14-1.46,8.45-2.41,12.73-3.48,4.12-1.03,8.26-2.02,12.43-2.86,4.65-.94,9.33-1.77,14.03-2.5,2.42-.38,4.91-.59,7.15.93,1.08,2.26-.52,4.48-.26,6.84,2.47,2.31,5.38,3.87,8.31,5.28,1.27.61,2.83.5,4.24.76,1.42.26,2.88.43,4.25.9,1.29.44,1.52,1.68,1.09,3.45-2.93.94-6.03,1.93-9.11,2.95-1.69.56-3.6.79-5,1.85-3.33,2.51-7.05,3.43-10.8,4.2-6.84,1.41-13.54,3.29-20.18,5.36,1,.93,1.75,2.03,2.04,3.42.13.61.96.94.64,1.74-.29.69-.56,1.2-1.46,1.45-1.99.55-3.9,1.48-5.8,2.5.36.65.98.75,1.57.86.39.07.73.19.75.61.06.48-.4.45-.68.67-.81.66-1.52,1.44-2.74,1.8.65.64,1.22.41,1.74.36.97-.1,1.89-.54,2.79.47.45.54,1.67.3,2.54-.02,1.73-.63,3.53-.95,5.22-1.8.57-.28,1.21-.59,2.09-.56-.6,1.61-2.04,2.15-3.27,2.86-1.27.69-2.72.86-4,1.38-.27.39,0,.64.17.85,1.18,1.4,2.07,2.96,2.61,4.73.04.17.27.25.44.38.19-.04.39-.09.58-.09.19-.02.42-.07.49.12.11.21-.15.33-.3.42-.13.06-.29.08-.45.11-1.9,1.73-4.13,2.76-6.61,3.23-.26.04-.55.06-.74.2-2.39,1.62-5.21,1.36-7.81,2.09-.58.17-1.23.2-1.8.5.21.34.72.11.96.42.1.04.2.03.29-.05.56-.51,1.25-.43,1.94-.4,1.23-.03,2.49-.35,3.73-.16.26.05.62-.02.91-.14,1.72-.66,3.48-.64,5.23-.8,1.36-.14,2.71-.41,4.04-.63.36-.05.74-.12,1.1-.14,2.27-.2,3.26.8,2.98,2.99-.13.8-.58,1.41-1.36,1.49-2.78.31-5.43,1.46-8.24,1.86-.87.12-1.75.21-2.62.37-1.48.28-1.76.56-1.89,1.98-.03.18-.04.36-.03.55,1.98-.35,3.94-.71,5.98-.26.2.49.16.85.01,1.16.26-.16.53-.28.84-.31,1.65-.83,2.48-.64,3.13.75.15.3.32.63.12,1.01-.3.58-.3,1.19-.2,1.78.14.82-.3,1.18-1.02,1.22-.91.06-1.74.29-2.53.73-.85.48-1.84.25-2.77.53-.53.16-1.07.3-1.61.44.19.88.85,1.61,1.77,1.68,1.83.13,3.67-.02,5.68-.04.2.74.24,1.83.72,2.5.44.6,1.34,1.02,2.05,1.06,1.21.08,2.43-.34,3.64-.28.61.03,1.21.66,2.08,1.18-.64.63-.9,1.11-1.26,1.21-2.54.73-4.88,1.72-6.78,4-.87,1.03-2.38,1.5-3.68,1.83-5.05,1.27-10.15,2.3-15.17,3.62-5.02,1.32-9.96,2.96-14.95,4.31-4.26,1.16-8.53,2.26-12.85,3.09-2.25.43-4.4.99-6.57,1.76-4,1.43-8.12,2.46-12.2,3.62-1.32.38-2.53.78-3.58,1.89-.82.86-2.15,1.06-3.14,1.77-1.59,1.13-3.45-1.13-5.17.54-1.25,1.22-3.2,1.62-4.91,2.16-6.21,1.94-12.45,3.79-18.65,5.75-2.74.87-5.43,1.9-8.16,2.82-13.19,4.47-26.28,9.21-39.49,13.65-10.77,3.62-21.72,6.83-32.61,10.32-5.37,1.72-10.75,3.42-16.12,5.2-8.29,2.74-16.62,5.46-24.87,8.48-7.82,2.86-15.51,6.08-23.3,9.16-7.5,2.96-15.08,5.85-22.61,8.91-8.69,3.54-17.35,7.23-26.08,10.92-1.89.8-3.8,1.56-5.41,2.21-3.85-.52-6.34-2.66-8.5-5.79-.1-3.31,2.57-4.45,4.03-6.43-1.67-2.35-4.03-1.07-6.04-2.55-.22-.85-.52-1.99-.82-3.16.79-.7,1.49-1.33,2.4-2.13-1.25-.21-2.32-.39-3.39-.58-1.08-1.79-.08-2.71,1.02-3.33,2.8-1.58,5.59-3.18,8.55-4.45,16.27-6.95,32.32-13.93,48.64-19.94.32-.9.72-1.72,1.97-1.64.18-.21.39-.35.67-.27.18.06.38.12.39.37-.31.22-.67.18-1.02.18-.17.1-.35.19-.52.3-.22.13-.69.13-.53.52.03.07.07.11.12.14.7-.25,1.39-.51,2.09-.76,1.13-.41,2.26-.83,3.38-1.25.04-.12.15-.22.36-.27.3-.09.6-.15.92-.22,3.83-1.46,7.62-3,11.41-4.49-.05,0-.09,0-.14-.01.11-.42.48-.47.82-.59.26-.06.51-.13.76-.15.11,0,.34-.08.41.03,1.06-.41,2.13-.82,3.2-1.22,3.08-1.16,6.25-2.07,9.38-3.08,1.49-.48,2.98-.95,4.47-1.43-.15-.28-.46-.52-.15-.89.03-.08.06-.15.05-.24-.73.06-1.46.12-2.17.17-.52.04-.84.73-1.44.51-.02.33.1.7-.38.84-.59.2-1.14.55-1.8.57-.15.24-.36.35-.63.38-.16.28-.43.47-.72.56-1.41.4-2.83.77-4.24,1.15-.32.66-.94.64-1.56.68-.86.28-1.86-.02-2.6.77-.12.14-.32.03-.43-.19-.47-.83-.9-1.04-1.84-.74-.23.07-.37.1-.48.07-.95.38-1.9.77-2.86,1.15-.16.07-.32.13-.48.2-.04.01-.08.02-.12.04-1.02.4-2.04.79-3.07,1.14-3.25,1.09-6.48,2.23-9.7,3.41.47.06.98-.22,1.46-.16.8-.54,1.67-.36,2.55-.4-.83.38-1.72.38-2.53.76-.81.51-1.63.54-2.49.24-.18.27-.4.51-.48.79-.21.63-.47.75-.98.3-.53-.46-1.09.08-1.6.21-.58.16-.98.26-1.29.26-11.89,4.5-23.69,9.44-35.67,14.21-4.18,1.67-8.27,3.56-12.47,5.25-2.83,1.14-5.76,2.08-8.86,3.19-.72-.95-1.3-1.73-2.12-2.84,2.9-1.42,5.46-2.68,7.91-3.89-.9-1.15-1.69-2.17-2.4-3.09.36-.58.45-.98.7-1.1,2.05-.95,4.14-1.82,6.19-2.76.39-.18.65-.6,1.48-1.4-3.19.07-5.42,1.73-8.52.98,2.21-1.45,4.33-2.85,6.49-4.27-3.76.81-7.51,1.61-10.62,3.07-7.15,2.64-13.54,8.54-20.28,6.37-1.4.14-1.77-.81-1.67-2.13-6.59,2.45-13.22,4.9-19.89,7.39-.79.29-1.6.64-2.44.66-.57,0-1.58-.39-1.77-.82-.88-1.98-2.35-1.16-3.63-1.25-.35-.88-.52-1.87-1.08-2.57-.63-.8-1.61-1.34-2.79-2.28,2.87-1.7,2.27-4.85,3.58-7.24-1.96-.88-4.43-.08-5.93-2.24-.77-2.09-1.55-4.22-2.44-6.67.65-.51,1.3-1.27,2.16-1.66,3.11-1.41,6.34-2.58,9.4-4.04,1.76-.84,3.79-1.58,4.48-4.1-3.46,1.14-6.68,2.22-9.92,3.29-.97.32-1.94.68-2.95.93-.96.24-1.9-.13-2.11-1.1-.16-.74-.02-1.72.41-2.29.47-.62,1.4-.9,2.16-1.28,1.48-.74,2.97-1.44,5.09-2.47-1.66-.31-2.57-.47-3.43-.63-.43-1.35.48-1.63,1.22-1.96,2.33-1.03,4.68-2.02,6.93-3.53-1.09,0-2.2-.11-3.26.02-.85.11-1.63.54-2.47.76-1.3.33-2.75,1.12-3.84-.4-.2-.28-.28-.65-.31-1.04-1.63.05-3.26.02-4.9.14-2.92.23-5.81.1-8.71.22-.94.03-1.69-.58-2.63-.6-.42,0-.38-.46-.35-.84.03-.46.56-.79.37-1.29-1.25.16-2.49.1-3.73.05-.41.34-.8.68-1.2,1.02.18.41.55.49.95.5.56-.18,1.06,0,1.59.15.23-.04.63-.14.65.06.01.23-.38.21-.6.26-.33.19-.63.36-1.03.22-.5-.2-1.02-.12-1.53-.03l-.16.06h-.15c-.11.1-.2.21-.29.33.04.42.31.58.73.55.26-.03.52-.07.78-.08.18-.02.4-.13.58.18-.43.53-1.06-.02-1.51.3-.46.3-.96.41-1.5.34-1.32-.59-1.39-.75-.91-1.93.1-.23.24-.45.34-.69.5-1.32.37-2.01-.83-2.65-1.12-.59-1.69-1.63-2.45-2.5-.31-.31-.08-.54.07-.81.56-.92,1.19-1.83.91-2.96-.08-.26.13-.37.3-.48.41-.26.86-.42,1.32-.24.61.22,1.65-.12,1.8.52.19.81-.89.79-1.43,1.13-1.06.64-1.08,1.16-.01,1.73.37.18.76.28,1.13.42,1.98-.09,3.96-.26,5.83.46.22.09.49.11.74.14.94.23,1.96-.29,2.89.19-1.25.13-2.51.25-3.76.38-.11.01-.21.04-.32.05-.21.13-.39.26-.58.39.3.83,1.03-.31,1.38.22q-.42.94-1.62.75c-.44.08-.85.18-1.23.42-.07.6.35.75.84.76.88.02,1.76.03,2.64.03-.04.05-.08.1-.13.16.06-.04.11-.09.13-.16.17-.27.8-.21.62-.72-.28-.8.43-.91.87-1.2.2-.32.62-.39.8-.28,1.16.65,2.33.03,3.51-.11,1.23-.27,2.48-.26,3.73-.34-.02-.75.46-1.28.97-1.79-.04,0-.09-.02-.14-.03.11-.07.21-.12.31-.15.47-.47.9-.95.91-1.6-.18,0-.35.01-.53.02-1.97.01-3.88.27-5.8.59-1.23.19-2.39-.26-3.61.04-.32.09-.44-.35-.71-.49-.39.1-.89.76-1.13.19-.26-.63.6-.39.91-.64.06-.07.18-.08.26-.12.17-.24.31-.58,0-.63-1.1-.2-1.38-1.59-2.62-1.59-.11,0-.2-.14-.18-.33,0-.52.24-.98.38-1.47.2-.63.78-.39,1.18-.45.58-.1,1.12-.17,1.36-.68-.02,0-.04,0-.06,0-.56-.61-.32-.98.05-1.22-.66-.24-1.23-.63-1.99-.68-.55-.04-1.52-.47-1.35-1.53.02-.16-.16-.52-.19-.5-1,.18-1.44-.83-2.23-.92-.88-.1-1.52-.5-2.26-.99.63-.75.62-1.52-.03-2.23-.33-.4-.78-.23-1.2-.16-.54.35-1.07.66-1.73.63-.95-.05-1.29-.72-.79-1.5.17-.27.33-.58.57-.73.68-.37.92-.85.82-1.59-.09-.84.65-.74,1.18-.8.42-.42.98-.29,1.49-.45,1.11-.35,1.45-.92,1.04-1.97-.19-.55.2-.62.45-.81,1.1-.82,1.1-.8.23-1.81-.62-.75-1.05-1.71-2.49-1.6.34-.43.62-.69.78-1.01.28-.56-.4-.57-.58-.88-.14-.24.03-.46.2-.51.53-.14.83-.52,1.11-.89-.36-.53-.75-1.1-1.25-1.86-5.47,2.5-10.92,4.98-16.59,7.56-.86-.77-1.4-1.57-2.15-1.87-3.06-1.24-2.87-4.19-3.98-6.43-.24-.49.1-1.4.45-1.95.64-1,1.49-1.88,2.14-2.66-.46-2.38-2.66-2.57-4.07-3.65-.84-2.13-1.68-4.26-2.55-6.51,1.05-1.03,2.15-1.94,3.01-3.02.35-.44.23-1.23.31-1.86-.56,1.54-1.94,1.81-3.4,1.99-.75-4.7-.77-4.72,1.22-7.99.83-1.35,1.27-2.6,1.35-4.31.09-1.89-.07-4.07,1.33-5.91.47-.63.04-1.97-.15-2.95-.18-.98-.58-1.93-.97-3.18-1.01.31-1.98.71-2.98.89-.42.08-1.12-.2-1.34-.53-.22-.34-.24-1.16.02-1.4,1.19-1.06,2.63-1.89,3.72-3.02.64-.66.79-1.75,1.3-3-3.06.46-5.63.84-8.43,1.26q1.66-2.99.56-5.46c1.98-1.16,3.97-2.38,5.99-3.53,2.04-1.15,4.08-2.25,5.99-4.51-1.45-.14-2.51-.53-3.36-.26-1.89.61-3.65,1.63-5.53,2.31-.71.25-1.6,0-2.41-.02.02-.69-.11-1.13.07-1.33.89-.96,1.86-1.86,3.72-3.67-1.22.48-2.43.96-3.65,1.45-.64.26-1.29.51-1.94.77-1.04-1.11-.12-1.68.35-2.31.42-.57,1.18-1.04,1.3-1.64.74-3.58,3.46-5.71,6.26-7.67,2.82-1.96,5.77-3.73,8.68-5.53,1.98-1.22,3.95-2.44,5.94-3.67-.5-.07-1.02-.21-1.62-.44,1.18-.26,2-.6,2.95-.54.09,0,.18,0,.26,0,.61-.37,1.21-.75,1.82-1.12.02-.03.05-.06.07-.1-.18-.33-.83-.05-1.06-.44,0-.09-.04-.23-.01-.27.24-.2.45-.41.6-.65-4.95,2.52-9.92,5.05-14.93,7.58-.48.24-1.04.66-1.5.59-3.3-.47-5.95,1.3-8.98,2.73-.72-.89-1.18-1.86-1.99-2.34-.84-.5-2-.53-3.03-.76-.22-3.33,2.93-4.09,4.56-6.32-.12-.69-.52-1.68-.41-2.64.09-.77.78-1.49,1.27-2.35-.58-.17-1.07-.32-1.58-.46-.04-.27-.24-.74-.1-.86,1.92-1.73,2.38-3.93,2.24-6.23-.2-3.09,1.22-5.02,3.91-6.77,7.79-5.08,15.75-9.65,23.92-13.7,2.24-1.11,4.37-2.44,6.57-3.63.42-.22.83-.45,1.25-.67-.1-.16-.19-.35-.25-.58.4-.14.73,0,1.06.16.27-.14.54-.29.81-.43-.09,0-.17.02-.26.03.25-.15.51-.23.77-.29,2.89-1.49,5.81-2.9,8.81-4.16,1.6-.67,3.14-1.5,4.67-2.35-.14-.79-.22-1.91-1.04-1.74-.25-4.63,1.42-1.33,1.99,1.21.21-.12.42-.23.62-.35-.07-.35.01-.94.35-1.85.98,1.96,1.19-.92,2.14-.92.19.46.11.98-.11,1.46,1.14-.6,2.28-1.15,3.47-1.61,2.34-.91,4.49-2.25,6.95-2.99,3.91-1.16,8.08-2.28,10.57-6.18,2.29-.87,3.09-4.2,6.11-3.96.42.03.89-.93,1.4-1.34.6-.49,1.26-.9,1.9-1.33.47,1.27.93,2.54,1.4,3.81,1.02.02,1.91.25,2.65,0,2.12-.68,4.24-1.36,6.3-2.15-1.32-1.78-3.83-2.7-1.95-2.04.35-.56-.56-2.07-.76-2.73-.02.1-.04.21-.05.31-.29,3.28-2.05,4.63-4.93,3.59-.43-.15-.74-1.02-.83-1.61-.03-.19.04-.4.14-.62-.22-.78.03-1.46.65-1.26.74-1.1,2.21-1.66,2.68-2.96-1.33-1.07-1.42-1.17-.31-3.67,1.18,1.39.56-.7,1.23-1.29.68.75,1.29-.03,1.82-.15,2.61.41,9.03-3.76,10.09-1.37-.45-2.51,2.97-1.19,2.88-4.77,1.03,1.8,4.02.05,6.2-.8,3.62-2.6,6.14-3.03,9.85-4.42,5.06-3.15,2.21.9,5.83,1.25,1.01-1.6-1.02-3.33.27-4.44,2.5-1.19,4.42-2.24,7.14-2.86,2.12-2.2,6.03-2.94,8.76-3.97.95-1.84,3.69-3.05,5.12-1.37.2-2.14,2.41-2.9,2.18-.17-.78,2.27.82.41-.02-1,.54-1.43,1.88.23,2.42-.8,1.55,2.3,1.39,4.72.14,6.39-.18-1.3-1.52-6.6-1.41-2.69-.19-.22-.34-.39-.64-.74.43,2.65-.03,7.89-1.67,3.67-.67.83.79,1.17.06,2.13-1.64-.55-2.08,4.65.22,3.19-.18-1.09,1.68-1.97.29-2.99.92-.28,1.79,2.79,3.08.72,1.54-1.69,4.5-2.04,6.67-3.33,1.12-2.06,2.51.76,3.18,2.65.83.14,13.61-5.51,5.93-4.89.08-1.98-.96-3.81-2.11-5.7-1.12.79,1.72,1.21-.62,1.84-.56-.69-.25-3.01.54-1.97-.34-.56-.69-1.13-1.02-1.71-.19.79-.51,1.15-.87,1.32.19-.52-.05-.98-.32-1.47-.4.57-.23,1.06.03,1.57-1.18.3-2.58-.62-1.7,4.47-2.1.39-3.94-9.3-1.25-3.54.29-2.5,2.13-4.84,3.44-5.96.49,1.59,3.11,1.15,2.03-.6-1.15,1.58-1.3.29-.07-.76,1.9.31,3.8-2.11,4.77.45-.51-1.92,1.68-1.49,1.71-2.6.71.08.92-1.09,2-.82-.42.6-1.07,1.17-.19,1.55.78-2.16,3.01-2.47,1.14-.07.91.66.78-.12.86-.92,12.27-9.29,28.76-13.78,43.63-20.94,7.25-5.51,19.9-4.26,25.57-9.95,1.64,1.99,2.18-1.36,4.27-.26.11,3.81,1.54-.11.94-1.93,1.3.68,1.56,3.28,1.5.35,2.88-2.75,5.4.19,6.79,1.94-10.54,5.77-24.08,8.6-34.91,15.28-1.08-.89-7.16,2.72-4.35,4,1.41,2.28,1.95-.42,3.73-.51,2.5,1.97-1.33,1.91-2.27,3.16-2.66,2.07-18.54,4.67-13.35,9.21,13.4-7.71,28.25-11.42,41.59-18.69,15.9-4.49,30.5-12.06,44.5-19.54,3.94-1.3,10.17-1.34,12.48-5.73,5.13-.05,10.48-1.07,14.76-.92,9.09-.93-1.62,8.09-3.85,10.99-.02,1.19.3,1.69.8,1.81,7.73-2.7,15.52-5.43,23.37-8.22,2.59-.92,5.44-.88,7.92-2.26.7-.39,1.78-.47,2.57-.28,1.72.42,2.93-.14,4.36-1.05,1.39-.89,3.31-1.68,4.87-1.5,2.62.3,4.87-.41,7.21-1.17,1-.32,2.03-.59,3-.86,1.26,1.21.15,4.02,3.18,3.57-2.64,4.77-6.37,7.53-11.14,9.07.45.1.91.22,1.36.37.99.28,1.74.66,2.31,1.11,2.27-.63,4.63-1.41,7.11-.31-.72.85-1.57,1.54-2.01,2.44-.93,1.87-2.54,2.86-4.29,3.66-.85,2.02-2.38,3.99-3.58,5.18-.17-.77-.6-1.59-.9-1.89-.08.13-.16.26-.25.41.03.18.09.4.18.68-.83,6.51-9.71,4.81-11.17,10,2.11-.66,4.22-1.32,6.33-1.99,5.72-1.8,10.27-2.22,15.6-1.72-1.87,1.57-4.06,1.47-5.87,2.27-1.9.84-3.93,1.42-5.91,2.08-1.95.64-3.99,1.11-5.59,2.64.09.26.19.52.28.78,2.47.4,4.68,1.37,5.41,4.17,3.25-.99,6.53-1.93,9.83-2.83,6.01-1.64,12.18-2.87,18.04-4.24,1.08.91.94,1.54.19,1.9-1.6.78-.51,2.15-.75,3.4-2.61,1.04-5.21,2.07-7.8,3.11-1.25.5-2.53.99-2.86,3.06,2.31-.74,4.45-.56,6.5-1.88,1.93-1.25,4.1-2.15,6.69-2.02,1.57.08,3.21-1.03,5.03-1.68,1.8,2.77.82,6.37,2.69,8.99-5.32,2.33-10.42,4.56-15.49,6.8-.06.03-.02.3-.04.73,1.11.02,2.22.05,3.37.08.26.66.51,1.3.84,2.13,2.81-.2,5.69-.41,8.69-.64.36.47.78,1.01,1.34,1.74,4.84-.71,9.87-1.09,14.6-3.16,1.58-.69,2.67-.15,3.79,1.19-.85,1.78-2.48,2.76-4.05,3.81-4.58,3.04-6.7,7.11-5.48,12.56,1.33,1.6,2.83,1.91,4.72,1.32,3.65-1.14,7.37-2.07,11.04-3.21,7.71-2.4,15.56-4.41,23.55-5.88,2.75-.5,5.59-.37,8.39-.5ZM324.09,10.44c0,.19.39.06,0,0h0ZM324.12,10.43s.02,0,.03,0c0,0-.02,0-.03,0ZM325.77,15.17c.17.03,0-.45,0,0,0-.03-.02-.05-.02-.07,0,.02.02.04.02.07ZM325.74,15.09s-.01-.04-.01-.04c0,0,0,.02.01.04ZM264.23,19.15c.27-.11-.06-.5,0,0h0ZM263.73,17.54c.26.04-.04-.84,0,0-.02-.05-.03-.08-.04-.11.01.03.02.07.04.11ZM264.13,19.23c-.33-.19-.53,1.04,0,0h0ZM261.34,17.87c0-.19-.39-.06,0,0h0ZM261.29,17.89c-.07.02-.05.02,0,0h0ZM261.67,20.05s.02.05.02.07c0-.02-.01-.04-.02-.07-.17-.03,0,.45,0,0ZM261.71,20.16s0,.02,0,0h0ZM259.79,19.25c.17.03,0-.45,0,0h0ZM255.76,21.69c.33.19.53-1.04,0,0h0ZM255.65,21.77c-.27.11.06.5,0,0h0ZM256.03,23.56c.21.41.72-.19,1.08-.23-.61-.69-.7-.17-1.08.23ZM247.47,26.34c-.17-.03,0,.45,0,0,0,.03.02.05.02.07,0-.02-.01-.04-.02-.07ZM247.5,26.45s0,.02,0,0h0ZM245.86,25.87c.42,1.12,1.38.11,1.4-.92-.54.55-.77.69-1.4.92ZM241.3,29.88c.17.03,0-.45,0,0-.01-.03-.02-.05-.02-.07,0,.02.02.05.02.07ZM241.28,29.81s-.01-.04-.01-.04c0,0,0,.02.01.04ZM235.05,32.26c0-.19-.39-.06,0,0h0ZM234.99,32.28c-.07.02-.05.02,0,0h0ZM230.89,33.34c.53-.13-.24-1.06.1-1.78-.7.69-.24,1.24-.1,1.78ZM225.24,32.11s.02.05.02.07c0-.02-.02-.04-.02-.07-.17-.03,0,.45,0,0ZM225.26,32.19s.01.04.01.04c0,0,0-.02-.01-.04ZM224.77,40.13c1.88-.79,1.58-.84,1.86-2.93-1.45.88-4.38-.9-1.86,2.93ZM225.32,42.13c-.07.03-.12.04-.15.05.03-.01.09-.03.15-.05-.02-.45-.62-.09,0,0ZM216.39,38.8c.91.22.72.29,1.19-.23-.35-.26-.53.09-1.19.23ZM215.03,37.71c-.25-.62.08-2.01-.71-1.48.23.52.28,1.08.71,1.48ZM220.43,41.26c.25-.06.48-.13.7-.19-.15-.52-.51-1,.13-1.11.12.39.36.81.17,1.02,5.18-1.63-3.35-2.52-5.06.97-4.68,1.29,3.35,3.09,4.07-.69ZM170.71,57.2c.17.03,0-.45,0,0h0ZM172.61,56.55s-.02-.05-.02-.07c0,.02.01.04.02.07.17.03,0-.45,0,0ZM172.59,54.99c0-.19-.39-.06,0,0h0ZM172.56,55.01s-.04.01-.05.02c.01,0,.03,0,.05-.02ZM177.63,63.15c-.17-.03,0,.45,0,0,0,.03.02.05.02.07,0-.02-.01-.04-.02-.07ZM177.67,63.26s0,.02,0,0h0ZM157,65.43c-.13-.39-.26-.79-.4-1.18-.46-.08.16,1.39.4,1.18ZM15.82,179.2c-.06-.11-.11-.21-.17-.32-.6.29-1.2.58-1.8.87.08.09.16.19.23.28.58-.28,1.16-.55,1.74-.83ZM15.4,222.03c.42-.14.85-.25,1.23-.46.14-.07.09-.46.09-.71,0-.03-.3-.11-.42-.07-.63.21-1.16.5-.89,1.24ZM14.25,222.8c.26.03.65.18.76.07.16-.16.19-.43.24-.67-.24.08-.47.15-.69.26-.13.06-.21.22-.31.34ZM18.27,224.62c-1.48.6-2.96,1.2-4.44,1.8,1.69.02,3.36.04,4.44-1.8ZM36.69,261.29s.05-.01.08-.02c-.03-.04-.06-.08-.08-.12,0,.05,0,.09,0,.14ZM414.83,169.38c1.44.13,1.9.29,2.3.18.4-.11.74-.49,1.11-.76-.12-.26-.25-.53-.37-.79-.72.33-1.45.66-3.04,1.37ZM382.76,51.31c0,.08.19.18.29.27.13-.19.27-.39.41-.57-.14-.01-.29-.02-.44-.04-.09.11-.25.22-.26.34ZM149.44,78.78c0-.19-.39-.06,0,0h0ZM149.36,78.81s.03,0,.05-.02c-.02,0-.04.01-.05.02ZM185.27,62.88c-.59-.64-.86-1.34-1.17-.18.45.26.74.78,1.17.18ZM210.2,52.03c.21-1.2.28-1.67-.82-1.11,0,1.1-.5,1.71.82,1.11ZM351.02,35.75s-.02-.06-.03-.08c0,.03.02.05.03.08.45.06-.08-1.03,0,0ZM350.91,35.43s0,.01,0,.02c0,0,0-.01,0-.02ZM376.65,149.59c-1.36.83-2.28,1.4-3.4,2.09.6.58,1.17.92,1.74,1.05.69-.16,1.43-.27,2.19-.37.04-.02.09-.04.13-.06-.23-.93-.38-1.58-.65-2.71ZM379.04,159.27c-1.04.75-2.64.5-3.58,2.04,2.43-1.27,4.85-2.47,7.29-3.5-1.3.26-2.57.64-3.7,1.46ZM98.24,285.48c-.58.21-1.16.43-1.74.64,1.2-.06,2.31-.35,3.38-.72-.51.09-1.08.09-1.64.08ZM86.51,290.54c.06.11.11.23.17.34.7-.3,1.4-.61,2.1-.91-.06-.11-.12-.22-.18-.34-.7.3-1.4.6-2.1.9ZM211.99,49.31c-.62,1.3-.41,1.35.72,1.89.85-.66.8-3.06-.72-1.89ZM58.13,280.25s-.05.05-.08.08c.01,0,.02.02.03.02.02-.04.03-.07.05-.11ZM76.08,294.34c.15,0,.37.05.46-.03.14-.11.21-.32.3-.49-.16.07-.32.14-.48.21-.08.08-.18.2-.29.31ZM219.8,294.85c1.24-.39,2.49-.79,3.73-1.18-.34.05-.69.09-1.03.12-.95.07-1.91.38-2.7,1.05ZM383.05,150.29c-.33-.41-.53-.66-.74-.9-.26.37-.55.73-.76,1.13-.03.05.44.54.54.49.35-.16.64-.46.95-.72ZM377.44,52.54c-.78.25-1.55.5-2.32.76.34.28.58.61.76.96,1.31-.47,2.65-.95,4.03-1.44-1.62-.2-2.1-.4-2.47-.28ZM374.43,25.54c0-.19-.39-.06,0,0h0ZM374.37,25.56c-.07.02-.05.02,0,0h0ZM316.12,13.4c.17.03,0-.45,0,0,0-.03-.02-.05-.02-.07,0,.02.01.04.02.07ZM312.41,9.85c0-.19-.39-.06,0,0h0ZM312.36,9.87c-.07.02-.05.02,0,0h0ZM304.07,23.74c0,.29.72.04,0,0h0ZM304.19,23.7c.15-.05.1-.03,0,0h0ZM299.91,14.6c.17.03,0-.45,0,0-.01-.03-.02-.05-.02-.07,0,.02.02.05.02.07ZM299.88,14.52s-.01-.04-.01-.04c0,0,0,.02.01.04ZM299.09,17.11c-.4-.04-.02.72,0,0h0ZM298.49,22.99c.1-.78.59-1.38-.24-1.73.08.59-.3,1.16.24,1.73ZM210.14,43.4c.37-.22-.22-.95.05-1.54-.83.29-.23.88-.05,1.54ZM204.39,41.05c.12.08.36.81.48.46-.07-.34-.23-.67-.48-.46ZM205.45,44.88c-.18.06-.09.03,0,0,0-.19-.39-.06,0,0ZM191.85,52.38c.03-.1-.16-.09,0,0h0ZM188.15,48.24c0-.19-.39-.06,0,0h0ZM188.09,48.26s.01,0,.02,0c0,0-.01,0-.02,0ZM189.81,55.59c3.17-.65,8.56-4.12,14.56-5.72,3.31-.93,5.11-4.47,8.51-4.53,3.63-5.74-9.39,1.38-10.42,2.11-1.91-1.01-3.96,1.91-5.27,3.28-2.17-.12-3.22.89-5.22,1.7.11.04.29.1.56.16-1.7.2-4.11.65-2.71,3ZM189.08,55.21c-.57-.71-.83-1.74-1.58-1.2-.32,1.94.06,1.85,1.58,1.2ZM184.74,52.78s.02.05.02.07c0-.02-.01-.04-.02-.07-.17-.03,0,.45,0,0ZM184.77,52.89s0,.02,0,0h0ZM182.76,54.17c-.25,1.22-.54,1.73.57,1.22.54.69-.25-.41-.57-1.22ZM181.39,54.95c-.21-1.11.15-1.98.49-2.77-1.11-1.11-1.01,1.93-.49,2.77ZM179.29,55.3c-.02-.45-.62-.09,0,0h0ZM179.18,55.34s0,0,.01,0c0,0,0,0-.01,0ZM179.13,55.35s-.01,0,0,0h0ZM178.31,54.25c-.14-.43-.29-.86-.43-1.3-.24.07.2,1.39.43,1.3ZM178.91,56.99c.33-.38.52-.61.64-.74-.73-1.01-.6-.11-.64.74ZM185.21,56.59c1.68-.26,1.05-1.24-.13-2.52.31,2.42-1.33,1.56-1.6,3.64-.46-3.36-2.47-.13-3.15-1.91-.06.75-.4,1.77-1.46,1.54.58,4.84,6.36.65,6.33-.76ZM177.36,54.63s.08-.03.1-.04c-.03.01-.07.02-.1.04,0,.46.63.1,0,0ZM177.75,55.23c.02.07.04.11.05.15-.01-.04-.03-.09-.05-.15-.4-.04-.02.72,0,0ZM177.81,55.41s0,.03,0,0h0ZM177.45,57.54c.7-.46.83-.33.39-1.05-.12.32-.2.53-.39,1.05ZM177.25,57.5c-.17-.03,0,.45,0,0h0ZM169.06,68.66c0,.46.63.1,0,0h0ZM169.21,68.61s.03,0,0,0h0ZM153.82,66.26c.8-.44-.24-1.56-.41-2.65-.97.93.07,1.64.41,2.65ZM153.3,66.68c.4.04.02-.72,0,0h0ZM151.77,65.54c.39-.31.66-.59.3-1.36-.48.4-.76.71-.3,1.36ZM152.11,66.14c.02.07.04.11.05.15-.01-.04-.03-.09-.05-.15-.4-.04-.02.72,0,0ZM153.6,71.32c.29,0,.03-.68,0,0h0ZM151.18,67.11s.02.05.02.07c0-.02-.01-.04-.02-.07-.17-.03,0,.45,0,0ZM152.59,70.27c-.12-.36-.22-.65-.39-1.17-.16.83-.54,1.45.39,1.17ZM151.21,67.22s0,.02,0,0h0ZM150.39,65.58s.03.08.04.11c-.01-.03-.02-.07-.04-.11-.26-.04.04.84,0,0ZM150.64,68.67c-.04-.12-.06-.18-.07-.2,0,.03.04.11.07.2.4.04.02-.72,0,0ZM150.06,66.92c-1.55-.58-1.08-1.25-1.56.72-1.83-3.11-.03,2.14,1.56-.72ZM147.71,68.17c0-.19-.39-.06,0,0h0ZM147.63,68.2s.03,0,.05-.02c-.02,0-.04.01-.05.02ZM148.38,73.48c.17.03,0-.45,0,0,0-.03-.02-.05-.02-.07,0,.02.01.04.02.07ZM146.63,71.12c.4.04.02-.72,0,0-.02-.07-.04-.11-.05-.15.01.04.03.09.05.15ZM146.57,70.94s0-.03,0,0h0ZM143.38,75.85c.39.02.02-.71,0,0h0ZM141.1,73.86c.02.07.04.11.05.15-.01-.04-.03-.09-.05-.15-.4-.04-.02.72,0,0ZM136.65,74.23c-.17-.03,0,.45,0,0h0ZM126.24,81.63c0-.19-.39-.06,0,0h0ZM126.18,81.65c-.07.02-.05.02,0,0h0ZM114.06,82.05c.07-.02.05-.02,0,0h0ZM114,82.07c0,.19.39.06,0,0h0ZM112.91,85.88c.39.02.02-.71,0,0-.02-.07-.04-.11-.05-.15.01.04.03.09.05.15ZM112.17,88.24c.66.18,2.05,1.6.88-.09,1.3-.79-.94-1.25-.88.09ZM111.21,88.89c-.38,1.92,1.39,1.12,0,0h0ZM110.58,88.48c.22.19.33.25.41.24-.12-.08-.26-.16-.41-.24ZM109.99,88.38c.14.43.07.22,0,0-.26-.04.04.84,0,0ZM110.96,90.06c-.18-.49-.31-.47-.72-.29.22.73.44.66.72.29ZM106.12,87.41c0-.19-.39-.06,0,0h0ZM106.06,87.43c-.07.02-.05.02,0,0h0ZM100.99,86.51s.04-.02.06-.02c-.02,0-.04.01-.06.02,0,.19.39.06,0,0ZM100.58,93.93c-.03-.6-.15-1.19-.33-1.7-.23.06-.46.12-.69.21-.05.22-.13.46-.2.72.16,0,.53.22,1.22.77ZM102.98,97.86c.14-.06.28-.11.43-.17.16-.13.33-.2.5-.22.23-.1.46-.2.68-.3.62-.28,1.18-.71,1.74-1.2-.11-.23-.28-.48-.03-.54.05.12.15.25.21.38.68-.63,1.38-1.35,2.21-2.05.09.02.18.03.27.05-.01-.02-.03-.04-.04-.06.15.01.27.05.38.12,3.22.44,6.54-1.61,10.36-1.39-.08-.67-.15-1.23-.21-1.78.49.24.98.33,1.45.31.11-.24.27-.32.53-.05.57-.1,1.13-.3,1.65-.52,1.64-1.03,3.44-1.77,5.24-2.51,1.37-.78,2.73-1.61,4.14-2.39.05.03.1.06.15.09.67-.6,1.38-1.1,2.12-1.53-.15-.19-.32-.41-.51-.68.7.05,1.21-.04,1.58.11,4.67-2.28,10.05-2.48,12.42-6.89,1.37.24,7.75-1.18,6.93-5.49-.95.56-1.25,1.65-1.6.25-3.72,6.19-13.88,5.32-17.77,9.11-1.73,1.55-3.95.33-4.96,3.31-1.44-.72-1.91-.67-2.17,1.19-3.04-1.64-7.62,4.63-8.11,1.62-.17.53-.29,0-.43-.31,1.72,4.7.52,1.35-3.64,2.73,1.17.63-.72.73-.51,2.22-.96-3.58-4.98,3.3-5.1-.65-.83,1.47-.72.39-1.09,2.1-.87-.41-.25-3.15-1.67-2.25,0,.17,0,.32-.02.48.08.21.16.42.23.64-.11.05-.22.08-.34.12-.48,2.12-2.26,2.01-3.23.42-.3,0-.6-.02-.9-.04.27.46.52.93.58,1.33-3.72,2.01-3.61-.08-1.46,4.46ZM32.01,158.88c.73.29,1.36.16,1.93-.49.28-.32.56-.63.86-.93-.85.38-1.63.83-2.42,1.23-.12.06-.25.13-.37.19ZM53.58,280.85c1.34-.14,2.46-.25,3.58-.36,0,0,0,0,0,0,0,0,0,0,0,0,0,0,0,0,0,0v-.02s0,0,0,0c.02-.26.04-.49.36-.6.79-.21,1.59-.21,2.4-.24,0,0,0,0,0,0,0,0,0-.01,0-.02.16,0,.37-.12.4.13.02.03-.21.1-.32.16h-.02c.36.4.87.13,1.29.18.1,0,.16-.03.26-.07.1-.17.23-.26.37-.3-.05-.13-.11-.28-.17-.44-2.14.27-4.31.54-6.65.83,0,0,0,.01.01.02-.27.56-.93.19-1.51.73ZM107.15,314.94c-.33.13-.66.25-.99.38-1.53.57-3.06,1.15-4.6,1.72.83.35,2.57.26,3.94.31,2.12-1.39,2.36-2.09,1.64-2.4ZM111.83,315.64s-.03-.08-.04-.11c.01.03.02.07.04.11.26.04-.04-.84,0,0ZM131.06,314.33c-.65.24-1.23.39-1.73.66-.12.06.03.55.06.84.58-.08,1.17-.12,1.72-.28.09-.03-.02-.57-.05-1.22ZM135.33,312.63c-.21.36-.42.72-.62,1.07.29.07.57.14.85.2.17-.24.45-.47.45-.73,0-.16-.44-.36-.68-.54ZM143.81,310.16c-.22-.06-.43-.17-.51-.12-.27.18-.49.43-.73.66.41-.18.83-.36,1.24-.54ZM213.74,296.77c.58-.19,1.16-.37,1.74-.56-.03-.19-.06-.37-.09-.55-.42.06-.87.26-1.21-.14-.53-.1-1.04,0-1.55.17.04.06.04.12.04.18.36,0,.73-.1,1.03,0,.53.18.36.45-.05.65.04.09.07.17.09.24ZM380.04,176.63c4.94-.6,5.69-.88,8.79-3.41-3.56,1.61-6.49,1.41-8.79,3.41ZM374.6,182.34c.12-.08.23-.15.35-.23-.13-.03-.26-.06-.39-.09.01.1.03.21.04.31ZM364.17,185.8c.7-.19,1.41-.33,2.08-.59.15-.06.26-.61.18-.85-.07-.2-.5-.46-.68-.41-.67.21-1.3.54-1.95.82.13.34.25.68.38,1.03ZM405.27,143.78c.3,0,.8.09.87-.04.11-.22.17-.49.21-.75-.23.28-.61.52-1.07.76,0,.01,0,.02,0,.03ZM405.06,150.57c-1.52,1.16-3.04,1.96-4.99,1.42-.41-.11-1.21.1-1.36.42-.98,2-2.7,1.76-4.37,1.88-.26.02-.44.17-.52.42.21-.02.42-.05.62-.07-.21.28-.43.55-.65.8.06.4.22.88.47,1.42,2.65-.67,5.5-.98,7.97-2.17,1.48-.71,3.25-.74,4.38-1.64,1.59-1.26,3.13-.6,4.67-.85.45-.07.87-.44,1.29-.66-1.04-3.02-1.04-3-3.51-1.61-.37.21-.92.5-1.2.35-1.03-.54-2-.33-2.81.29ZM390.71,146.75c.13.42.46.77.92,1.32.19-.06.37-.13.56-.19.16-.55.3-.9.19-1.09-.26-.49-.79-.83-1.2-1.23-.18.41-.56.89-.47,1.2ZM385.03,148.47c-.35.1-.64.58-.85.97-.05.09.38.68.51.65.55-.13,1.06-.39,1.59-.61.04-.27.09-.53.13-.79-.47-.09-.97-.33-1.38-.22ZM402.93,125.21c0,.06-.02.13-.03.19.11,0,.2-.04.29-.09-.1-.02-.19-.06-.27-.1ZM61.21,317.26c-.14-.03-.3-.12-.41-.08-.12.05-.19.21-.27.32.22.07.44.14.66.21,0-.15.01-.3.02-.44ZM353.33,183.13c-.04-.12-.08-.24-.12-.36-.81.29-1.62.57-2.43.86.04.12.08.24.12.36.81-.29,1.62-.57,2.43-.86ZM455.89,156.68c.19.35.57.58.87.85.28-.38.57-.76.99-1.33-.63-.16-1.07-.34-1.51-.32-.13,0-.44.65-.36.8ZM463.24,92.6c.52.29,1.2.97,1.52.81,1.14-.58,1.96-.59,3.22-.14,1.63.58,2.8-.6,3.69-3.09-2.84.51-5.47.98-8.09,1.45-.11.33-.22.65-.33.97ZM425.69,115.23c0,.52.02,1.03.02,1.6,1.71-.28,2.8-.8,2.98-2.38-1.5-1.05-1.64,1.99-3,.78ZM472.87,150.91c-.32.21-.59.52-.88.8.26.13.52.27.81.42.17-.17.39-.38.62-.59-.19-.22-.49-.67-.55-.64ZM436.46,244.09c-.72-.1-1.53-.44-1.91.67-.05.14.01.34.02.51.68-.05,1.37-.09,2.05-.17.12-.01.23-.21.54-.51-.46-.34-.58-.49-.71-.5ZM462.48,154.28c-.94-.04-1.88-.14-2.81-.04-.7.08-1.21.52-.63,1.61,1.11-.22,2.3-.46,3.41-.68.15-.32.27-.48.29-.64,0-.08-.16-.25-.26-.25ZM467.84,153.01c.12-.07.25-.15.37-.22-.12-.05-.24-.09-.37-.14,0,.12,0,.24,0,.36ZM448.39,159.35c.08.03.23-.11.34-.17,0-.17-.02-.33-.03-.49-.19.11-.37.2-.56.3.08.12.14.3.25.35ZM453.13,105.69c-.08-.13-.17-.26-.24-.4-.02.2-.03.41-.05.62.1-.07.2-.15.29-.22ZM454.7,105.1c.15.2.31.41.46.61.27-.18.53-.35.79-.52-.17-.21-.35-.6-.52-.59-.25.02-.49.32-.73.5ZM475.64,68.08c.85-.3,1.7-.6,2.56-.91-1.1-.53-2.17-.94-2.56.91ZM459.09,94.04c.12.54.58.99,1.15,1.88.41-.96.83-1.53.71-1.79-.24-.51-.79-.86-1.22-1.27-.23.4-.71.87-.65,1.18ZM455.31,95.57c.5-.82,2.11.55,2.31-1.4-1.99-.99-4.05-.2-5.98.18-2.06.4-4.45.26-5.84,2.59-.13.22-1.02-.66-.99.39.01.48.37.94.71,1.74.9-.67,1.68-1.29,2.5-1.82.41-.27,1.01-.66,1.34-.53.91.36,1.62,1.06,2.8.44,1.03-.55,2.37-.3,3.15-1.58ZM438.01,99.64c-.32,1.3-.02,2.51,1.93,2.67.28-1.22.56-2.46.87-3.81-1.41-.27-2.49-.13-2.8,1.14ZM428.14,100.84c-4.87,1.52-9.72,3.07-14.54,4.64-.29.09-.65.37-.76.64-.24.63-.57,1.38-.42,1.95.15.55.78,1.21,1.32,1.35,1.13.3,2.33.3,2.92-1.18.24-.58.55-1.14.97-1.99.68,1,1.03,1.85,1.65,2.34.43.34,1.33.42,1.84.18.7-.33.55-1.11.21-1.79-.21-.41-.29-.89-.51-1.61,2.85-.39,5.17,2.12,7.93.65.33-1.6,1.2-3.18.52-4.82-.52-.18-.87-.45-1.12-.36ZM436.72,110.66c-.34.17-.66.68-.71,1.08-.03.2.58.47,1.07.83.5-.62,1.24-1.14,1.18-1.53-.13-.97-1-.64-1.54-.38ZM431.57,113.68c.28-.13.57-.27.86-.41,0-.17-.02-.33-.02-.5-.28.04-.61,0-.81.16-.12.1-.03.49-.03.74ZM91.22,95.7c.11.25.22.51.35.76,0,0,.05.03.08.04-.02-.01-.04-.02-.07-.03.01.04.03.08.04.12.03-.02.06-.04.08-.06-.16-.28-.33-.56-.49-.84Z"/>
</svg>