<?xml version="1.0" encoding="UTF-8"?>
<svg id="_レイヤー_1" data-name="レイヤー 1" xmlns="http://www.w3.org/2000/svg" viewBox="0 0 131.96 131.96">
  <defs>
    <style>
      .cls-1 {
        fill: none;
        stroke: #fff;
        stroke-miterlimit: 10;
        stroke-width: 4px;
      }

      .cls-2 {
        fill: #fff;
      }
    </style>
  </defs>
  <path class="cls-1" d="M66.09,2c35.19,0,63.98,28.79,63.98,63.98h0c0,35.19-28.79,63.98-63.98,63.98h0c-35.19,0-63.98-28.79-63.98-63.98h0c0-35.19,28.79-63.98,63.98-63.98"/>
  <g>
    <path class="cls-2" d="M82.61,26.91h-33.03c-12.46,0-22.56,10.1-22.56,22.56v33.03c0,12.46,10.1,22.56,22.56,22.56h33.03c12.46,0,22.56-10.1,22.56-22.56v-33.03c0-12.46-10.1-22.56-22.56-22.56M97.97,83.08c0,8.27-6.7,14.97-14.97,14.97h-33.81c-8.27,0-14.97-6.7-14.97-14.97v-33.81c0-8.27,6.7-14.97,14.97-14.97h33.81c8.27,0,14.97,6.7,14.97,14.97v33.81Z"/>
    <path class="cls-2" d="M66.09,45.91c-11.2,0-20.28,9.08-20.28,20.28s9.08,20.27,20.28,20.27,20.28-9.08,20.28-20.27-9.08-20.28-20.28-20.28M66.09,79.32c-7.26,0-13.14-5.88-13.14-13.14s5.88-13.14,13.14-13.14,13.14,5.88,13.14,13.14-5.88,13.14-13.14,13.14"/>
    <path class="cls-2" d="M87.04,40.41c-2.61,0-4.72,2.11-4.72,4.72s2.12,4.72,4.72,4.72,4.72-2.11,4.72-4.72-2.11-4.72-4.72-4.72"/>
  </g>
</svg>