<?xml version="1.0" encoding="UTF-8"?>
<svg id="_レイヤー_1" data-name="レイヤー 1" xmlns="http://www.w3.org/2000/svg" viewBox="0 0 131.96 131.96">
  <defs>
    <style>
      .cls-1 {
        fill-rule: evenodd;
      }

      .cls-1, .cls-2 {
        fill: #fff;
      }
    </style>
  </defs>
  <path class="cls-2" d="M65.98,4c16.48,0,32.03,6.47,43.77,18.21,11.74,11.74,18.21,27.29,18.21,43.77s-6.47,32.03-18.21,43.77c-11.74,11.74-27.29,18.21-43.77,18.21s-32.03-6.47-43.77-18.21c-11.74-11.74-18.21-27.29-18.21-43.77s6.47-32.03,18.21-43.77c11.74-11.74,27.29-18.21,43.77-18.21M65.98,0h0C29.69,0,0,29.69,0,65.98h0c0,36.29,29.69,65.98,65.98,65.98h0c36.29,0,65.98-29.69,65.98-65.98h0C131.96,29.69,102.27,0,65.98,0h0Z"/>
  <path class="cls-1" d="M66.39,25.91c-24.51,0-44.38,15.91-44.38,35.54,0,17.49,15.79,32.03,36.57,34.99h0s0,0,0,0c.49.07.98.13,1.47.19,7.08,1.47.94,10.33,3.26,12.14,2.67,2.08,22.87-11.42,35.14-22.76,1.78-1.49,3.39-3.1,4.83-4.81l.03-.03c.34-.38.61-.72.82-1.03,4.2-5.43,6.63-11.83,6.63-18.68,0-19.63-19.87-35.54-44.38-35.54ZM51.91,70.46c0,1.27-1.04,2.31-2.31,2.31h-8.95c-1.27,0-2.31-1.04-2.31-2.32v-17.17c0-1.27,1.04-2.31,2.31-2.31h.19c1.27,0,2.31,1.04,2.31,2.31v14.66h6.44c1.27,0,2.31,1.04,2.31,2.31v.19ZM58.6,70.46c0,1.27-1.04,2.31-2.31,2.31h-.19c-1.27,0-2.31-1.04-2.31-2.31v-17.17c0-1.27,1.04-2.31,2.31-2.31h.19c1.27,0,2.31,1.04,2.31,2.31v17.17ZM79.56,70.46c0,.61-.24,1.19-.67,1.62h0c-.14.17-.33.31-.56.42-.33.18-.7.27-1.08.27h-.19c-.31,0-.61-.06-.88-.17-.35-.13-.67-.35-.9-.66h0c-.06-.07-.12-.15-.17-.23l-8.43-11.51v10.27c0,1.27-1.04,2.31-2.31,2.31h-.19c-1.27,0-2.31-1.04-2.31-2.31v-17.17c0-1.27,1.04-2.31,2.31-2.31h.19c.86,0,1.61.47,2.01,1.17l8.37,11.22v-10.08c0-1.27,1.04-2.31,2.31-2.31h.19c1.27,0,2.31,1.04,2.31,2.31v17.17ZM96.1,53.53c0,1.27-1.04,2.31-2.31,2.31h-6.44v3.66h6.44c1.27,0,2.31,1.04,2.31,2.31v.19c0,1.27-1.04,2.31-2.31,2.31h-6.44v3.66h6.44c1.27,0,2.31,1.04,2.31,2.31v.19c0,1.27-1.04,2.31-2.31,2.31h-8.95c-1.27,0-2.31-1.04-2.31-2.31v-17.17c0-1.27,1.04-2.31,2.31-2.31h8.95c1.27,0,2.31,1.04,2.31,2.31v.19Z"/>
</svg>