<!--?xml version="1.0" encoding="utf-8"?-->
<!-- Generator: Adobe Illustrator 25.2.3, SVG Export Plug-In . SVG Version: 6.00 Build 0)  -->
<svg version="1.1" id="_x32_" xmlns="http://www.w3.org/2000/svg" xmlns:xlink="http://www.w3.org/1999/xlink" x="0px" y="0px" viewBox="0 0 736.939 800" style="width: 165px;" xml:space="preserve">
<style type="text/css">
	.stblack{fill:#000000;}
	.st0{fill:#FFFFFF;}
</style>
<g>
	<ellipse class="st0" cx="368.465" cy="367.441" rx="342.667" ry="342.667"></ellipse>
	<path class="stblack" d="M368.469,710.554c-2.633,0-4.769,2.136-4.769,4.769c0,2.633,2.136,4.769,4.769,4.769
		c193.327-0.003,350.043-156.72,350.046-350.046C718.512,176.72,561.796,20.003,368.469,20
		C175.143,20.003,18.425,176.72,18.423,370.046c-0.002,84.75,30.135,162.508,80.266,223.064
		c50.127,60.559,120.265,103.965,200.294,120.085c2.581,0.52,5.096-1.151,5.616-3.734c0.521-2.582-1.151-5.097-3.733-5.616
		l-0.001-0.001c-77.826-15.674-146.055-57.894-194.83-116.817C57.264,528.1,27.963,452.519,27.961,370.046
		c0.002-94.044,38.105-179.141,99.732-240.776c61.635-61.628,146.732-99.731,240.776-99.733
		c94.044,0.003,179.141,38.105,240.776,99.733c61.627,61.635,99.731,146.731,99.733,240.776
		c-0.003,94.043-38.106,179.141-99.733,240.775C547.61,672.449,462.513,710.552,368.469,710.554z"></path>
	<path class="stblack" d="M341.5,685.023l-45.258,88.026c-1.204,2.343-0.281,5.217,2.062,6.422c2.342,1.205,5.216,0.281,6.422-2.061l45.258-88.026
		c1.204-2.342,0.281-5.216-2.062-6.422C345.58,681.758,342.705,682.68,341.5,685.023z"></path>
</g>
<g font-family="noto" id="svgTXT" font-size="146"><text x="49%" y="53.93000000000001%" fill="2EDF82" text-anchor="middle" font-weight="bolder" style="fill: rgb(46, 223, 130);"></text></g></svg>
