<?xml version="1.0" encoding="UTF-8"?>
<svg id="_レイヤー_1" data-name="レイヤー 1" xmlns="http://www.w3.org/2000/svg" viewBox="0 0 500 500">
  <defs>
    <style>
      .cls-1 {
        fill: #736c66;
      }
    </style>
  </defs>
  <path class="cls-1" d="M186.81,235.3c1.12-4.11,1.7-8.43,1.76-12.69,0-.67,0-1.34-.01-2.02.27.26.55.5.83.74,2.05,1.69,4.57,2.61,7.22,2.73,2.22.1,4.47-.45,6.36-1.62.09.09.19.18.31.26,2.11,1.48,4.01,3.23,5.89,5,8.07,7.61,16.72,14.57,24.85,22.12,7.73,7.18,15.33,14.51,22.6,22.16,7.31,7.69,14.32,15.69,20.71,24.17,6.47,8.58,12.14,17.65,17.41,27.01.64,1.14,1.26,2.3,1.9,3.45-.73-.74-1.46-1.47-2.2-2.18-6.63-6.39-13.82-12.49-21.67-17.34-7.93-4.9-16.83-7.6-25.21-11.57-4.41-2.09-8.82-4.17-13.42-5.82-4.53-1.63-9.13-3.02-13.59-4.83-4.29-1.73-8.23-3.95-12.14-6.42-1.95-1.23-3.91-2.43-5.9-3.6-1.98-1.18-4-2.35-6.25-2.95-1.8-.48-3.67,1.62-2.54,3.3,3.65,5.4,7.29,10.8,11.28,15.96,3.93,5.08,8.31,9.72,12.88,14.22,4.09,4.02,8.16,8.04,12.16,12.14,4.06,4.17,8.14,8.31,12.54,12.13,4.23,3.68,8.7,7.16,13.58,9.95,4.99,2.86,10.48,4.87,15.95,6.63,5.73,1.84,11.54,3.17,17.44,4.31,5.1.99,10.52,1.7,15.32,3.78,2.11.91,4.08,2.14,5.77,3.7,1.39,1.28,2.77,2.66,3.98,4.13,3.3,6.97,6.55,13.97,9.79,20.97,4.24,9.16,8.5,18.31,12.91,27.39-2.39-2.71-4.82-5.38-7.32-8-6.51-6.81-13.39-13.28-20.84-19.05-7.51-5.81-15.49-10.97-23.77-15.61-8.52-4.77-17.34-8.98-26.41-12.61-4.5-1.8-9.07-3.42-13.66-4.99-2.38-.82-4.78-1.62-7.22-2.25-1.79-.45-3.86-1.43-5.71-.85-1.34.42-2.07,2.3-.88,3.34,10.18,8.87,21.39,16.44,31.25,25.69,17.36,16.28,31.77,35.62,50.23,50.75,4.56,3.73,9.39,7.11,14.43,10.15,5.02,3.03,10.26,5.55,15.47,8.22,5.37,2.75,10.4,6.11,15.63,9.11,1.58.9,3.42,1.67,5.15,2.59,8.89,13.97,18.15,27.71,27.02,41.69,1.55,2.45,5.46.18,3.9-2.28-1.47-2.32-2.95-4.63-4.44-6.94-5.48-8.5-11.06-16.93-16.57-25.42.14-.3.23-.63.23-.94,0-.42-.12-.78-.3-1.1.1-.2.27-.56.38-.75.49-.89,1.11-1.71,1.68-2.55,1.45-2.17,2.27-4.54,2.87-7.06.62-2.62,1.06-5.28,1.7-7.89.66-2.67,1.39-5.31,2.2-7.94,2.93-9.5,7.15-18.56,10.67-27.85,3.55-9.34,6.44-18.91,10.04-28.23,3.58-9.27,8.46-17.98,11.74-27.36,1.63-4.65,2.89-9.41,4.3-14.12,1.46-4.87,3.14-9.67,4.82-14.46.43-1.21-.69-2.56-1.93-2.53-3.16.09-5.96,1.58-8.55,3.27-2.64,1.72-5.24,3.5-7.76,5.39-5.36,4.02-10.22,8.51-14.39,13.76-3.72,4.67-6.99,9.66-10.21,14.68-3.32,5.17-6.49,10.44-9.43,15.83-5.55,10.14-10.44,20.62-12.92,31.97-2.39,10.93-2.91,22.53-.19,33.46.08.32.18.64.26.96-1.54-2.55-3.05-5.11-4.54-7.69-9.69-16.78-17.8-34.38-25.92-51.96.05-.23.04-.49-.07-.79-.34-.96-.67-1.93-1.01-2.9.65-.77.57-1.96-.01-2.79.82-1.85,1.79-3.64,2.83-5.38.67-1.12,1.32-2.22,2.18-3.19.89-1.01,1.74-2.04,2.51-3.15,3.08-4.49,5.91-9.27,8.37-14.12,4.56-8.99,7.83-18.84,9.97-28.68,2.26-10.39,2.32-20.9,2.6-31.48.28-10.34.9-21.2,5.1-30.8,2.08-4.75,4.74-9.23,7.21-13.78,2.53-4.65,5.21-9.22,7.48-14,.43-.9.39-1.96-.35-2.7-.66-.66-1.89-.9-2.7-.35-5.18,3.51-10.69,6.51-15.85,10.05-4.88,3.34-9.32,7.24-13.24,11.67-6.55,7.4-11.62,15.97-15.48,25.04-4.17,9.79-7.23,20.12-9.23,30.57-2.22,11.59-3.21,23.47-2.42,35.26.02.36.06.73.09,1.09-1.3-5.09-2.53-10.2-3.7-15.32-3.82-16.71-7.61-33.48-10.27-50.42-.74-4.73-1.33-9.47-1.81-14.21.44-.31.74-.81.74-1.51,0-2.28.1-4.56.04-6.84-.05-2.11-.09-4.3.3-6.38.35-1.9.81-3.84,1.5-5.64.67-1.73,1.96-2.92,3.28-4.17,3.02-2.88,5.71-6.18,8.47-9.31,2.88-3.25,5.74-6.53,8.55-9.85,5.64-6.67,10.91-13.6,16.18-20.57,5.2-6.88,10.49-13.7,16.18-20.19,2.94-3.35,5.92-6.67,8.97-9.91,1.28-1.36,2.62-2.67,3.92-4.01,1.22-1.25,2.47-2.71,2.83-4.47.28-1.38-.6-2.48-1.98-2.6-4.82-.4-9.6.56-14.18,2.02-4.22,1.35-8.36,3.02-12.33,4.99-6.95,3.44-13.42,7.84-19.27,12.93-5.53,4.81-9.94,10.79-13.59,17.12-3.66,6.34-6.48,13.06-9.21,19.83-.46,1.15-.94,2.3-1.4,3.45-.21-2.51-.46-5.02-.8-7.52,0,0,0-.02,0-.03.13-12.37.63-24.76,1.89-37.03.87-8.5,2.56-16.79,4.52-25.09,1.62-6.85,3.4-13.71,4.72-20.63,1.12.18,2.29.22,3.37.29,1.49.09,2.98.12,4.47.14,6.31.05,12.73.15,18.92-1.25,2.77-.63,5.67-1.53,8.06-3.1,1.19-.78,2.28-1.77,3.29-2.75.97-.95,1.28-2.1,1.21-3.35.26-1.57-.3-2.97-1.66-3.92-1.25-.87-2.52-1.69-4.03-2.14-3.03-.9-6.49-.74-9.58-.27-5.76.87-11.02,3.65-16.13,6.35,1.13-1.11,2.17-2.29,3.15-3.54,2.98-3.83,5.63-8.01,7.91-12.29,4.16-7.8,7.06-16.27,8.95-24.89,1.94-8.85,3.03-18.06,2.64-27.12-.36-8.61-2.24-16.94-4.66-25.18-2.25-7.65-5.13-15.24-10.2-21.49-.51-.63-1.46-.74-2.2-.58-1.56.34-2.83,1.38-4,2.41-1.13.99-2.29,1.94-3.41,2.95-2.49,2.23-4.74,4.71-6.84,7.3-4.36,5.39-7.7,11.32-10.59,17.6-2.62,5.69-4.74,11.47-5.91,17.64-1.14,6.02-1.56,12.18-1.61,18.3-.09,12.05,1.51,24.3,5.49,35.7-3.72-2.94-7.86-5.31-12.38-6.75-2.51-.8-5.15-1.57-7.8-1.16-1.6.25-3.29.71-3.7,2.48-.26,1.12-.3,2.34.02,3.46.66,2.33,2.45,4.35,4.17,5.99,1.77,1.69,3.7,3.23,5.64,4.71,3.95,3.02,8.25,5.57,12.81,7.55,3.13,1.36,6.48,2.75,9.9,3.57.31.53.65,1.03,1.05,1.48-.23.9-.46,1.81-.69,2.72-2.13,8.44-4.34,16.85-6.26,25.33-1.87,8.23-2.95,16.59-3.6,24.99-.74-3.54-1.56-7.06-2.51-10.55-1.78-6.5-4.06-12.89-6.45-19.2-2.37-6.27-5.02-12.46-8.32-18.29-3.39-5.99-7.5-11.58-11.64-17.05-2.13-2.82-4.25-5.68-6.49-8.42-2.04-2.49-4.47-4.66-6.33-7.28-.6-.85-1.55-1.23-2.55-.83-.89.36-1.5,1.45-1.18,2.41.86,2.6,1.34,5.3,1.98,7.95.65,2.69,1.42,5.35,2.17,8.02,1.44,5.15,2.62,10.36,3.86,15.56,1.12,4.68,2.29,9.34,3.7,13.94,1.38,4.51,2.9,9.04,5.12,13.21,2.15,4.02,4.83,7.71,7.36,11.49,2.74,4.09,5.13,8.41,7.76,12.57,2.44,3.88,4.89,7.77,6.84,11.93.98,2.08,1.98,4.23,2.68,6.42.65,2.04.57,4.18,1.34,6.2.41,1.08.91,2.13,1.17,3.26.05.23.1.47.14.7-.08,7.01-.03,14.03.13,21.02.2,8.78.52,17.59,1.28,26.34.75,8.61,1.97,17.19,3.48,25.7,3.01,17.01,7.03,33.88,11.25,50.63,2.19,8.69,4.58,17.33,7.19,25.9-7.34-15.43-15.04-30.69-23.79-45.37-4.64-7.78-9.82-15.18-15.38-22.3-.02-.13-.03-.25-.05-.38-.12-.86-.33-1.7-.57-2.53-.24-.83-.52-1.65-.8-2.47.62-.3,1.08-.89,1.07-1.79-.16-9.81-1.15-19.63-3.52-29.17-4.22-16.98-11.03-33.17-15.81-49.99-1.18-4.17-2.12-8.37-2.77-12.66-.65-4.28-1.02-8.58-1.47-12.88-.39-3.66-1.02-7.34-1.17-11.02-.11-2.65.02-6.17-1.68-8.38-.98-1.28-2.95-1.6-3.88,0-1.32,2.29-2.09,4.74-2.38,7.36-.29,2.62-.88,5.2-1.42,7.78-1.15,5.45-2.29,10.83-2.8,16.39-.87,9.52-.47,19.14.24,28.65.7,9.39,1.97,18.81,4.78,27.82,1.43,4.59,3.26,9.1,5.42,13.45-6.79-6.76-13.75-13.37-20.89-19.76-4.29-3.84-8.72-7.54-13.07-11.31-3.87-3.35-7.34-7.18-11.67-9.94.94-1.49,1.44-3.24,1.5-5.09.04-1.11-.12-2.17-.4-3.18-.02-.09-.05-.19-.07-.28-.02-.05-.03-.11-.05-.16-.1-.34-.22-.68-.36-1-.02-.05-.05-.11-.07-.16-.05-.12-.11-.24-.17-.35-.59-1.27-1.37-2.47-2.26-3.6-1.9-2.39-4.29-3.85-7.03-5.05,3.39-11.75,5.19-24.12,4.98-36.35-.09-5.42-.56-10.88-1.64-16.2-.94-4.65-2.29-9.75-4.88-13.78-1.83-2.84-5.39-6.54-9.18-5.53-2.23.6-3.32,2.68-3.94,4.73-.71,2.37-.84,4.9-.97,7.35-.18,3.55.01,7.09.42,10.61-.43-1.5-.85-3-1.26-4.5-1.67-6.09-3.36-12.17-6.9-17.49-2.83-4.25-7.41-9.01-12.93-9.09-2.2-.03-4.01,1.17-5.23,2.86-.99-.41-1.93-.94-2.92-1.36-2.21-.93-4.42-1.86-6.68-2.65-3.71-1.3-7.66-2.29-11.61-1.72-1.78.26-3.56.87-4.93,2.07-1.28,1.13-2.04,2.73-2.5,4.35-1.04,3.66-1.57,7.88-.16,11.5.84,2.16,2.03,4.19,3.35,6.13-2.41-1.23-4.93-2.29-7.48-3.21-3.9-1.41-9-2.43-12.67.16-3.45,2.43-4.69,7.01-4.45,11.05.28,4.61,2.08,8.92,4.91,12.54.14.18.3.35.44.52-1.57-.56-3.17-1.01-4.81-1.37-5.83-1.26-12.1-1.44-17.04,2.42-2.26,1.76-3.88,4.23-4.17,7.12-.3,2.97,1.21,5.66,3.07,7.84,1.93,2.26,4.39,4.16,6.78,5.91,1.59,1.16,3.25,2.22,4.96,3.2-1.9-.16-3.82-.19-5.72-.11-3.39.14-6.8.62-9.91,2.04-3.21,1.47-5.52,4.29-6.86,7.5-1.33,3.2-1.68,6.96-.57,10.28,1.05,3.13,3.2,5.57,5.82,7.5,5.47,4.02,12.92,5.82,19.6,5.84,2.8,0,5.57-.26,8.32-.68-1.5.9-2.96,1.85-4.32,2.89-2.66,2.04-5.76,4.6-7.24,7.67-1.64,3.4-.12,7.49,2.81,9.65,2.6,1.92,6.32,2.33,9.44,2.74,3.59.47,7.28.48,10.81-.38,1.85-.45,3.59-1.16,5.25-2.03-1,2.91-1.43,6.05-.67,9,1.31,5.09,6.4,7.92,11.45,6.76,2.49-.57,4.71-1.93,6.8-3.36,2.22-1.52,4.41-3.08,6.56-4.69,4.04-3.04,7.95-6.26,11.62-9.73-1.82,2.25-3.65,4.49-5.43,6.77-1.48,1.88-2.92,3.8-4.2,5.82-1.31,2.06-1.97,4.14-.94,6.48,1.72,3.92,6.82,3.71,10.39,3.13,4.09-.67,7.82-2.73,11.05-5.26,6.46-5.06,10.92-12.36,13.07-20.24ZM324.88,58.15c-.63,7.9-2.24,15.61-4.91,23.07-2.65,7.41-6.06,14.53-9.44,21.63-1.31,2.74-2.79,5.4-4.17,8.1.63-5.97.95-11.97,1.26-17.96.41-7.97.83-15.97,1.47-23.92.66-8.15,2.24-16.15,4.16-24.09,1.86-7.69,4.08-15.27,6.76-22.71,1.22-3.38,2.44-6.79,4.01-10.02,0-.02.02-.03.02-.05.18,2.79.26,5.58.29,8.38.06,4.52.33,9.01.64,13.52.55,7.97.52,16.08-.11,24.05ZM300.77,112.32c.57,1.26,1.22,2.63,1.84,3.94-.37-.13-.74-.27-1.11-.4-5.35-1.96-10.39-4.49-15.03-7.81-2.16-1.54-4.24-3.23-6.18-5.04-.99-.92-1.95-1.9-2.67-3.06-.35-.56-.54-.96-.61-1.4,1.17-.17,2.25,0,3.56.34,1.64.42,3.26.88,4.81,1.54,3.01,1.28,5.89,3.13,8.47,5.14,2.56,1.99,4.84,4.28,6.92,6.74ZM324.12,6.14c-.35.14-.6.46-.54.97.03.24.05.49.08.73-.7,1.77-1.73,3.48-2.43,5.11-1.7,3.92-3.15,7.97-4.53,12.01-2.57,7.51-4.66,15.16-6.43,22.89-1.78,7.78-3.05,15.61-3.6,23.58-.55,7.96-1,15.93-1.42,23.9-.24,4.63-.51,9.26-.96,13.88-1.27-2.85-2.48-5.74-3.5-8.7-1.7-4.93-2.94-10.01-3.8-15.14-1.7-10.16-1.91-20.72-.78-30.96,1.14-10.28,4.83-19.82,9.76-28.85,2.4-4.41,5.25-8.49,8.58-12.25,1.7-1.92,3.5-3.74,5.45-5.41.83-.71,1.67-1.41,2.49-2.13.28-.25.57-.5.87-.72.26.36.52.72.77,1.09ZM316.22,121.08c2.65-1.14,5.18-2.75,7.67-4,4.54-2.27,9.31-4.15,14.47-4.12,1.98.01,4.05.13,5.73,1.3.12.08.43.42.68.6-.03.19-.05.39-.07.55-.04.02-.08.05-.12.08-.51.28-.9.92-1.35,1.3-1.58,1.33-3.62,2.07-5.57,2.65-2.46.73-5,1.17-7.55,1.39-4.58.4-9.26.42-13.88.26ZM309.38,116.42c-.6-.92-1.23-1.82-1.86-2.72.44-.9.88-1.8,1.34-2.68,2.04-3.9,4-7.82,5.87-11.8,3.26-6.95,6.45-13.97,8.73-21.32,2.31-7.45,3.47-15.17,3.89-22.95.43-8,.25-16-.32-23.99-.52-7.19-.24-14.42-.95-21.59,2.9,5.34,4.69,11.33,6.28,17.12,2.23,8.09,3.71,16.2,3.68,24.62-.03,8.62-1.27,17.3-3.39,25.65-2.06,8.1-5.02,15.98-9.28,23.18-2.08,3.52-4.29,7.08-6.96,10.18-2.08,2.41-4.64,4.24-7.02,6.31ZM294.75,189.18c-1.42-2.9-2.74-5.84-3.99-8.81-3.12-7.48-5.56-15.23-8.63-22.72-3.05-7.44-6.81-14.59-10.44-21.75-.5-.99-2.23-.27-1.8.76,1.73,4.2,3.81,8.23,5.8,12.3,1.8,3.68,3.55,7.39,5.02,11.22,1.45,3.78,2.75,7.62,4.17,11.42,1.52,4.06,3.11,8.1,4.84,12.08-1.6-2.71-3.3-5.36-4.95-8.04-2.56-4.17-5.01-8.38-7.78-12.41-2.6-3.79-5.23-7.6-7.2-11.77-1.99-4.23-3.32-8.83-4.59-13.31-1.31-4.63-2.44-9.3-3.56-13.98-1.13-4.72-2.33-9.41-3.66-14.08-.53-1.86-1.04-3.73-1.52-5.6.45.51.9,1.02,1.33,1.55,2.43,3,4.8,6.07,7.14,9.14,4.14,5.44,8.15,11.02,11.4,17.04,3.11,5.74,5.61,11.79,7.89,17.9,2.38,6.38,4.64,12.82,6.34,19.42,1.68,6.49,2.94,13.08,4.15,19.67ZM308.17,227.59c-.54.6-1.08,1.21-1.61,1.82,3.47-6.53,6.06-13.51,10.18-19.69,4.39-6.57,9.68-12.48,14.57-18.67.89-1.13-.7-2.74-1.6-1.6-2.79,3.53-5.7,6.96-8.51,10.48-2.47,3.1-4.88,6.25-7.04,9.58-2.06,3.19-3.71,6.63-5.32,10.06-1.63,3.48-3.24,6.98-5.13,10.32-.87,1.53-1.79,3-2.51,4.61-.15.33-.3.67-.45,1-.21.26-.43.52-.62.8-.41.6-.74,1.26-1.02,1.94-.04-.97-.07-1.93-.1-2.9.63-.37,1.06-1.06,1.07-1.83.02-1.75.02-3.51,0-5.26.34-2.31,1.03-4.6,1.78-6.75,1.31-3.77,2.91-7.44,4.4-11.13,2.57-6.36,5.51-12.6,9.13-18.43,3.7-5.96,8.14-11.18,13.56-15.64,5.61-4.62,11.84-8.49,18.42-11.56,3.41-1.58,6.94-2.95,10.54-4.03,2.62-.79,5.29-1.36,7.99-1.53-.49.48-1.01.94-1.45,1.37-1.69,1.65-3.29,3.41-4.9,5.14-3.41,3.68-6.77,7.41-10.01,11.24-5.69,6.71-11.01,13.71-16.34,20.71-5.25,6.9-10.7,13.62-16.38,20.16-2.86,3.28-5.75,6.53-8.66,9.77ZM362.51,438.21c-2.39-10.6-1.77-21.71.74-32.23,2.66-11.11,7.64-21.27,13.18-31.21,2.98-5.35,6.17-10.56,9.47-15.71,3.09-4.81,6.22-9.61,9.88-14,3.72-4.47,8.01-8.39,12.66-11.87,2.24-1.68,4.54-3.28,6.86-4.84,1.15-.78,2.4-1.61,3.73-2.22-1.41,4.33-2.94,8.62-4.24,12.99-1.6,5.33-3.15,10.68-5.26,15.84-1.86,4.53-4.08,8.91-6.14,13.36-2.12,4.57-4.02,9.24-5.78,13.96-3.5,9.38-6.53,18.92-10.2,28.24-3.69,9.34-7.8,18.51-10.5,28.21-.66,2.38-1.27,4.77-1.77,7.19-.48,2.33-.92,4.67-1.61,6.94-.49,1.6-1.35,2.93-2.26,4.27-.37-.61-.75-1.22-1.14-1.82-.03-.11-.09-.21-.16-.3-.04-.04-.08-.08-.12-.12-.23-.35-.46-.7-.69-1.05-.37-.57-.73-1.15-1.08-1.73.09-1.44-.32-2.76-.56-4.17-.54-3.23.45-6.72.71-9.94.25-3.09.39-6.19.9-9.26.51-3.03,1.25-6.02,2.02-8.99,1.45-5.54,2.95-11.03,5.06-16.37,4.16-10.55,9.9-20.38,15.45-30.23.61-1.08-1.05-2.05-1.67-.97-3.3,5.83-6.66,11.63-9.73,17.58-2.64,5.13-5.08,10.38-7.08,15.79-2.14,5.79-3.73,11.82-5.15,17.82-.71,3.01-1.28,6.05-1.57,9.13-.3,3.16-.46,6.33-.89,9.48-.2,1.48-.39,2.96-.38,4.46-1.14-2.66-2.05-5.42-2.68-8.22ZM345.71,426.85c1.34,2.45,2.71,4.89,4.09,7.32-.15-.14-.29-.27-.44-.41-4.9-4.51-9.93-8.9-15.04-13.17-2.64-2.21-5.32-4.39-8.01-6.55-2.57-2.06-5.28-3.95-7.82-6.04-5.13-4.22-9.4-9.36-13.86-14.25-4.56-4.99-9.05-10.03-13.41-15.19-.79-.94-2.05.4-1.33,1.33,4.65,6.01,9.7,11.7,14.84,17.3,4.37,4.76,8.54,9.71,13.75,13.59,5.46,4.06,10.73,8.36,15.93,12.74,4.99,4.2,9.92,8.48,14.68,12.94,1.71,1.6,3.38,3.25,4.95,4.97.26.44.52.88.79,1.32,1.39,2.31,2.8,4.62,4.23,6.91-5.5-3.26-10.86-6.66-16.6-9.49-10.46-5.15-20.4-11.03-29.26-18.68-9.1-7.86-17.28-16.68-25.4-25.53-8.06-8.79-16.14-17.61-25.06-25.55-6.99-6.23-14.59-11.71-21.95-17.49,2.15.69,4.28,1.44,6.41,2.18,5.01,1.74,9.97,3.64,14.84,5.72,16.98,7.24,33.44,16.51,47.77,28.21,13.48,11,25.19,24.14,35.89,37.83ZM323.38,302.25c2.15-9.85,5.12-19.65,9.31-28.83,4.03-8.83,9.26-17.15,16.05-24.13,3.62-3.72,7.61-6.93,11.95-9.76,2.36-1.54,4.78-3,7.19-4.47-1.54,2.82-3.12,5.62-4.65,8.44-2.81,5.16-5.8,10.25-7.77,15.81-3.58,10.11-3.99,21.13-4.23,31.75-.12,5.41-.18,10.84-.63,16.24-.42,5.04-1.33,10.02-2.57,14.92-2.44,9.68-5.83,19.18-10.73,27.9-1.18,2.09-2.43,4.14-3.71,6.16-1.28,2.02-2.43,4.15-4.02,5.95-1.91,2.17-3.53,4.65-4.88,7.26-.1-.31-.19-.62-.29-.92.41-1.04.64-2.19.88-3.2.67-2.82,1.51-5.6,2.17-8.42,1.36-5.85,2.86-11.67,4.18-17.53,1.36-6.04,2.58-12.11,3.71-18.19,2.25-12.03,4.18-24.13,6.23-36.2.24-1.42-1.93-2.03-2.18-.6-1.13,6.68-2.23,13.37-3.37,20.05-2.01,11.81-4.14,23.61-6.79,35.29-1.32,5.79-2.78,11.54-4.14,17.32-.57,2.43-1.3,4.81-1.88,7.23-.35-2.45-.73-4.89-1.08-7.33-.95-6.61-1.82-13.19-2.03-19.87-.35-11.73.78-23.4,3.29-34.87ZM301.99,340.04c.65,1.05,1.27,2.12,1.87,3.2-1-1.07-2.04-2.11-3.12-3.1-4.21-3.85-9.07-6.94-14.01-9.75-5.23-2.97-10.7-5.36-16.27-7.62-5.64-2.29-11.06-4.81-16.17-8.13-5.12-3.32-9.98-7.02-15.18-10.22-1.02-.62-1.89.93-.93,1.58,5.56,3.79,10.86,7.98,16.56,11.56,5,3.14,10.37,5.43,15.83,7.64,5.62,2.28,11.11,4.78,16.35,7.84,4.82,2.81,9.47,5.89,13.49,9.78,2.44,2.37,4.64,4.95,6.69,7.65-.8-.38-1.61-.74-2.46-1.04-5.32-1.89-11.04-2.65-16.56-3.75-5.74-1.14-11.37-2.62-16.91-4.51-5.31-1.8-10.46-3.95-15.2-6.97-4.64-2.96-8.89-6.49-12.93-10.2-4.21-3.88-8.17-8.02-12.17-12.12-4.1-4.19-8.35-8.22-12.47-12.38-3.92-3.95-7.61-8.09-10.95-12.54-1.71-2.27-3.35-4.58-4.96-6.91,1.86,1.13,3.7,2.3,5.55,3.44,4.51,2.79,9.26,4.95,14.23,6.81,4.43,1.66,9,2.96,13.39,4.72,4.27,1.7,8.35,3.82,12.56,5.67,4.2,1.84,8.52,3.4,12.73,5.21,4.17,1.8,8.15,3.95,11.95,6.45,3.77,2.48,7.31,5.27,10.75,8.18,3.5,2.97,6.95,6.02,10.17,9.3,3.08,3.14,5.88,6.45,8.2,10.2ZM249.9,243.52c-2.47-8.77-3.54-17.84-4.12-26.91-.61-9.49-.91-19.06.19-28.53.55-4.76,1.7-9.38,2.66-14.06.19-.9.38-1.81.57-2.72.4,3.87.91,7.74,1.31,11.62.45,4.35.97,8.7,1.77,13,.79,4.27,1.94,8.45,3.21,12.6,2.52,8.24,5.38,16.38,8.15,24.53,2.77,8.13,5.51,16.32,7.42,24.7,1.78,7.8,2.59,15.76,2.84,23.74-.14.06-.27.14-.39.23-1.61-4.39-3.2-8.79-4.75-13.21-2.77-7.87-5.57-15.78-7.81-23.82-2.21-7.93-3.86-16.01-5.76-24.03-.28-1.2-2.06-.68-1.83.5.9,4.59,1.79,9.18,2.82,13.73,3.47,15.34,8.85,30.19,14.25,44.95-.38-.47-.75-.94-1.15-1.4-3.14-3.58-6.09-7.22-8.65-11.24-4.66-7.32-8.38-15.34-10.73-23.7ZM130.64,245.39c.3-3.43,2.08-7.13,4.46-9.81.22-.25.45-.48.68-.71,1.34-.98,2.69-1.95,4.06-2.83,3-1.93,6.09-3.7,9.23-5.38,3.25-1.62,6.5-3.27,9.76-4.87,4.65-2.29,9.38-4.29,14.34-5.82,2.38-.74,4.79-1.4,7.19-2.09-.66.81-1.35,1.6-2.05,2.38-2.06,2.29-4.2,4.51-6.33,6.73-4.14,4.31-8.27,8.67-12.63,12.75-3.66,3.43-7.54,6.61-11.58,9.58-2.04,1.5-4.1,2.98-6.21,4.37-1.68,1.11-3.56,2.26-5.61,2.47-1.77.18-3.6-.72-4.47-2.11-.88-1.42-1.01-2.88-.86-4.65ZM119.6,173.23s0-.01.01-.02c.16-.09.38-.21.36-.22.14-.05.28-.1.41-.14.37-.11.75-.18,1.13-.24.02,0,.03,0,.04,0,.32-.03.64-.06.96-.08.34-.02.68-.03,1.02-.04.52.31,1.2.33,1.7.06,2.42.14,4.83.6,7.18,1.18,5.16,1.26,10.09,3.27,14.84,5.61,4.8,2.37,9.49,4.95,13.88,8.03,4.31,3.02,8.36,6.4,12.43,9.74,1.57,1.29,3.17,2.55,4.77,3.81-1.44-.51-2.88-1.02-4.32-1.52-6.13-2.11-12.3-4.11-18.43-6.21-5.02-1.72-10.07-3.35-14.99-5.32-4.78-1.91-9.29-4.28-13.54-7.18-1.96-1.34-3.86-2.79-5.55-4.45-.71-.7-1.49-1.5-1.81-2.46-.04-.14-.07-.28-.1-.42.03-.02.06-.07-.01-.05,0,0,0,0,0,0,.12-.07.09-.07.03-.05ZM160.26,178.91c-4.08-3.41-8.18-6.81-12.01-10.51-3.48-3.37-6.95-7.01-9.45-11.19-1.45-2.43-4.32-9.25.18-10.02,2.11-.36,4.48.58,6.4,1.47,2.2,1.01,4.29,2.24,6.25,3.68,4.19,3.08,7.24,7.11,10.13,11.38,2.28,3.35,4.47,6.77,6.62,10.2,2.58,5.27,5.23,10.48,8.17,15.57,1.51,2.62,3.05,5.22,4.61,7.81-2.14-2.11-4.32-4.16-6.56-6.16-4.68-4.18-9.54-8.18-14.35-12.21ZM181.81,207.15c.57.15,1.14.3,1.71.46-1.25.19-2.53.27-3.79.41-3.58.39-7.07,1.17-10.6,1.84-6.09,1.16-12.33,1.31-18.51,1.53-6.34.22-12.7.21-19.04-.09-6.14-.29-12.43-.64-18.44-2.04-2.63-.62-5.35-1.39-7.73-2.71-1.14-.63-2.23-1.41-3.06-2.43-.55-.69-.7-.96-.42-1.48.57-.4,1.15-.83,1.75-1.15.65-.36,1.42-.55,2.13-.8,1.49-.51,2.95-.97,4.5-1.27,3.11-.62,6.27-.83,9.43-.96,11.97-.5,24.06.4,35.83,2.64,5.88,1.12,11.69,2.56,17.51,3.96,2.91.7,5.83,1.36,8.73,2.11ZM112.48,224.06c3.07-1.77,6.18-3.44,9.36-5.01,1.43-.71,2.85-1.39,4.38-1.84,1.14-.34,2.22-.69,3.02-1.51.78.04,1.56.08,2.34.12,6.47.31,12.96.32,19.43.08,3.69-.13,7.38-.27,11.06-.59-3.46,1.53-6.84,3.22-10.21,4.94-7.52,3.83-16.21,6.99-21.36,13.9-3.05,2.09-6.22,3.98-9.84,4.73-3.11.64-6.44.45-9.56-.05-1.57-.25-3.15-.56-4.69-1.01-1.06-.3-2.03-.68-2.76-1.46-.73-.77-1.32-2.04-1.13-3.12.21-1.23,1.48-2.48,2.31-3.34,2.28-2.34,4.82-4.21,7.65-5.84ZM108.71,194.66c.27.1.54.21.82.31-1.11.2-2.22.45-3.29.8-1.46.48-3.14.88-4.5,1.59-1.48.78-3.23,1.92-3.95,3.45-.59,1.25-.69,2.65-.21,3.96,1.01,2.75,3.75,4.8,6.29,6.06,2.71,1.34,5.67,2.25,8.62,2.91,1.58.35,3.17.63,4.78.86-5.59,1.12-11.2,2.11-16.92,1.77-5.54-.34-11.96-2.09-16.17-5.7-1.94-1.66-3.31-3.59-3.67-6.14-.4-2.81.47-5.79,2.12-8.07,3.36-4.65,10.47-4.63,15.68-4.36,3.68.19,6.98,1.25,10.4,2.56ZM116.44,169.96c-.59.59-1.03,1.33-1.23,2.27-.57,2.65,1.14,5.16,2.9,6.95,1.87,1.9,4.04,3.54,6.22,5.07,7.25,5.04,15.38,8.22,23.64,11.1-6.04-.79-12.12-1.35-18.22-1.5-2.46-.06-4.95-.07-7.43-.01-.15-.71-.71-1.28-1.43-1.57-5.87-2.3-11.89-4.28-17.45-7.3-2.43-1.32-4.8-2.81-7-4.5-1.99-1.53-4.1-3.22-5.64-5.22-1.28-1.66-2.07-3.59-1.18-5.56.83-1.83,2.71-3.19,4.52-3.97,4.68-2.01,10.45-.66,15.08.84,2.56.83,4.83,2.17,7.21,3.4ZM132.92,147.01s.08.06.13.08c-.77,1.85-.8,4.04-.47,5.98.44,2.57,1.62,5,3,7.18,3.59,5.66,8.36,10.46,13.42,14.93-1.37-.65-2.76-1.28-4.14-1.88-5.39-2.33-10.96-4.16-16.79-4.97-1.18-.16-2.79-.35-4.48-.36-.13-.36-.38-.68-.8-.93-3.78-2.18-7.49-4.41-10.03-8.06-2.15-3.1-3.44-6.75-3.44-10.55,0-2.73.84-6.22,3.59-7.44,3.57-1.58,8.08.29,11.41,1.64,1.97.8,3.9,1.68,5.77,2.72.96.53,1.9,1.08,2.84,1.65ZM158.85,152.82c.18.47.38.93.57,1.39-3.1-3.5-6.91-6.45-11.07-8.55-3.37-1.7-8.48-3.71-12.18-1.9-1.16-1.59-2.28-3.19-3.32-4.86-.98-1.57-2.01-3.21-2.59-4.98-.97-2.92-.4-6.37.54-9.25.36-1.08.9-2.12,1.91-2.69,1.21-.69,2.66-.89,4.03-.92,3.33-.06,6.6,1,9.7,2.12,1.72.62,3.42,1.3,5.09,2.02.84.36,1.63.79,2.47,1.15.03.01.07.03.1.04-.63,2.28-.66,4.78-.51,7.09.42,6.69,2.84,13.16,5.26,19.34ZM185.77,141.47c.09-2.19.13-4.42.7-6.55.22-.82.51-1.46.94-1.97,0,0,.02-.01.03-.02.08,0,.18-.02.15-.02,0,0,.01,0,.02,0,.11.02.29.05.3.05.37.11,1.04.49,1.35.73.61.47,1.16,1.04,1.66,1.63,1.23,1.45,2.05,3.3,2.71,5.07,3.39,9.19,4.21,19.12,3.93,28.84-.29,10.21-1.97,20.39-4.81,30.2-.22.76-.05,1.4.32,1.87-.02,0-.04.01-.06.02-.19.02-.37.05-.55.07.03-1.26-.02-2.52-.06-3.77-.1-2.93-.29-5.85-.46-8.78-.34-5.91-.92-11.77-2.02-17.58-1.86-9.81-4.54-19.71-4.14-29.78ZM185.52,196.35c-1.43-2.95-2.99-5.82-4.59-8.68-2.47-4.42-5.05-8.77-7.71-13.07-1.01-2.05-2.01-4.1-3-6.15-2.76-5.73-5.43-11.5-7.76-17.41-2.28-5.78-4.6-11.87-4.99-18.12-.14-2.27-.28-5.06.89-7.11.4-.71,1.08-1.51,1.91-1.66,1.01-.18,2.2.24,3.11.65,4.64,2.08,7.69,6.95,9.77,11.39,1.25,2.67,2.1,5.52,2.9,8.35.87,3.12,1.73,6.25,2.61,9.36,1.79,6.32,3.44,12.63,4.7,19.09,1.25,6.4,3.08,12.71,4.04,19.16.42,2.84.56,5.69.8,8.54.03.35.06.71.1,1.06-.34-.57-.67-1.14-1.01-1.72-.61-1.22-1.19-2.46-1.78-3.67ZM181.54,237.03c-2.29,6.46-6.61,12.49-12.37,16.28-2.88,1.9-6.15,3.24-9.64,3.27-.78,0-1.65-.04-2.17-.15-.15-.03-.3-.07-.45-.12-.04-.01-.06-.02-.08-.02,0,0,0,0,0,0-.02,0-.1-.06-.17-.1-.02-.05-.19-.24-.13-.11-.21-.44-.38-.79-.14-1.38.31-.75.89-1.47,1.34-2.15,2.24-3.36,4.88-6.42,7.42-9.56,2.7-3.32,5.29-6.74,8.02-10.04,2.61-3.16,5.49-5.91,8.45-8.74.85-.81,1.66-1.66,2.44-2.52,0,1.18-.03,2.37-.11,3.55-.28,4.01-1.07,8-2.41,11.79Z"/>
</svg>