<?xml version="1.0" encoding="UTF-8"?>
<svg id="_レイヤー_1" data-name="レイヤー 1" xmlns="http://www.w3.org/2000/svg" viewBox="0 0 130.04 121.71">
  <defs>
    <style>
      .cls-1 {
        fill: #fff;
      }
    </style>
  </defs>
  <path class="cls-1" d="M65.02,70.37l61.51-52.65c-1.27-1.05-2.81-1.68-4.48-1.68H8c-1.67,0-3.22.63-4.48,1.68l61.51,52.65Z"/>
  <g>
    <path class="cls-1" d="M129.52,98.91c.15-.68.25-1.38.25-2.12V26.01l-36.83,31.53,36.58,41.37Z"/>
    <path class="cls-1" d="M86.61,62.96l-21.59,18.48-21.59-18.48L6,105.33c.64.2,1.3.34,2,.34h114.04c.69,0,1.35-.14,2-.34l-37.42-42.37Z"/>
    <path class="cls-1" d="M37.1,57.54L.27,26.01v70.78c0,.73.1,1.43.25,2.12l36.58-41.37Z"/>
  </g>
</svg>