<?xml version="1.0" encoding="UTF-8"?>
<svg id="_レイヤー_1" data-name="レイヤー 1" xmlns="http://www.w3.org/2000/svg" viewBox="0 0 130.04 121.71">
  <defs>
    <style>
      .cls-1 {
        fill: #fff;
        fill-rule: evenodd;
      }
    </style>
  </defs>
  <path class="cls-1" d="M65.02,0C29.11,0,0,23.31,0,52.07,0,77.7,23.13,99,53.59,103.33h0s.01,0,.01,0c.72.1,1.44.19,2.16.27,10.37,2.16,1.38,15.14,4.78,17.79,3.91,3.05,33.5-16.73,51.48-33.35,2.6-2.18,4.97-4.54,7.07-7.05l.04-.04c.5-.55.9-1.05,1.2-1.51,6.15-7.95,9.71-17.33,9.71-27.38C130.04,23.31,100.93,0,65.02,0ZM43.8,65.28c0,1.87-1.53,3.39-3.39,3.39h-13.11c-1.87,0-3.39-1.53-3.39-3.39v-25.15c0-1.87,1.53-3.39,3.39-3.39h.28c1.87,0,3.39,1.53,3.39,3.39v21.48h9.44c1.87,0,3.39,1.53,3.39,3.39v.28ZM53.6,65.28c0,1.87-1.53,3.39-3.39,3.39h-.28c-1.87,0-3.39-1.53-3.39-3.39v-25.15c0-1.87,1.53-3.39,3.39-3.39h.28c1.87,0,3.39,1.53,3.39,3.39v25.15ZM84.32,65.28c0,.89-.35,1.75-.98,2.38h0c-.2.25-.49.46-.83.62-.49.26-1.03.4-1.58.4h-.28c-.45,0-.89-.09-1.29-.26-.52-.19-.98-.51-1.32-.97h0c-.09-.11-.17-.22-.25-.34l-12.35-16.86v15.04c0,1.87-1.53,3.39-3.39,3.39h-.28c-1.87,0-3.39-1.53-3.39-3.39v-25.15c0-1.87,1.53-3.39,3.39-3.39h.28c1.26,0,2.36.69,2.94,1.71l12.26,16.44v-14.76c0-1.87,1.53-3.39,3.39-3.39h.28c1.87,0,3.39,1.53,3.39,3.39v25.15ZM108.55,40.47c0,1.87-1.53,3.39-3.39,3.39h-9.44v5.37h9.44c1.87,0,3.39,1.53,3.39,3.39v.28c0,1.86-1.53,3.39-3.39,3.39h-9.44v5.37h9.44c1.87,0,3.39,1.53,3.39,3.39v.28c0,1.87-1.53,3.39-3.39,3.39h-13.11c-1.87,0-3.39-1.53-3.39-3.39v-25.15c0-1.87,1.53-3.39,3.39-3.39h13.11c1.87,0,3.39,1.53,3.39,3.39v.28Z"/>
</svg>